M48
;GenerationSoftware,Autodesk,EAGLE,9.6.2*%
;CreationDate,2022-10-13T15:45:38Z*%
FMAT,2
ICI,OFF
METRIC,TZ,000.000
T2C0.350
T1C1.016
%
G90
M71
T1
X2540Y33020
X2540Y30480
X2540Y27940
X2540Y25400
X2540Y22860
X2540Y20320
X2540Y15240
X2540Y12700
X2540Y10160
X2540Y17780
X2540Y7620
X7874Y20828
X10414Y20828
X12954Y20828
X15494Y20828
X18034Y20828
X20574Y20828
X23114Y20828
X25654Y20828
X30480Y7620
X30480Y10160
X30480Y12700
X30480Y15240
X30480Y17780
X30480Y20320
X30480Y25400
X30480Y27940
X30480Y30480
X2540Y40640
X30480Y33020
X30480Y35560
X30480Y38100
X30480Y40640
X30480Y43180
X30480Y45720
X2540Y45720
X2540Y43180
X30480Y22860
X2540Y38100
X2540Y35560
T2
X14224Y37719
X15748Y37719
X13589Y36957
X13589Y35560
X14224Y34798
X14351Y36195
X14986Y35433
X15748Y34798
X16510Y35560
X14986Y36957
X16510Y36957
X9639Y12014
X6172Y40234
X6172Y38862
X6172Y37719
X6172Y36119
X6172Y23546
X12116Y24917
X6172Y34519
X6172Y33376
X6172Y32004
X6401Y30861
X9284Y28588
X6172Y18288
X15773Y8611
X6121Y43307
X14681Y14402
X22708Y18593
X22352Y5486
X11049Y10033
X9512Y24651
X10744Y23774
X21031Y23317
X15748Y36195
X16459Y12560
M30