G04 EAGLE Gerber RS-274X export*
G75*
%MOMM*%
%FSLAX34Y34*%
%LPD*%
%INSoldermask Top*%
%IPPOS*%
%AMOC8*
5,1,8,0,0,1.08239X$1,22.5*%
G01*
%ADD10R,1.703200X1.503200*%
%ADD11R,1.503200X1.703200*%
%ADD12R,1.703200X1.103200*%
%ADD13R,1.103200X1.703200*%
%ADD14R,1.103200X1.103200*%
%ADD15R,1.953200X1.153200*%
%ADD16R,1.953200X3.403200*%
%ADD17C,1.727200*%
%ADD18R,1.203200X1.303200*%
%ADD19C,0.959600*%


D10*
X223520Y66700D03*
X223520Y85700D03*
X261620Y66700D03*
X261620Y85700D03*
X63500Y142900D03*
X63500Y161900D03*
X185420Y66700D03*
X185420Y85700D03*
D11*
X130200Y114300D03*
X149200Y114300D03*
D10*
X127000Y142900D03*
X127000Y161900D03*
X165100Y142900D03*
X165100Y161900D03*
D12*
X77600Y439700D03*
X77600Y427000D03*
X77600Y414300D03*
X77600Y401600D03*
X77600Y388900D03*
X77600Y376200D03*
X77600Y363500D03*
X77600Y350800D03*
X77600Y338100D03*
X77600Y325400D03*
X77600Y312700D03*
X77600Y300000D03*
X77600Y287300D03*
X77600Y274600D03*
D13*
X95250Y262100D03*
X107950Y262100D03*
X120650Y262100D03*
X133350Y262100D03*
X146050Y262100D03*
X158750Y262100D03*
X171450Y262100D03*
X184150Y262100D03*
X196850Y262100D03*
X209550Y262100D03*
X222250Y262100D03*
X234950Y262100D03*
D12*
X252600Y274600D03*
X252600Y287300D03*
X252600Y300000D03*
X252600Y312700D03*
X252600Y325400D03*
X252600Y338100D03*
X252600Y350800D03*
X252600Y363500D03*
X252600Y376200D03*
X252600Y388900D03*
X252600Y401600D03*
X252600Y414300D03*
X252600Y427000D03*
X252600Y439700D03*
D14*
X150100Y362500D03*
X150100Y376500D03*
X136100Y376500D03*
X136100Y362500D03*
X136100Y348500D03*
X150100Y348500D03*
X164100Y348500D03*
X164100Y362500D03*
X164100Y376500D03*
D15*
X260100Y116700D03*
X260100Y139700D03*
X260100Y162700D03*
D16*
X197100Y139700D03*
D17*
X33020Y457200D02*
X17780Y457200D01*
X17780Y431800D02*
X33020Y431800D01*
X33020Y406400D02*
X17780Y406400D01*
X17780Y381000D02*
X33020Y381000D01*
X33020Y355600D02*
X17780Y355600D01*
X17780Y330200D02*
X33020Y330200D01*
X33020Y304800D02*
X17780Y304800D01*
X17780Y279400D02*
X33020Y279400D01*
X33020Y254000D02*
X17780Y254000D01*
X17780Y228600D02*
X33020Y228600D01*
X33020Y203200D02*
X17780Y203200D01*
X17780Y177800D02*
X33020Y177800D01*
X33020Y152400D02*
X17780Y152400D01*
X17780Y127000D02*
X33020Y127000D01*
X33020Y101600D02*
X17780Y101600D01*
X17780Y76200D02*
X33020Y76200D01*
X78740Y200660D02*
X78740Y215900D01*
X104140Y215900D02*
X104140Y200660D01*
X129540Y200660D02*
X129540Y215900D01*
X154940Y215900D02*
X154940Y200660D01*
X180340Y200660D02*
X180340Y215900D01*
X205740Y215900D02*
X205740Y200660D01*
X231140Y200660D02*
X231140Y215900D01*
X256540Y215900D02*
X256540Y200660D01*
X297180Y76200D02*
X312420Y76200D01*
X312420Y101600D02*
X297180Y101600D01*
X297180Y127000D02*
X312420Y127000D01*
X312420Y152400D02*
X297180Y152400D01*
X297180Y177800D02*
X312420Y177800D01*
X312420Y203200D02*
X297180Y203200D01*
X297180Y228600D02*
X312420Y228600D01*
X312420Y254000D02*
X297180Y254000D01*
X297180Y279400D02*
X312420Y279400D01*
X312420Y304800D02*
X297180Y304800D01*
X297180Y330200D02*
X312420Y330200D01*
X312420Y355600D02*
X297180Y355600D01*
X297180Y381000D02*
X312420Y381000D01*
X312420Y406400D02*
X297180Y406400D01*
X297180Y431800D02*
X312420Y431800D01*
X312420Y457200D02*
X297180Y457200D01*
D18*
X76590Y100330D03*
X93590Y100330D03*
D19*
X142240Y377190D03*
X157480Y377190D03*
X135890Y369570D03*
X135890Y355600D03*
X142240Y347980D03*
X143510Y361950D03*
X149860Y354330D03*
X157480Y347980D03*
X165100Y355600D03*
X157480Y361950D03*
X149860Y369570D03*
X165100Y369570D03*
X96393Y120142D03*
X61722Y402336D03*
X61722Y388620D03*
X61722Y377190D03*
X61722Y361188D03*
X61722Y235458D03*
X121158Y249174D03*
X61722Y345186D03*
X61722Y333756D03*
X61722Y320040D03*
X64008Y308610D03*
X92837Y285877D03*
X61722Y182880D03*
X157734Y86106D03*
X61214Y433070D03*
X146812Y144018D03*
X164592Y125603D03*
X227076Y185928D03*
X223520Y54864D03*
X110490Y100330D03*
X95123Y246507D03*
X107442Y237744D03*
X210312Y233172D03*
M02*
