G04 EAGLE Gerber RS-274X export*
G75*
%MOMM*%
%FSLAX34Y34*%
%LPD*%
%INSolderpaste Top*%
%IPPOS*%
%AMOC8*
5,1,8,0,0,1.08239X$1,22.5*%
G01*
%ADD10R,1.500000X1.300000*%
%ADD11R,1.300000X1.500000*%
%ADD12R,1.500000X0.900000*%
%ADD13R,0.900000X1.500000*%
%ADD14R,0.900000X0.900000*%
%ADD15R,1.750000X0.950000*%
%ADD16R,1.750000X3.200000*%
%ADD17R,1.000000X1.100000*%


D10*
X223520Y66700D03*
X223520Y85700D03*
X261620Y66700D03*
X261620Y85700D03*
X63500Y142900D03*
X63500Y161900D03*
X185420Y66700D03*
X185420Y85700D03*
D11*
X130200Y114300D03*
X149200Y114300D03*
D10*
X127000Y142900D03*
X127000Y161900D03*
X165100Y142900D03*
X165100Y161900D03*
D12*
X77600Y439700D03*
X77600Y427000D03*
X77600Y414300D03*
X77600Y401600D03*
X77600Y388900D03*
X77600Y376200D03*
X77600Y363500D03*
X77600Y350800D03*
X77600Y338100D03*
X77600Y325400D03*
X77600Y312700D03*
X77600Y300000D03*
X77600Y287300D03*
X77600Y274600D03*
D13*
X95250Y262100D03*
X107950Y262100D03*
X120650Y262100D03*
X133350Y262100D03*
X146050Y262100D03*
X158750Y262100D03*
X171450Y262100D03*
X184150Y262100D03*
X196850Y262100D03*
X209550Y262100D03*
X222250Y262100D03*
X234950Y262100D03*
D12*
X252600Y274600D03*
X252600Y287300D03*
X252600Y300000D03*
X252600Y312700D03*
X252600Y325400D03*
X252600Y338100D03*
X252600Y350800D03*
X252600Y363500D03*
X252600Y376200D03*
X252600Y388900D03*
X252600Y401600D03*
X252600Y414300D03*
X252600Y427000D03*
X252600Y439700D03*
D14*
X150100Y362500D03*
X150100Y376500D03*
X136100Y376500D03*
X136100Y362500D03*
X136100Y348500D03*
X150100Y348500D03*
X164100Y348500D03*
X164100Y362500D03*
X164100Y376500D03*
D15*
X260100Y116700D03*
X260100Y139700D03*
X260100Y162700D03*
D16*
X197100Y139700D03*
D17*
X76590Y100330D03*
X93590Y100330D03*
M02*
