G04 EAGLE Gerber RS-274X export*
G75*
%MOMM*%
%FSLAX34Y34*%
%LPD*%
%INSoldermask Bottom*%
%IPPOS*%
%AMOC8*
5,1,8,0,0,1.08239X$1,22.5*%
G01*
%ADD10C,1.727200*%
%ADD11C,0.959600*%


D10*
X17780Y457200D02*
X33020Y457200D01*
X33020Y431800D02*
X17780Y431800D01*
X17780Y406400D02*
X33020Y406400D01*
X33020Y381000D02*
X17780Y381000D01*
X17780Y355600D02*
X33020Y355600D01*
X33020Y330200D02*
X17780Y330200D01*
X17780Y304800D02*
X33020Y304800D01*
X33020Y279400D02*
X17780Y279400D01*
X17780Y254000D02*
X33020Y254000D01*
X33020Y228600D02*
X17780Y228600D01*
X17780Y203200D02*
X33020Y203200D01*
X33020Y177800D02*
X17780Y177800D01*
X17780Y152400D02*
X33020Y152400D01*
X33020Y127000D02*
X17780Y127000D01*
X17780Y101600D02*
X33020Y101600D01*
X33020Y76200D02*
X17780Y76200D01*
X78740Y200660D02*
X78740Y215900D01*
X104140Y215900D02*
X104140Y200660D01*
X129540Y200660D02*
X129540Y215900D01*
X154940Y215900D02*
X154940Y200660D01*
X180340Y200660D02*
X180340Y215900D01*
X205740Y215900D02*
X205740Y200660D01*
X231140Y200660D02*
X231140Y215900D01*
X256540Y215900D02*
X256540Y200660D01*
X297180Y76200D02*
X312420Y76200D01*
X312420Y101600D02*
X297180Y101600D01*
X297180Y127000D02*
X312420Y127000D01*
X312420Y152400D02*
X297180Y152400D01*
X297180Y177800D02*
X312420Y177800D01*
X312420Y203200D02*
X297180Y203200D01*
X297180Y228600D02*
X312420Y228600D01*
X312420Y254000D02*
X297180Y254000D01*
X297180Y279400D02*
X312420Y279400D01*
X312420Y304800D02*
X297180Y304800D01*
X297180Y330200D02*
X312420Y330200D01*
X312420Y355600D02*
X297180Y355600D01*
X297180Y381000D02*
X312420Y381000D01*
X312420Y406400D02*
X297180Y406400D01*
X297180Y431800D02*
X312420Y431800D01*
X312420Y457200D02*
X297180Y457200D01*
D11*
X142240Y377190D03*
X157480Y377190D03*
X135890Y369570D03*
X135890Y355600D03*
X142240Y347980D03*
X143510Y361950D03*
X149860Y354330D03*
X157480Y347980D03*
X165100Y355600D03*
X157480Y361950D03*
X149860Y369570D03*
X165100Y369570D03*
X96393Y120142D03*
X61722Y402336D03*
X61722Y388620D03*
X61722Y377190D03*
X61722Y361188D03*
X61722Y235458D03*
X121158Y249174D03*
X61722Y345186D03*
X61722Y333756D03*
X61722Y320040D03*
X64008Y308610D03*
X92837Y285877D03*
X61722Y182880D03*
X157734Y86106D03*
X61214Y433070D03*
X146812Y144018D03*
X164592Y125603D03*
X227076Y185928D03*
X223520Y54864D03*
X110490Y100330D03*
X95123Y246507D03*
X107442Y237744D03*
X210312Y233172D03*
M02*
