G04 EAGLE Gerber RS-274X export*
G75*
%MOMM*%
%FSLAX34Y34*%
%LPD*%
%INSilkscreen Top*%
%IPPOS*%
%AMOC8*
5,1,8,0,0,1.08239X$1,22.5*%
G01*
%ADD10C,0.076200*%
%ADD11C,0.025400*%
%ADD12C,0.200000*%
%ADD13C,0.100000*%
%ADD14C,0.100000*%
%ADD15C,0.050800*%
%ADD16C,0.152400*%


D10*
X52959Y448691D02*
X52959Y450737D01*
X52957Y450826D01*
X52951Y450915D01*
X52941Y451004D01*
X52928Y451092D01*
X52911Y451180D01*
X52889Y451267D01*
X52864Y451352D01*
X52836Y451437D01*
X52803Y451520D01*
X52767Y451602D01*
X52728Y451682D01*
X52685Y451760D01*
X52639Y451836D01*
X52589Y451911D01*
X52536Y451983D01*
X52480Y452052D01*
X52421Y452119D01*
X52360Y452184D01*
X52295Y452245D01*
X52228Y452304D01*
X52159Y452360D01*
X52087Y452413D01*
X52012Y452463D01*
X51936Y452509D01*
X51858Y452552D01*
X51778Y452591D01*
X51696Y452627D01*
X51613Y452660D01*
X51528Y452688D01*
X51443Y452713D01*
X51356Y452735D01*
X51268Y452752D01*
X51180Y452765D01*
X51091Y452775D01*
X51002Y452781D01*
X50913Y452783D01*
X50824Y452781D01*
X50735Y452775D01*
X50646Y452765D01*
X50558Y452752D01*
X50470Y452735D01*
X50383Y452713D01*
X50298Y452688D01*
X50213Y452660D01*
X50130Y452627D01*
X50048Y452591D01*
X49968Y452552D01*
X49890Y452509D01*
X49814Y452463D01*
X49739Y452413D01*
X49667Y452360D01*
X49598Y452304D01*
X49531Y452245D01*
X49466Y452184D01*
X49405Y452119D01*
X49346Y452052D01*
X49290Y451983D01*
X49237Y451911D01*
X49187Y451836D01*
X49141Y451760D01*
X49098Y451682D01*
X49059Y451602D01*
X49023Y451520D01*
X48990Y451437D01*
X48962Y451352D01*
X48937Y451267D01*
X48915Y451180D01*
X48898Y451092D01*
X48885Y451004D01*
X48875Y450915D01*
X48869Y450826D01*
X48867Y450737D01*
X45593Y451146D02*
X45593Y448691D01*
X45593Y451146D02*
X45595Y451225D01*
X45601Y451304D01*
X45610Y451383D01*
X45623Y451461D01*
X45641Y451538D01*
X45661Y451614D01*
X45686Y451689D01*
X45714Y451763D01*
X45745Y451836D01*
X45781Y451907D01*
X45819Y451976D01*
X45861Y452043D01*
X45906Y452108D01*
X45954Y452171D01*
X46005Y452232D01*
X46059Y452289D01*
X46115Y452345D01*
X46174Y452397D01*
X46236Y452447D01*
X46300Y452493D01*
X46366Y452537D01*
X46434Y452577D01*
X46504Y452613D01*
X46576Y452647D01*
X46650Y452677D01*
X46724Y452703D01*
X46800Y452726D01*
X46877Y452744D01*
X46954Y452760D01*
X47033Y452771D01*
X47111Y452779D01*
X47190Y452783D01*
X47270Y452783D01*
X47349Y452779D01*
X47427Y452771D01*
X47506Y452760D01*
X47583Y452744D01*
X47660Y452726D01*
X47736Y452703D01*
X47810Y452677D01*
X47884Y452647D01*
X47956Y452613D01*
X48026Y452577D01*
X48094Y452537D01*
X48160Y452493D01*
X48224Y452447D01*
X48286Y452397D01*
X48345Y452345D01*
X48401Y452289D01*
X48455Y452232D01*
X48506Y452171D01*
X48554Y452108D01*
X48599Y452043D01*
X48641Y451976D01*
X48679Y451907D01*
X48715Y451836D01*
X48746Y451763D01*
X48774Y451689D01*
X48799Y451614D01*
X48819Y451538D01*
X48837Y451461D01*
X48850Y451383D01*
X48859Y451304D01*
X48865Y451225D01*
X48867Y451146D01*
X48867Y449509D01*
X45593Y455597D02*
X52959Y458052D01*
X45593Y460508D01*
X52959Y463321D02*
X52959Y465367D01*
X52957Y465456D01*
X52951Y465545D01*
X52941Y465634D01*
X52928Y465722D01*
X52911Y465810D01*
X52889Y465897D01*
X52864Y465982D01*
X52836Y466067D01*
X52803Y466150D01*
X52767Y466232D01*
X52728Y466312D01*
X52685Y466390D01*
X52639Y466466D01*
X52589Y466541D01*
X52536Y466613D01*
X52480Y466682D01*
X52421Y466749D01*
X52360Y466814D01*
X52295Y466875D01*
X52228Y466934D01*
X52159Y466990D01*
X52087Y467043D01*
X52012Y467093D01*
X51936Y467139D01*
X51858Y467182D01*
X51778Y467221D01*
X51696Y467257D01*
X51613Y467290D01*
X51528Y467318D01*
X51443Y467343D01*
X51356Y467365D01*
X51268Y467382D01*
X51180Y467395D01*
X51091Y467405D01*
X51002Y467411D01*
X50913Y467413D01*
X50824Y467411D01*
X50735Y467405D01*
X50646Y467395D01*
X50558Y467382D01*
X50470Y467365D01*
X50383Y467343D01*
X50298Y467318D01*
X50213Y467290D01*
X50130Y467257D01*
X50048Y467221D01*
X49968Y467182D01*
X49890Y467139D01*
X49814Y467093D01*
X49739Y467043D01*
X49667Y466990D01*
X49598Y466934D01*
X49531Y466875D01*
X49466Y466814D01*
X49405Y466749D01*
X49346Y466682D01*
X49290Y466613D01*
X49237Y466541D01*
X49187Y466466D01*
X49141Y466390D01*
X49098Y466312D01*
X49059Y466232D01*
X49023Y466150D01*
X48990Y466067D01*
X48962Y465982D01*
X48937Y465897D01*
X48915Y465810D01*
X48898Y465722D01*
X48885Y465634D01*
X48875Y465545D01*
X48869Y465456D01*
X48867Y465367D01*
X45593Y465777D02*
X45593Y463321D01*
X45593Y465777D02*
X45595Y465856D01*
X45601Y465935D01*
X45610Y466014D01*
X45623Y466092D01*
X45641Y466169D01*
X45661Y466245D01*
X45686Y466320D01*
X45714Y466394D01*
X45745Y466467D01*
X45781Y466538D01*
X45819Y466607D01*
X45861Y466674D01*
X45906Y466739D01*
X45954Y466802D01*
X46005Y466863D01*
X46059Y466920D01*
X46115Y466976D01*
X46174Y467028D01*
X46236Y467078D01*
X46300Y467124D01*
X46366Y467168D01*
X46434Y467208D01*
X46504Y467244D01*
X46576Y467278D01*
X46650Y467308D01*
X46724Y467334D01*
X46800Y467357D01*
X46877Y467375D01*
X46954Y467391D01*
X47033Y467402D01*
X47111Y467410D01*
X47190Y467414D01*
X47270Y467414D01*
X47349Y467410D01*
X47427Y467402D01*
X47506Y467391D01*
X47583Y467375D01*
X47660Y467357D01*
X47736Y467334D01*
X47810Y467308D01*
X47884Y467278D01*
X47956Y467244D01*
X48026Y467208D01*
X48094Y467168D01*
X48160Y467124D01*
X48224Y467078D01*
X48286Y467028D01*
X48345Y466976D01*
X48401Y466920D01*
X48455Y466863D01*
X48506Y466802D01*
X48554Y466739D01*
X48599Y466674D01*
X48641Y466607D01*
X48679Y466538D01*
X48715Y466467D01*
X48746Y466394D01*
X48774Y466320D01*
X48799Y466245D01*
X48819Y466169D01*
X48837Y466092D01*
X48850Y466014D01*
X48859Y465935D01*
X48865Y465856D01*
X48867Y465777D01*
X48867Y464140D01*
X52959Y426565D02*
X52959Y423291D01*
X45593Y423291D01*
X45593Y426565D01*
X48867Y425746D02*
X48867Y423291D01*
X45593Y429615D02*
X52959Y429615D01*
X52959Y433707D02*
X45593Y429615D01*
X45593Y433707D02*
X52959Y433707D01*
X45593Y404608D02*
X51322Y402971D01*
X51322Y407063D01*
X49685Y405836D02*
X52959Y405836D01*
X52959Y380026D02*
X52959Y377571D01*
X52959Y380026D02*
X52957Y380104D01*
X52952Y380182D01*
X52942Y380259D01*
X52929Y380336D01*
X52913Y380412D01*
X52893Y380487D01*
X52869Y380561D01*
X52842Y380634D01*
X52811Y380706D01*
X52777Y380776D01*
X52740Y380845D01*
X52699Y380911D01*
X52655Y380976D01*
X52609Y381038D01*
X52559Y381098D01*
X52507Y381156D01*
X52452Y381211D01*
X52394Y381263D01*
X52334Y381313D01*
X52272Y381359D01*
X52207Y381403D01*
X52141Y381444D01*
X52072Y381481D01*
X52002Y381515D01*
X51930Y381546D01*
X51857Y381573D01*
X51783Y381597D01*
X51708Y381617D01*
X51632Y381633D01*
X51555Y381646D01*
X51478Y381656D01*
X51400Y381661D01*
X51322Y381663D01*
X50504Y381663D01*
X50424Y381661D01*
X50344Y381655D01*
X50264Y381645D01*
X50185Y381632D01*
X50106Y381614D01*
X50029Y381593D01*
X49953Y381567D01*
X49878Y381538D01*
X49804Y381506D01*
X49732Y381470D01*
X49662Y381430D01*
X49595Y381387D01*
X49529Y381341D01*
X49466Y381291D01*
X49405Y381239D01*
X49346Y381184D01*
X49291Y381125D01*
X49239Y381065D01*
X49189Y381001D01*
X49143Y380935D01*
X49100Y380868D01*
X49060Y380798D01*
X49024Y380726D01*
X48992Y380652D01*
X48963Y380578D01*
X48937Y380501D01*
X48916Y380424D01*
X48898Y380345D01*
X48885Y380266D01*
X48875Y380186D01*
X48869Y380106D01*
X48867Y380026D01*
X48867Y377571D01*
X45593Y377571D01*
X45593Y381663D01*
X48867Y354626D02*
X48867Y352171D01*
X48867Y354626D02*
X48869Y354704D01*
X48874Y354782D01*
X48884Y354859D01*
X48897Y354936D01*
X48913Y355012D01*
X48933Y355087D01*
X48957Y355161D01*
X48984Y355234D01*
X49015Y355306D01*
X49049Y355376D01*
X49086Y355445D01*
X49127Y355511D01*
X49171Y355576D01*
X49217Y355638D01*
X49267Y355698D01*
X49319Y355756D01*
X49374Y355811D01*
X49432Y355863D01*
X49492Y355913D01*
X49554Y355959D01*
X49619Y356003D01*
X49686Y356044D01*
X49754Y356081D01*
X49824Y356115D01*
X49896Y356146D01*
X49969Y356173D01*
X50043Y356197D01*
X50118Y356217D01*
X50194Y356233D01*
X50271Y356246D01*
X50348Y356256D01*
X50426Y356261D01*
X50504Y356263D01*
X50913Y356263D01*
X51002Y356261D01*
X51091Y356255D01*
X51180Y356245D01*
X51268Y356232D01*
X51356Y356215D01*
X51443Y356193D01*
X51528Y356168D01*
X51613Y356140D01*
X51696Y356107D01*
X51778Y356071D01*
X51858Y356032D01*
X51936Y355989D01*
X52012Y355943D01*
X52087Y355893D01*
X52159Y355840D01*
X52228Y355784D01*
X52295Y355725D01*
X52360Y355664D01*
X52421Y355599D01*
X52480Y355532D01*
X52536Y355463D01*
X52589Y355391D01*
X52639Y355316D01*
X52685Y355240D01*
X52728Y355162D01*
X52767Y355082D01*
X52803Y355000D01*
X52836Y354917D01*
X52864Y354832D01*
X52889Y354747D01*
X52911Y354660D01*
X52928Y354572D01*
X52941Y354484D01*
X52951Y354395D01*
X52957Y354306D01*
X52959Y354217D01*
X52957Y354128D01*
X52951Y354039D01*
X52941Y353950D01*
X52928Y353862D01*
X52911Y353774D01*
X52889Y353687D01*
X52864Y353602D01*
X52836Y353517D01*
X52803Y353434D01*
X52767Y353352D01*
X52728Y353272D01*
X52685Y353194D01*
X52639Y353118D01*
X52589Y353043D01*
X52536Y352971D01*
X52480Y352902D01*
X52421Y352835D01*
X52360Y352770D01*
X52295Y352709D01*
X52228Y352650D01*
X52159Y352594D01*
X52087Y352541D01*
X52012Y352491D01*
X51936Y352445D01*
X51858Y352402D01*
X51778Y352363D01*
X51696Y352327D01*
X51613Y352294D01*
X51528Y352266D01*
X51443Y352241D01*
X51356Y352219D01*
X51268Y352202D01*
X51180Y352189D01*
X51091Y352179D01*
X51002Y352173D01*
X50913Y352171D01*
X48867Y352171D01*
X48753Y352173D01*
X48639Y352179D01*
X48525Y352189D01*
X48411Y352203D01*
X48298Y352221D01*
X48186Y352243D01*
X48075Y352268D01*
X47965Y352298D01*
X47855Y352331D01*
X47747Y352368D01*
X47641Y352409D01*
X47535Y352454D01*
X47432Y352502D01*
X47330Y352554D01*
X47230Y352610D01*
X47132Y352668D01*
X47036Y352731D01*
X46943Y352796D01*
X46851Y352865D01*
X46763Y352937D01*
X46676Y353012D01*
X46593Y353090D01*
X46512Y353171D01*
X46434Y353254D01*
X46359Y353340D01*
X46287Y353429D01*
X46218Y353521D01*
X46153Y353614D01*
X46091Y353710D01*
X46032Y353808D01*
X45976Y353908D01*
X45924Y354010D01*
X45876Y354113D01*
X45831Y354218D01*
X45790Y354325D01*
X45753Y354433D01*
X45720Y354543D01*
X45690Y354653D01*
X45665Y354764D01*
X45643Y354876D01*
X45625Y354989D01*
X45611Y355103D01*
X45601Y355217D01*
X45595Y355331D01*
X45593Y355445D01*
X45593Y326771D02*
X46411Y326771D01*
X45593Y326771D02*
X45593Y330863D01*
X52959Y328817D01*
X45593Y300877D02*
X47230Y298831D01*
X45593Y300877D02*
X52959Y300877D01*
X52959Y298831D02*
X52959Y302923D01*
X52959Y306146D02*
X52959Y308602D01*
X52957Y308680D01*
X52952Y308758D01*
X52942Y308835D01*
X52929Y308912D01*
X52913Y308988D01*
X52893Y309063D01*
X52869Y309137D01*
X52842Y309210D01*
X52811Y309282D01*
X52777Y309352D01*
X52740Y309421D01*
X52699Y309487D01*
X52655Y309552D01*
X52609Y309614D01*
X52559Y309674D01*
X52507Y309732D01*
X52452Y309787D01*
X52394Y309839D01*
X52334Y309889D01*
X52272Y309935D01*
X52207Y309979D01*
X52141Y310020D01*
X52072Y310057D01*
X52002Y310091D01*
X51930Y310122D01*
X51857Y310149D01*
X51783Y310173D01*
X51708Y310193D01*
X51632Y310209D01*
X51555Y310222D01*
X51478Y310232D01*
X51400Y310237D01*
X51322Y310239D01*
X51322Y310238D02*
X50504Y310238D01*
X50504Y310239D02*
X50424Y310237D01*
X50344Y310231D01*
X50264Y310221D01*
X50185Y310208D01*
X50106Y310190D01*
X50029Y310169D01*
X49953Y310143D01*
X49878Y310114D01*
X49804Y310082D01*
X49732Y310046D01*
X49662Y310006D01*
X49595Y309963D01*
X49529Y309917D01*
X49466Y309867D01*
X49405Y309815D01*
X49346Y309760D01*
X49291Y309701D01*
X49239Y309641D01*
X49189Y309577D01*
X49143Y309511D01*
X49100Y309444D01*
X49060Y309374D01*
X49024Y309302D01*
X48992Y309228D01*
X48963Y309154D01*
X48937Y309077D01*
X48916Y309000D01*
X48898Y308921D01*
X48885Y308842D01*
X48875Y308762D01*
X48869Y308682D01*
X48867Y308602D01*
X48867Y306146D01*
X45593Y306146D01*
X45593Y310238D01*
X45593Y275477D02*
X47230Y273431D01*
X45593Y275477D02*
X52959Y275477D01*
X52959Y273431D02*
X52959Y277523D01*
X48867Y280746D02*
X48867Y283202D01*
X48869Y283280D01*
X48874Y283358D01*
X48884Y283435D01*
X48897Y283512D01*
X48913Y283588D01*
X48933Y283663D01*
X48957Y283737D01*
X48984Y283810D01*
X49015Y283882D01*
X49049Y283952D01*
X49086Y284021D01*
X49127Y284087D01*
X49171Y284152D01*
X49217Y284214D01*
X49267Y284274D01*
X49319Y284332D01*
X49374Y284387D01*
X49432Y284439D01*
X49492Y284489D01*
X49554Y284535D01*
X49619Y284579D01*
X49686Y284620D01*
X49754Y284657D01*
X49824Y284691D01*
X49896Y284722D01*
X49969Y284749D01*
X50043Y284773D01*
X50118Y284793D01*
X50194Y284809D01*
X50271Y284822D01*
X50348Y284832D01*
X50426Y284837D01*
X50504Y284839D01*
X50504Y284838D02*
X50913Y284838D01*
X51002Y284836D01*
X51091Y284830D01*
X51180Y284820D01*
X51268Y284807D01*
X51356Y284790D01*
X51443Y284768D01*
X51528Y284743D01*
X51613Y284715D01*
X51696Y284682D01*
X51778Y284646D01*
X51858Y284607D01*
X51936Y284564D01*
X52012Y284518D01*
X52087Y284468D01*
X52159Y284415D01*
X52228Y284359D01*
X52295Y284300D01*
X52360Y284239D01*
X52421Y284174D01*
X52480Y284107D01*
X52536Y284038D01*
X52589Y283966D01*
X52639Y283891D01*
X52685Y283815D01*
X52728Y283737D01*
X52767Y283657D01*
X52803Y283575D01*
X52836Y283492D01*
X52864Y283407D01*
X52889Y283322D01*
X52911Y283235D01*
X52928Y283147D01*
X52941Y283059D01*
X52951Y282970D01*
X52957Y282881D01*
X52959Y282792D01*
X52957Y282703D01*
X52951Y282614D01*
X52941Y282525D01*
X52928Y282437D01*
X52911Y282349D01*
X52889Y282262D01*
X52864Y282177D01*
X52836Y282092D01*
X52803Y282009D01*
X52767Y281927D01*
X52728Y281847D01*
X52685Y281769D01*
X52639Y281693D01*
X52589Y281618D01*
X52536Y281546D01*
X52480Y281477D01*
X52421Y281410D01*
X52360Y281345D01*
X52295Y281284D01*
X52228Y281225D01*
X52159Y281169D01*
X52087Y281116D01*
X52012Y281066D01*
X51936Y281020D01*
X51858Y280977D01*
X51778Y280938D01*
X51696Y280902D01*
X51613Y280869D01*
X51528Y280841D01*
X51443Y280816D01*
X51356Y280794D01*
X51268Y280777D01*
X51180Y280764D01*
X51091Y280754D01*
X51002Y280748D01*
X50913Y280746D01*
X48867Y280746D01*
X48753Y280748D01*
X48639Y280754D01*
X48525Y280764D01*
X48411Y280778D01*
X48298Y280796D01*
X48186Y280818D01*
X48075Y280843D01*
X47965Y280873D01*
X47855Y280906D01*
X47747Y280943D01*
X47641Y280984D01*
X47535Y281029D01*
X47432Y281077D01*
X47330Y281129D01*
X47230Y281185D01*
X47132Y281243D01*
X47036Y281306D01*
X46943Y281371D01*
X46851Y281440D01*
X46763Y281512D01*
X46676Y281587D01*
X46593Y281665D01*
X46512Y281746D01*
X46434Y281829D01*
X46359Y281915D01*
X46287Y282004D01*
X46218Y282096D01*
X46153Y282189D01*
X46091Y282285D01*
X46032Y282383D01*
X45976Y282483D01*
X45924Y282585D01*
X45876Y282688D01*
X45831Y282793D01*
X45790Y282900D01*
X45753Y283008D01*
X45720Y283118D01*
X45690Y283228D01*
X45665Y283339D01*
X45643Y283451D01*
X45625Y283564D01*
X45611Y283678D01*
X45601Y283792D01*
X45595Y283906D01*
X45593Y284020D01*
X45593Y250077D02*
X47230Y248031D01*
X45593Y250077D02*
X52959Y250077D01*
X52959Y248031D02*
X52959Y252123D01*
X46411Y255346D02*
X45593Y255346D01*
X45593Y259438D01*
X52959Y257392D01*
X45593Y223407D02*
X47230Y221361D01*
X45593Y223407D02*
X52959Y223407D01*
X52959Y221361D02*
X52959Y225453D01*
X50913Y228676D02*
X50824Y228678D01*
X50735Y228684D01*
X50646Y228694D01*
X50558Y228707D01*
X50470Y228724D01*
X50383Y228746D01*
X50298Y228771D01*
X50213Y228799D01*
X50130Y228832D01*
X50048Y228868D01*
X49968Y228907D01*
X49890Y228950D01*
X49814Y228996D01*
X49739Y229046D01*
X49667Y229099D01*
X49598Y229155D01*
X49531Y229214D01*
X49466Y229275D01*
X49405Y229340D01*
X49346Y229407D01*
X49290Y229476D01*
X49237Y229548D01*
X49187Y229623D01*
X49141Y229699D01*
X49098Y229777D01*
X49059Y229857D01*
X49023Y229939D01*
X48990Y230022D01*
X48962Y230107D01*
X48937Y230192D01*
X48915Y230279D01*
X48898Y230367D01*
X48885Y230455D01*
X48875Y230544D01*
X48869Y230633D01*
X48867Y230722D01*
X48869Y230811D01*
X48875Y230900D01*
X48885Y230989D01*
X48898Y231077D01*
X48915Y231165D01*
X48937Y231252D01*
X48962Y231337D01*
X48990Y231422D01*
X49023Y231505D01*
X49059Y231587D01*
X49098Y231667D01*
X49141Y231745D01*
X49187Y231821D01*
X49237Y231896D01*
X49290Y231968D01*
X49346Y232037D01*
X49405Y232104D01*
X49466Y232169D01*
X49531Y232230D01*
X49598Y232289D01*
X49667Y232345D01*
X49739Y232398D01*
X49814Y232448D01*
X49890Y232494D01*
X49968Y232537D01*
X50048Y232576D01*
X50130Y232612D01*
X50213Y232645D01*
X50298Y232673D01*
X50383Y232698D01*
X50470Y232720D01*
X50558Y232737D01*
X50646Y232750D01*
X50735Y232760D01*
X50824Y232766D01*
X50913Y232768D01*
X51002Y232766D01*
X51091Y232760D01*
X51180Y232750D01*
X51268Y232737D01*
X51356Y232720D01*
X51443Y232698D01*
X51528Y232673D01*
X51613Y232645D01*
X51696Y232612D01*
X51778Y232576D01*
X51858Y232537D01*
X51936Y232494D01*
X52012Y232448D01*
X52087Y232398D01*
X52159Y232345D01*
X52228Y232289D01*
X52295Y232230D01*
X52360Y232169D01*
X52421Y232104D01*
X52480Y232037D01*
X52536Y231968D01*
X52589Y231896D01*
X52639Y231821D01*
X52685Y231745D01*
X52728Y231667D01*
X52767Y231587D01*
X52803Y231505D01*
X52836Y231422D01*
X52864Y231337D01*
X52889Y231252D01*
X52911Y231165D01*
X52928Y231077D01*
X52941Y230989D01*
X52951Y230900D01*
X52957Y230811D01*
X52959Y230722D01*
X52957Y230633D01*
X52951Y230544D01*
X52941Y230455D01*
X52928Y230367D01*
X52911Y230279D01*
X52889Y230192D01*
X52864Y230107D01*
X52836Y230022D01*
X52803Y229939D01*
X52767Y229857D01*
X52728Y229777D01*
X52685Y229699D01*
X52639Y229623D01*
X52589Y229548D01*
X52536Y229476D01*
X52480Y229407D01*
X52421Y229340D01*
X52360Y229275D01*
X52295Y229214D01*
X52228Y229155D01*
X52159Y229099D01*
X52087Y229046D01*
X52012Y228996D01*
X51936Y228950D01*
X51858Y228907D01*
X51778Y228868D01*
X51696Y228832D01*
X51613Y228799D01*
X51528Y228771D01*
X51443Y228746D01*
X51356Y228724D01*
X51268Y228707D01*
X51180Y228694D01*
X51091Y228684D01*
X51002Y228678D01*
X50913Y228676D01*
X47230Y229085D02*
X47151Y229087D01*
X47072Y229093D01*
X46993Y229102D01*
X46915Y229115D01*
X46838Y229133D01*
X46762Y229153D01*
X46687Y229178D01*
X46613Y229206D01*
X46540Y229237D01*
X46469Y229273D01*
X46400Y229311D01*
X46333Y229353D01*
X46268Y229398D01*
X46205Y229446D01*
X46144Y229497D01*
X46087Y229551D01*
X46031Y229607D01*
X45979Y229666D01*
X45929Y229728D01*
X45883Y229792D01*
X45839Y229858D01*
X45799Y229926D01*
X45763Y229996D01*
X45729Y230068D01*
X45699Y230142D01*
X45673Y230216D01*
X45650Y230292D01*
X45632Y230369D01*
X45616Y230446D01*
X45605Y230525D01*
X45597Y230603D01*
X45593Y230682D01*
X45593Y230762D01*
X45597Y230841D01*
X45605Y230919D01*
X45616Y230998D01*
X45632Y231075D01*
X45650Y231152D01*
X45673Y231228D01*
X45699Y231302D01*
X45729Y231376D01*
X45763Y231448D01*
X45799Y231518D01*
X45839Y231586D01*
X45883Y231652D01*
X45929Y231716D01*
X45979Y231778D01*
X46031Y231837D01*
X46087Y231893D01*
X46144Y231947D01*
X46205Y231998D01*
X46268Y232046D01*
X46333Y232091D01*
X46400Y232133D01*
X46469Y232171D01*
X46540Y232207D01*
X46613Y232238D01*
X46687Y232266D01*
X46762Y232291D01*
X46838Y232311D01*
X46915Y232329D01*
X46993Y232342D01*
X47072Y232351D01*
X47151Y232357D01*
X47230Y232359D01*
X47309Y232357D01*
X47388Y232351D01*
X47467Y232342D01*
X47545Y232329D01*
X47622Y232311D01*
X47698Y232291D01*
X47773Y232266D01*
X47847Y232238D01*
X47920Y232207D01*
X47991Y232171D01*
X48060Y232133D01*
X48127Y232091D01*
X48192Y232046D01*
X48255Y231998D01*
X48316Y231947D01*
X48373Y231893D01*
X48429Y231837D01*
X48481Y231778D01*
X48531Y231716D01*
X48577Y231652D01*
X48621Y231586D01*
X48661Y231518D01*
X48697Y231448D01*
X48731Y231376D01*
X48761Y231302D01*
X48787Y231228D01*
X48810Y231152D01*
X48828Y231075D01*
X48844Y230998D01*
X48855Y230919D01*
X48863Y230841D01*
X48867Y230762D01*
X48867Y230682D01*
X48863Y230603D01*
X48855Y230525D01*
X48844Y230446D01*
X48828Y230369D01*
X48810Y230292D01*
X48787Y230216D01*
X48761Y230142D01*
X48731Y230068D01*
X48697Y229996D01*
X48661Y229926D01*
X48621Y229858D01*
X48577Y229792D01*
X48531Y229728D01*
X48481Y229666D01*
X48429Y229607D01*
X48373Y229551D01*
X48316Y229497D01*
X48255Y229446D01*
X48192Y229398D01*
X48127Y229353D01*
X48060Y229311D01*
X47991Y229273D01*
X47920Y229237D01*
X47847Y229206D01*
X47773Y229178D01*
X47698Y229153D01*
X47622Y229133D01*
X47545Y229115D01*
X47467Y229102D01*
X47388Y229093D01*
X47309Y229087D01*
X47230Y229085D01*
X50913Y205133D02*
X50824Y205131D01*
X50735Y205125D01*
X50646Y205115D01*
X50558Y205102D01*
X50470Y205085D01*
X50383Y205063D01*
X50298Y205038D01*
X50213Y205010D01*
X50130Y204977D01*
X50048Y204941D01*
X49968Y204902D01*
X49890Y204859D01*
X49814Y204813D01*
X49739Y204763D01*
X49667Y204710D01*
X49598Y204654D01*
X49531Y204595D01*
X49466Y204534D01*
X49405Y204469D01*
X49346Y204402D01*
X49290Y204333D01*
X49237Y204261D01*
X49187Y204186D01*
X49141Y204110D01*
X49098Y204032D01*
X49059Y203952D01*
X49023Y203870D01*
X48990Y203787D01*
X48962Y203702D01*
X48937Y203617D01*
X48915Y203530D01*
X48898Y203442D01*
X48885Y203354D01*
X48875Y203265D01*
X48869Y203176D01*
X48867Y203087D01*
X48869Y202998D01*
X48875Y202909D01*
X48885Y202820D01*
X48898Y202732D01*
X48915Y202644D01*
X48937Y202557D01*
X48962Y202472D01*
X48990Y202387D01*
X49023Y202304D01*
X49059Y202222D01*
X49098Y202142D01*
X49141Y202064D01*
X49187Y201988D01*
X49237Y201913D01*
X49290Y201841D01*
X49346Y201772D01*
X49405Y201705D01*
X49466Y201640D01*
X49531Y201579D01*
X49598Y201520D01*
X49667Y201464D01*
X49739Y201411D01*
X49814Y201361D01*
X49890Y201315D01*
X49968Y201272D01*
X50048Y201233D01*
X50130Y201197D01*
X50213Y201164D01*
X50298Y201136D01*
X50383Y201111D01*
X50470Y201089D01*
X50558Y201072D01*
X50646Y201059D01*
X50735Y201049D01*
X50824Y201043D01*
X50913Y201041D01*
X51002Y201043D01*
X51091Y201049D01*
X51180Y201059D01*
X51268Y201072D01*
X51356Y201089D01*
X51443Y201111D01*
X51528Y201136D01*
X51613Y201164D01*
X51696Y201197D01*
X51778Y201233D01*
X51858Y201272D01*
X51936Y201315D01*
X52012Y201361D01*
X52087Y201411D01*
X52159Y201464D01*
X52228Y201520D01*
X52295Y201579D01*
X52360Y201640D01*
X52421Y201705D01*
X52480Y201772D01*
X52536Y201841D01*
X52589Y201913D01*
X52639Y201988D01*
X52685Y202064D01*
X52728Y202142D01*
X52767Y202222D01*
X52803Y202304D01*
X52836Y202387D01*
X52864Y202472D01*
X52889Y202557D01*
X52911Y202644D01*
X52928Y202732D01*
X52941Y202820D01*
X52951Y202909D01*
X52957Y202998D01*
X52959Y203087D01*
X52957Y203176D01*
X52951Y203265D01*
X52941Y203354D01*
X52928Y203442D01*
X52911Y203530D01*
X52889Y203617D01*
X52864Y203702D01*
X52836Y203787D01*
X52803Y203870D01*
X52767Y203952D01*
X52728Y204032D01*
X52685Y204110D01*
X52639Y204186D01*
X52589Y204261D01*
X52536Y204333D01*
X52480Y204402D01*
X52421Y204469D01*
X52360Y204534D01*
X52295Y204595D01*
X52228Y204654D01*
X52159Y204710D01*
X52087Y204763D01*
X52012Y204813D01*
X51936Y204859D01*
X51858Y204902D01*
X51778Y204941D01*
X51696Y204977D01*
X51613Y205010D01*
X51528Y205038D01*
X51443Y205063D01*
X51356Y205085D01*
X51268Y205102D01*
X51180Y205115D01*
X51091Y205125D01*
X51002Y205131D01*
X50913Y205133D01*
X47230Y204724D02*
X47151Y204722D01*
X47072Y204716D01*
X46993Y204707D01*
X46915Y204694D01*
X46838Y204676D01*
X46762Y204656D01*
X46687Y204631D01*
X46613Y204603D01*
X46540Y204572D01*
X46469Y204536D01*
X46400Y204498D01*
X46333Y204456D01*
X46268Y204411D01*
X46205Y204363D01*
X46144Y204312D01*
X46087Y204258D01*
X46031Y204202D01*
X45979Y204143D01*
X45929Y204081D01*
X45883Y204017D01*
X45839Y203951D01*
X45799Y203883D01*
X45763Y203813D01*
X45729Y203741D01*
X45699Y203667D01*
X45673Y203593D01*
X45650Y203517D01*
X45632Y203440D01*
X45616Y203363D01*
X45605Y203284D01*
X45597Y203206D01*
X45593Y203127D01*
X45593Y203047D01*
X45597Y202968D01*
X45605Y202890D01*
X45616Y202811D01*
X45632Y202734D01*
X45650Y202657D01*
X45673Y202581D01*
X45699Y202507D01*
X45729Y202433D01*
X45763Y202361D01*
X45799Y202291D01*
X45839Y202223D01*
X45883Y202157D01*
X45929Y202093D01*
X45979Y202031D01*
X46031Y201972D01*
X46087Y201916D01*
X46144Y201862D01*
X46205Y201811D01*
X46268Y201763D01*
X46333Y201718D01*
X46400Y201676D01*
X46469Y201638D01*
X46540Y201602D01*
X46613Y201571D01*
X46687Y201543D01*
X46762Y201518D01*
X46838Y201498D01*
X46915Y201480D01*
X46993Y201467D01*
X47072Y201458D01*
X47151Y201452D01*
X47230Y201450D01*
X47309Y201452D01*
X47388Y201458D01*
X47467Y201467D01*
X47545Y201480D01*
X47622Y201498D01*
X47698Y201518D01*
X47773Y201543D01*
X47847Y201571D01*
X47920Y201602D01*
X47991Y201638D01*
X48060Y201676D01*
X48127Y201718D01*
X48192Y201763D01*
X48255Y201811D01*
X48316Y201862D01*
X48373Y201916D01*
X48429Y201972D01*
X48481Y202031D01*
X48531Y202093D01*
X48577Y202157D01*
X48621Y202223D01*
X48661Y202291D01*
X48697Y202361D01*
X48731Y202433D01*
X48761Y202507D01*
X48787Y202581D01*
X48810Y202657D01*
X48828Y202734D01*
X48844Y202811D01*
X48855Y202890D01*
X48863Y202968D01*
X48867Y203047D01*
X48867Y203127D01*
X48863Y203206D01*
X48855Y203284D01*
X48844Y203363D01*
X48828Y203440D01*
X48810Y203517D01*
X48787Y203593D01*
X48761Y203667D01*
X48731Y203741D01*
X48697Y203813D01*
X48661Y203883D01*
X48621Y203951D01*
X48577Y204017D01*
X48531Y204081D01*
X48481Y204143D01*
X48429Y204202D01*
X48373Y204258D01*
X48316Y204312D01*
X48255Y204363D01*
X48192Y204411D01*
X48127Y204456D01*
X48060Y204498D01*
X47991Y204536D01*
X47920Y204572D01*
X47847Y204603D01*
X47773Y204631D01*
X47698Y204656D01*
X47622Y204676D01*
X47545Y204694D01*
X47467Y204707D01*
X47388Y204716D01*
X47309Y204722D01*
X47230Y204724D01*
X45593Y173877D02*
X47230Y171831D01*
X45593Y173877D02*
X52959Y173877D01*
X52959Y171831D02*
X52959Y175923D01*
X49685Y180783D02*
X49685Y183238D01*
X49685Y180783D02*
X49683Y180705D01*
X49678Y180627D01*
X49668Y180550D01*
X49655Y180473D01*
X49639Y180397D01*
X49619Y180322D01*
X49595Y180248D01*
X49568Y180175D01*
X49537Y180103D01*
X49503Y180033D01*
X49466Y179965D01*
X49425Y179898D01*
X49381Y179833D01*
X49335Y179771D01*
X49285Y179711D01*
X49233Y179653D01*
X49178Y179598D01*
X49120Y179546D01*
X49060Y179496D01*
X48998Y179450D01*
X48933Y179406D01*
X48867Y179365D01*
X48798Y179328D01*
X48728Y179294D01*
X48656Y179263D01*
X48583Y179236D01*
X48509Y179212D01*
X48434Y179192D01*
X48358Y179176D01*
X48281Y179163D01*
X48204Y179153D01*
X48126Y179148D01*
X48048Y179146D01*
X47639Y179146D01*
X47550Y179148D01*
X47461Y179154D01*
X47372Y179164D01*
X47284Y179177D01*
X47196Y179194D01*
X47109Y179216D01*
X47024Y179241D01*
X46939Y179269D01*
X46856Y179302D01*
X46774Y179338D01*
X46694Y179377D01*
X46616Y179420D01*
X46540Y179466D01*
X46465Y179516D01*
X46393Y179569D01*
X46324Y179625D01*
X46257Y179684D01*
X46192Y179745D01*
X46131Y179810D01*
X46072Y179877D01*
X46016Y179946D01*
X45963Y180018D01*
X45913Y180093D01*
X45867Y180169D01*
X45824Y180247D01*
X45785Y180327D01*
X45749Y180409D01*
X45716Y180492D01*
X45688Y180577D01*
X45663Y180662D01*
X45641Y180749D01*
X45624Y180837D01*
X45611Y180925D01*
X45601Y181014D01*
X45595Y181103D01*
X45593Y181192D01*
X45595Y181281D01*
X45601Y181370D01*
X45611Y181459D01*
X45624Y181547D01*
X45641Y181635D01*
X45663Y181722D01*
X45688Y181807D01*
X45716Y181892D01*
X45749Y181975D01*
X45785Y182057D01*
X45824Y182137D01*
X45867Y182215D01*
X45913Y182291D01*
X45963Y182366D01*
X46016Y182438D01*
X46072Y182507D01*
X46131Y182574D01*
X46192Y182639D01*
X46257Y182700D01*
X46324Y182759D01*
X46393Y182815D01*
X46465Y182868D01*
X46540Y182918D01*
X46616Y182964D01*
X46694Y183007D01*
X46774Y183046D01*
X46856Y183082D01*
X46939Y183115D01*
X47024Y183143D01*
X47109Y183168D01*
X47196Y183190D01*
X47284Y183207D01*
X47372Y183220D01*
X47461Y183230D01*
X47550Y183236D01*
X47639Y183238D01*
X49685Y183238D01*
X49685Y183239D02*
X49797Y183237D01*
X49908Y183231D01*
X50020Y183222D01*
X50131Y183209D01*
X50241Y183191D01*
X50351Y183171D01*
X50460Y183146D01*
X50568Y183118D01*
X50675Y183086D01*
X50781Y183050D01*
X50886Y183011D01*
X50989Y182968D01*
X51091Y182922D01*
X51191Y182872D01*
X51290Y182819D01*
X51386Y182762D01*
X51481Y182703D01*
X51573Y182640D01*
X51663Y182574D01*
X51751Y182505D01*
X51837Y182433D01*
X51920Y182358D01*
X52000Y182280D01*
X52078Y182200D01*
X52153Y182117D01*
X52225Y182031D01*
X52294Y181943D01*
X52360Y181853D01*
X52423Y181761D01*
X52482Y181666D01*
X52539Y181570D01*
X52592Y181471D01*
X52642Y181371D01*
X52688Y181269D01*
X52731Y181166D01*
X52770Y181061D01*
X52806Y180955D01*
X52838Y180848D01*
X52866Y180740D01*
X52891Y180631D01*
X52911Y180521D01*
X52929Y180411D01*
X52942Y180300D01*
X52951Y180188D01*
X52957Y180077D01*
X52959Y179965D01*
X46165Y150524D02*
X46080Y150522D01*
X45995Y150516D01*
X45911Y150506D01*
X45827Y150493D01*
X45743Y150475D01*
X45661Y150454D01*
X45580Y150429D01*
X45500Y150400D01*
X45421Y150367D01*
X45344Y150331D01*
X45269Y150291D01*
X45195Y150248D01*
X45124Y150202D01*
X45055Y150152D01*
X44988Y150099D01*
X44924Y150043D01*
X44863Y149984D01*
X44804Y149923D01*
X44748Y149859D01*
X44695Y149792D01*
X44645Y149723D01*
X44599Y149652D01*
X44556Y149578D01*
X44516Y149503D01*
X44480Y149426D01*
X44447Y149347D01*
X44418Y149267D01*
X44393Y149186D01*
X44372Y149104D01*
X44354Y149020D01*
X44341Y148936D01*
X44331Y148852D01*
X44325Y148767D01*
X44323Y148682D01*
X44325Y148586D01*
X44331Y148490D01*
X44341Y148395D01*
X44354Y148300D01*
X44372Y148205D01*
X44393Y148112D01*
X44418Y148019D01*
X44447Y147928D01*
X44479Y147837D01*
X44515Y147748D01*
X44555Y147661D01*
X44598Y147575D01*
X44644Y147491D01*
X44694Y147409D01*
X44748Y147329D01*
X44804Y147252D01*
X44864Y147177D01*
X44926Y147104D01*
X44992Y147034D01*
X45060Y146966D01*
X45131Y146901D01*
X45204Y146840D01*
X45280Y146781D01*
X45359Y146725D01*
X45439Y146673D01*
X45522Y146624D01*
X45606Y146578D01*
X45692Y146536D01*
X45780Y146498D01*
X45869Y146463D01*
X45960Y146431D01*
X47597Y149909D02*
X47538Y149969D01*
X47476Y150026D01*
X47412Y150081D01*
X47345Y150132D01*
X47276Y150181D01*
X47206Y150227D01*
X47133Y150270D01*
X47059Y150310D01*
X46983Y150346D01*
X46905Y150379D01*
X46826Y150409D01*
X46746Y150436D01*
X46665Y150459D01*
X46583Y150478D01*
X46501Y150494D01*
X46417Y150507D01*
X46333Y150516D01*
X46249Y150521D01*
X46165Y150523D01*
X47597Y149909D02*
X51689Y146431D01*
X51689Y150523D01*
X48006Y153747D02*
X47853Y153749D01*
X47700Y153755D01*
X47548Y153764D01*
X47395Y153778D01*
X47243Y153795D01*
X47092Y153816D01*
X46941Y153841D01*
X46791Y153870D01*
X46641Y153902D01*
X46493Y153939D01*
X46345Y153979D01*
X46198Y154022D01*
X46053Y154070D01*
X45909Y154121D01*
X45766Y154175D01*
X45624Y154234D01*
X45485Y154295D01*
X45346Y154361D01*
X45346Y154360D02*
X45276Y154386D01*
X45206Y154416D01*
X45139Y154449D01*
X45073Y154485D01*
X45009Y154524D01*
X44947Y154567D01*
X44888Y154613D01*
X44830Y154661D01*
X44776Y154712D01*
X44723Y154766D01*
X44674Y154823D01*
X44627Y154882D01*
X44584Y154943D01*
X44543Y155006D01*
X44506Y155071D01*
X44471Y155138D01*
X44441Y155207D01*
X44413Y155277D01*
X44390Y155348D01*
X44369Y155420D01*
X44353Y155493D01*
X44340Y155567D01*
X44330Y155642D01*
X44325Y155717D01*
X44323Y155792D01*
X44325Y155867D01*
X44330Y155942D01*
X44340Y156017D01*
X44353Y156091D01*
X44369Y156164D01*
X44390Y156236D01*
X44413Y156307D01*
X44441Y156377D01*
X44471Y156446D01*
X44506Y156513D01*
X44543Y156578D01*
X44584Y156641D01*
X44627Y156702D01*
X44674Y156761D01*
X44723Y156818D01*
X44776Y156872D01*
X44830Y156923D01*
X44888Y156972D01*
X44947Y157017D01*
X45009Y157060D01*
X45073Y157099D01*
X45139Y157136D01*
X45207Y157168D01*
X45276Y157198D01*
X45346Y157224D01*
X45484Y157289D01*
X45624Y157351D01*
X45766Y157409D01*
X45909Y157464D01*
X46053Y157515D01*
X46198Y157563D01*
X46345Y157606D01*
X46492Y157646D01*
X46641Y157683D01*
X46791Y157715D01*
X46941Y157744D01*
X47092Y157769D01*
X47243Y157790D01*
X47395Y157807D01*
X47548Y157821D01*
X47700Y157830D01*
X47853Y157836D01*
X48006Y157838D01*
X48006Y153747D02*
X48159Y153749D01*
X48312Y153755D01*
X48464Y153764D01*
X48617Y153778D01*
X48769Y153795D01*
X48920Y153816D01*
X49071Y153841D01*
X49221Y153870D01*
X49371Y153902D01*
X49519Y153939D01*
X49667Y153979D01*
X49814Y154022D01*
X49959Y154070D01*
X50103Y154121D01*
X50246Y154175D01*
X50388Y154234D01*
X50527Y154295D01*
X50666Y154361D01*
X50666Y154360D02*
X50737Y154386D01*
X50806Y154416D01*
X50873Y154449D01*
X50939Y154485D01*
X51003Y154524D01*
X51065Y154567D01*
X51124Y154613D01*
X51182Y154661D01*
X51236Y154712D01*
X51289Y154766D01*
X51338Y154823D01*
X51385Y154882D01*
X51428Y154943D01*
X51469Y155006D01*
X51506Y155071D01*
X51541Y155138D01*
X51571Y155207D01*
X51599Y155277D01*
X51622Y155348D01*
X51643Y155420D01*
X51659Y155493D01*
X51672Y155567D01*
X51682Y155642D01*
X51687Y155717D01*
X51689Y155792D01*
X50666Y157224D02*
X50528Y157289D01*
X50388Y157351D01*
X50246Y157409D01*
X50103Y157464D01*
X49959Y157515D01*
X49814Y157563D01*
X49667Y157606D01*
X49520Y157646D01*
X49371Y157683D01*
X49221Y157715D01*
X49071Y157744D01*
X48920Y157769D01*
X48769Y157790D01*
X48617Y157807D01*
X48464Y157821D01*
X48312Y157830D01*
X48159Y157836D01*
X48006Y157838D01*
X50666Y157224D02*
X50736Y157198D01*
X50806Y157168D01*
X50873Y157135D01*
X50939Y157099D01*
X51003Y157060D01*
X51065Y157017D01*
X51124Y156971D01*
X51182Y156923D01*
X51236Y156872D01*
X51289Y156818D01*
X51338Y156761D01*
X51385Y156702D01*
X51428Y156641D01*
X51469Y156578D01*
X51506Y156513D01*
X51541Y156446D01*
X51571Y156377D01*
X51599Y156307D01*
X51622Y156236D01*
X51643Y156164D01*
X51659Y156091D01*
X51672Y156017D01*
X51682Y155942D01*
X51687Y155867D01*
X51689Y155792D01*
X50052Y154155D02*
X45960Y157429D01*
X51689Y125617D02*
X51689Y123571D01*
X51689Y125617D02*
X51687Y125706D01*
X51681Y125795D01*
X51671Y125884D01*
X51658Y125972D01*
X51641Y126060D01*
X51619Y126147D01*
X51594Y126232D01*
X51566Y126317D01*
X51533Y126400D01*
X51497Y126482D01*
X51458Y126562D01*
X51415Y126640D01*
X51369Y126716D01*
X51319Y126791D01*
X51266Y126863D01*
X51210Y126932D01*
X51151Y126999D01*
X51090Y127064D01*
X51025Y127125D01*
X50958Y127184D01*
X50889Y127240D01*
X50817Y127293D01*
X50742Y127343D01*
X50666Y127389D01*
X50588Y127432D01*
X50508Y127471D01*
X50426Y127507D01*
X50343Y127540D01*
X50258Y127568D01*
X50173Y127593D01*
X50086Y127615D01*
X49998Y127632D01*
X49910Y127645D01*
X49821Y127655D01*
X49732Y127661D01*
X49643Y127663D01*
X49554Y127661D01*
X49465Y127655D01*
X49376Y127645D01*
X49288Y127632D01*
X49200Y127615D01*
X49113Y127593D01*
X49028Y127568D01*
X48943Y127540D01*
X48860Y127507D01*
X48778Y127471D01*
X48698Y127432D01*
X48620Y127389D01*
X48544Y127343D01*
X48469Y127293D01*
X48397Y127240D01*
X48328Y127184D01*
X48261Y127125D01*
X48196Y127064D01*
X48135Y126999D01*
X48076Y126932D01*
X48020Y126863D01*
X47967Y126791D01*
X47917Y126716D01*
X47871Y126640D01*
X47828Y126562D01*
X47789Y126482D01*
X47753Y126400D01*
X47720Y126317D01*
X47692Y126232D01*
X47667Y126147D01*
X47645Y126060D01*
X47628Y125972D01*
X47615Y125884D01*
X47605Y125795D01*
X47599Y125706D01*
X47597Y125617D01*
X44323Y126026D02*
X44323Y123571D01*
X44323Y126026D02*
X44325Y126105D01*
X44331Y126184D01*
X44340Y126263D01*
X44353Y126341D01*
X44371Y126418D01*
X44391Y126494D01*
X44416Y126569D01*
X44444Y126643D01*
X44475Y126716D01*
X44511Y126787D01*
X44549Y126856D01*
X44591Y126923D01*
X44636Y126988D01*
X44684Y127051D01*
X44735Y127112D01*
X44789Y127169D01*
X44845Y127225D01*
X44904Y127277D01*
X44966Y127327D01*
X45030Y127373D01*
X45096Y127417D01*
X45164Y127457D01*
X45234Y127493D01*
X45306Y127527D01*
X45380Y127557D01*
X45454Y127583D01*
X45530Y127606D01*
X45607Y127624D01*
X45684Y127640D01*
X45763Y127651D01*
X45841Y127659D01*
X45920Y127663D01*
X46000Y127663D01*
X46079Y127659D01*
X46157Y127651D01*
X46236Y127640D01*
X46313Y127624D01*
X46390Y127606D01*
X46466Y127583D01*
X46540Y127557D01*
X46614Y127527D01*
X46686Y127493D01*
X46756Y127457D01*
X46824Y127417D01*
X46890Y127373D01*
X46954Y127327D01*
X47016Y127277D01*
X47075Y127225D01*
X47131Y127169D01*
X47185Y127112D01*
X47236Y127051D01*
X47284Y126988D01*
X47329Y126923D01*
X47371Y126856D01*
X47409Y126787D01*
X47445Y126716D01*
X47476Y126643D01*
X47504Y126569D01*
X47529Y126494D01*
X47549Y126418D01*
X47567Y126341D01*
X47580Y126263D01*
X47589Y126184D01*
X47595Y126105D01*
X47597Y126026D01*
X47597Y124389D01*
X39378Y93599D02*
X37742Y87870D01*
X41834Y87870D01*
X40606Y89507D02*
X40606Y86233D01*
X45057Y90325D02*
X47512Y90325D01*
X47590Y90323D01*
X47668Y90318D01*
X47745Y90308D01*
X47822Y90295D01*
X47898Y90279D01*
X47973Y90259D01*
X48047Y90235D01*
X48120Y90208D01*
X48192Y90177D01*
X48262Y90143D01*
X48331Y90106D01*
X48397Y90065D01*
X48462Y90021D01*
X48524Y89975D01*
X48584Y89925D01*
X48642Y89873D01*
X48697Y89818D01*
X48749Y89760D01*
X48799Y89700D01*
X48845Y89638D01*
X48889Y89573D01*
X48930Y89507D01*
X48967Y89438D01*
X49001Y89368D01*
X49032Y89296D01*
X49059Y89223D01*
X49083Y89149D01*
X49103Y89074D01*
X49119Y88998D01*
X49132Y88921D01*
X49142Y88844D01*
X49147Y88766D01*
X49149Y88688D01*
X49149Y88279D01*
X49147Y88190D01*
X49141Y88101D01*
X49131Y88012D01*
X49118Y87924D01*
X49101Y87836D01*
X49079Y87749D01*
X49054Y87664D01*
X49026Y87579D01*
X48993Y87496D01*
X48957Y87414D01*
X48918Y87334D01*
X48875Y87256D01*
X48829Y87180D01*
X48779Y87105D01*
X48726Y87033D01*
X48670Y86964D01*
X48611Y86897D01*
X48550Y86832D01*
X48485Y86771D01*
X48418Y86712D01*
X48349Y86656D01*
X48277Y86603D01*
X48202Y86553D01*
X48126Y86507D01*
X48048Y86464D01*
X47968Y86425D01*
X47886Y86389D01*
X47803Y86356D01*
X47718Y86328D01*
X47633Y86303D01*
X47546Y86281D01*
X47458Y86264D01*
X47370Y86251D01*
X47281Y86241D01*
X47192Y86235D01*
X47103Y86233D01*
X47014Y86235D01*
X46925Y86241D01*
X46836Y86251D01*
X46748Y86264D01*
X46660Y86281D01*
X46573Y86303D01*
X46488Y86328D01*
X46403Y86356D01*
X46320Y86389D01*
X46238Y86425D01*
X46158Y86464D01*
X46080Y86507D01*
X46004Y86553D01*
X45929Y86603D01*
X45857Y86656D01*
X45788Y86712D01*
X45721Y86771D01*
X45656Y86832D01*
X45595Y86897D01*
X45536Y86964D01*
X45480Y87033D01*
X45427Y87105D01*
X45377Y87180D01*
X45331Y87256D01*
X45288Y87334D01*
X45249Y87414D01*
X45213Y87496D01*
X45180Y87579D01*
X45152Y87664D01*
X45127Y87749D01*
X45105Y87836D01*
X45088Y87924D01*
X45075Y88012D01*
X45065Y88101D01*
X45059Y88190D01*
X45057Y88279D01*
X45057Y90325D01*
X45059Y90439D01*
X45065Y90553D01*
X45075Y90667D01*
X45089Y90781D01*
X45107Y90894D01*
X45129Y91006D01*
X45154Y91117D01*
X45184Y91227D01*
X45217Y91337D01*
X45254Y91445D01*
X45295Y91551D01*
X45340Y91657D01*
X45388Y91760D01*
X45440Y91862D01*
X45496Y91962D01*
X45554Y92060D01*
X45617Y92156D01*
X45682Y92249D01*
X45751Y92341D01*
X45823Y92429D01*
X45898Y92516D01*
X45976Y92599D01*
X46057Y92680D01*
X46140Y92758D01*
X46227Y92833D01*
X46315Y92905D01*
X46407Y92974D01*
X46500Y93039D01*
X46596Y93101D01*
X46694Y93160D01*
X46794Y93216D01*
X46896Y93268D01*
X46999Y93316D01*
X47105Y93361D01*
X47211Y93402D01*
X47319Y93439D01*
X47429Y93472D01*
X47539Y93502D01*
X47650Y93527D01*
X47762Y93549D01*
X47875Y93567D01*
X47989Y93581D01*
X48103Y93591D01*
X48217Y93597D01*
X48331Y93599D01*
X44069Y61567D02*
X41614Y61567D01*
X41536Y61569D01*
X41458Y61574D01*
X41381Y61584D01*
X41304Y61597D01*
X41228Y61613D01*
X41153Y61633D01*
X41079Y61657D01*
X41006Y61684D01*
X40934Y61715D01*
X40864Y61749D01*
X40795Y61786D01*
X40729Y61827D01*
X40664Y61871D01*
X40602Y61917D01*
X40542Y61967D01*
X40484Y62019D01*
X40429Y62074D01*
X40377Y62132D01*
X40327Y62192D01*
X40281Y62254D01*
X40237Y62319D01*
X40196Y62386D01*
X40159Y62454D01*
X40125Y62524D01*
X40094Y62596D01*
X40067Y62669D01*
X40043Y62743D01*
X40023Y62818D01*
X40007Y62894D01*
X39994Y62971D01*
X39984Y63048D01*
X39979Y63126D01*
X39977Y63204D01*
X39977Y63613D01*
X39979Y63702D01*
X39985Y63791D01*
X39995Y63880D01*
X40008Y63968D01*
X40025Y64056D01*
X40047Y64143D01*
X40072Y64228D01*
X40100Y64313D01*
X40133Y64396D01*
X40169Y64478D01*
X40208Y64558D01*
X40251Y64636D01*
X40297Y64712D01*
X40347Y64787D01*
X40400Y64859D01*
X40456Y64928D01*
X40515Y64995D01*
X40576Y65060D01*
X40641Y65121D01*
X40708Y65180D01*
X40777Y65236D01*
X40849Y65289D01*
X40924Y65339D01*
X41000Y65385D01*
X41078Y65428D01*
X41158Y65467D01*
X41240Y65503D01*
X41323Y65536D01*
X41408Y65564D01*
X41493Y65589D01*
X41580Y65611D01*
X41668Y65628D01*
X41756Y65641D01*
X41845Y65651D01*
X41934Y65657D01*
X42023Y65659D01*
X42112Y65657D01*
X42201Y65651D01*
X42290Y65641D01*
X42378Y65628D01*
X42466Y65611D01*
X42553Y65589D01*
X42638Y65564D01*
X42723Y65536D01*
X42806Y65503D01*
X42888Y65467D01*
X42968Y65428D01*
X43046Y65385D01*
X43122Y65339D01*
X43197Y65289D01*
X43269Y65236D01*
X43338Y65180D01*
X43405Y65121D01*
X43470Y65060D01*
X43531Y64995D01*
X43590Y64928D01*
X43646Y64859D01*
X43699Y64787D01*
X43749Y64712D01*
X43795Y64636D01*
X43838Y64558D01*
X43877Y64478D01*
X43913Y64396D01*
X43946Y64313D01*
X43974Y64228D01*
X43999Y64143D01*
X44021Y64056D01*
X44038Y63968D01*
X44051Y63880D01*
X44061Y63791D01*
X44067Y63702D01*
X44069Y63613D01*
X44069Y61567D01*
X44067Y61455D01*
X44061Y61344D01*
X44052Y61232D01*
X44039Y61121D01*
X44021Y61011D01*
X44001Y60901D01*
X43976Y60792D01*
X43948Y60684D01*
X43916Y60577D01*
X43880Y60471D01*
X43841Y60366D01*
X43798Y60263D01*
X43752Y60161D01*
X43702Y60061D01*
X43649Y59962D01*
X43592Y59866D01*
X43533Y59771D01*
X43470Y59679D01*
X43404Y59589D01*
X43335Y59501D01*
X43263Y59415D01*
X43188Y59332D01*
X43110Y59252D01*
X43030Y59174D01*
X42947Y59099D01*
X42861Y59027D01*
X42773Y58958D01*
X42683Y58892D01*
X42591Y58829D01*
X42496Y58770D01*
X42400Y58713D01*
X42301Y58660D01*
X42201Y58610D01*
X42099Y58564D01*
X41996Y58521D01*
X41891Y58482D01*
X41785Y58446D01*
X41678Y58414D01*
X41570Y58386D01*
X41461Y58361D01*
X41351Y58341D01*
X41241Y58323D01*
X41130Y58310D01*
X41018Y58301D01*
X40907Y58295D01*
X40795Y58293D01*
X281051Y448070D02*
X283097Y449707D01*
X283097Y442341D01*
X281051Y442341D02*
X285143Y442341D01*
X283302Y421768D02*
X283387Y421766D01*
X283472Y421760D01*
X283556Y421750D01*
X283640Y421737D01*
X283724Y421719D01*
X283806Y421698D01*
X283887Y421673D01*
X283967Y421644D01*
X284046Y421611D01*
X284123Y421575D01*
X284198Y421535D01*
X284272Y421492D01*
X284343Y421446D01*
X284412Y421396D01*
X284479Y421343D01*
X284543Y421287D01*
X284604Y421228D01*
X284663Y421167D01*
X284719Y421103D01*
X284772Y421036D01*
X284822Y420967D01*
X284868Y420896D01*
X284911Y420822D01*
X284951Y420747D01*
X284987Y420670D01*
X285020Y420591D01*
X285049Y420511D01*
X285074Y420430D01*
X285095Y420348D01*
X285113Y420264D01*
X285126Y420180D01*
X285136Y420096D01*
X285142Y420011D01*
X285144Y419926D01*
X283302Y421767D02*
X283206Y421765D01*
X283110Y421759D01*
X283015Y421749D01*
X282920Y421736D01*
X282825Y421718D01*
X282732Y421697D01*
X282639Y421672D01*
X282548Y421643D01*
X282457Y421611D01*
X282368Y421575D01*
X282281Y421535D01*
X282195Y421492D01*
X282111Y421446D01*
X282029Y421396D01*
X281949Y421342D01*
X281872Y421286D01*
X281797Y421226D01*
X281724Y421164D01*
X281654Y421098D01*
X281586Y421030D01*
X281521Y420959D01*
X281460Y420886D01*
X281401Y420810D01*
X281345Y420731D01*
X281293Y420651D01*
X281244Y420568D01*
X281198Y420484D01*
X281156Y420398D01*
X281118Y420310D01*
X281083Y420221D01*
X281051Y420130D01*
X284529Y418494D02*
X284589Y418553D01*
X284646Y418615D01*
X284701Y418679D01*
X284752Y418746D01*
X284801Y418815D01*
X284847Y418885D01*
X284890Y418958D01*
X284930Y419032D01*
X284966Y419108D01*
X284999Y419186D01*
X285029Y419265D01*
X285056Y419345D01*
X285079Y419426D01*
X285098Y419508D01*
X285114Y419590D01*
X285127Y419674D01*
X285136Y419758D01*
X285141Y419842D01*
X285143Y419926D01*
X284529Y418493D02*
X281051Y414401D01*
X285143Y414401D01*
X279287Y397637D02*
X279287Y390271D01*
X277241Y397637D02*
X281333Y397637D01*
X288570Y397637D02*
X283659Y390271D01*
X288570Y390271D02*
X283659Y397637D01*
X275971Y372237D02*
X275971Y364871D01*
X275971Y372237D02*
X278017Y372237D01*
X278106Y372235D01*
X278195Y372229D01*
X278284Y372219D01*
X278372Y372206D01*
X278460Y372189D01*
X278547Y372167D01*
X278632Y372142D01*
X278717Y372114D01*
X278800Y372081D01*
X278882Y372045D01*
X278962Y372006D01*
X279040Y371963D01*
X279116Y371917D01*
X279191Y371867D01*
X279263Y371814D01*
X279332Y371758D01*
X279399Y371699D01*
X279464Y371638D01*
X279525Y371573D01*
X279584Y371506D01*
X279640Y371437D01*
X279693Y371365D01*
X279743Y371290D01*
X279789Y371214D01*
X279832Y371136D01*
X279871Y371056D01*
X279907Y370974D01*
X279940Y370891D01*
X279968Y370806D01*
X279993Y370721D01*
X280015Y370634D01*
X280032Y370546D01*
X280045Y370458D01*
X280055Y370369D01*
X280061Y370280D01*
X280063Y370191D01*
X280061Y370102D01*
X280055Y370013D01*
X280045Y369924D01*
X280032Y369836D01*
X280015Y369748D01*
X279993Y369661D01*
X279968Y369576D01*
X279940Y369491D01*
X279907Y369408D01*
X279871Y369326D01*
X279832Y369246D01*
X279789Y369168D01*
X279743Y369092D01*
X279693Y369017D01*
X279640Y368945D01*
X279584Y368876D01*
X279525Y368809D01*
X279464Y368744D01*
X279399Y368683D01*
X279332Y368624D01*
X279263Y368568D01*
X279191Y368515D01*
X279116Y368465D01*
X279040Y368419D01*
X278962Y368376D01*
X278882Y368337D01*
X278800Y368301D01*
X278717Y368268D01*
X278632Y368240D01*
X278547Y368215D01*
X278460Y368193D01*
X278372Y368176D01*
X278284Y368163D01*
X278195Y368153D01*
X278106Y368147D01*
X278017Y368145D01*
X275971Y368145D01*
X278426Y368145D02*
X280063Y364871D01*
X282826Y364871D02*
X287736Y372237D01*
X282826Y372237D02*
X287736Y364871D01*
X280148Y346837D02*
X278511Y341108D01*
X282603Y341108D01*
X281376Y342745D02*
X281376Y339471D01*
X288077Y346838D02*
X288162Y346836D01*
X288247Y346830D01*
X288331Y346820D01*
X288415Y346807D01*
X288499Y346789D01*
X288581Y346768D01*
X288662Y346743D01*
X288742Y346714D01*
X288821Y346681D01*
X288898Y346645D01*
X288973Y346605D01*
X289047Y346562D01*
X289118Y346516D01*
X289187Y346466D01*
X289254Y346413D01*
X289318Y346357D01*
X289379Y346298D01*
X289438Y346237D01*
X289494Y346173D01*
X289547Y346106D01*
X289597Y346037D01*
X289643Y345966D01*
X289686Y345892D01*
X289726Y345817D01*
X289762Y345740D01*
X289795Y345661D01*
X289824Y345581D01*
X289849Y345500D01*
X289870Y345418D01*
X289888Y345334D01*
X289901Y345250D01*
X289911Y345166D01*
X289917Y345081D01*
X289919Y344996D01*
X288077Y346837D02*
X287981Y346835D01*
X287885Y346829D01*
X287790Y346819D01*
X287695Y346806D01*
X287600Y346788D01*
X287507Y346767D01*
X287414Y346742D01*
X287323Y346713D01*
X287232Y346681D01*
X287143Y346645D01*
X287056Y346605D01*
X286970Y346562D01*
X286886Y346516D01*
X286804Y346466D01*
X286724Y346412D01*
X286647Y346356D01*
X286572Y346296D01*
X286499Y346234D01*
X286429Y346168D01*
X286361Y346100D01*
X286296Y346029D01*
X286235Y345956D01*
X286176Y345880D01*
X286120Y345801D01*
X286068Y345721D01*
X286019Y345638D01*
X285973Y345554D01*
X285931Y345468D01*
X285893Y345380D01*
X285858Y345291D01*
X285826Y345200D01*
X289305Y343564D02*
X289365Y343623D01*
X289422Y343685D01*
X289477Y343749D01*
X289528Y343816D01*
X289577Y343885D01*
X289623Y343955D01*
X289666Y344028D01*
X289706Y344102D01*
X289742Y344178D01*
X289775Y344256D01*
X289805Y344335D01*
X289832Y344415D01*
X289855Y344496D01*
X289874Y344578D01*
X289890Y344660D01*
X289903Y344744D01*
X289912Y344828D01*
X289917Y344912D01*
X289919Y344996D01*
X289305Y343563D02*
X285826Y339471D01*
X289918Y339471D01*
X281418Y321437D02*
X279781Y315708D01*
X283873Y315708D01*
X282646Y317345D02*
X282646Y314071D01*
X287096Y319800D02*
X289142Y321437D01*
X289142Y314071D01*
X287096Y314071D02*
X291188Y314071D01*
X280148Y296037D02*
X278511Y290308D01*
X282603Y290308D01*
X281376Y291945D02*
X281376Y288671D01*
X285827Y292354D02*
X285829Y292507D01*
X285835Y292660D01*
X285844Y292812D01*
X285858Y292965D01*
X285875Y293117D01*
X285896Y293268D01*
X285921Y293419D01*
X285950Y293569D01*
X285982Y293719D01*
X286019Y293867D01*
X286059Y294015D01*
X286102Y294162D01*
X286150Y294307D01*
X286201Y294451D01*
X286255Y294594D01*
X286314Y294736D01*
X286375Y294875D01*
X286441Y295014D01*
X286440Y295014D02*
X286466Y295084D01*
X286496Y295154D01*
X286529Y295221D01*
X286565Y295287D01*
X286604Y295351D01*
X286647Y295413D01*
X286693Y295472D01*
X286741Y295530D01*
X286792Y295584D01*
X286846Y295637D01*
X286903Y295686D01*
X286962Y295733D01*
X287023Y295776D01*
X287086Y295817D01*
X287151Y295854D01*
X287218Y295889D01*
X287287Y295919D01*
X287357Y295947D01*
X287428Y295970D01*
X287500Y295991D01*
X287573Y296007D01*
X287647Y296020D01*
X287722Y296030D01*
X287797Y296035D01*
X287872Y296037D01*
X287947Y296035D01*
X288022Y296030D01*
X288097Y296020D01*
X288171Y296007D01*
X288244Y295991D01*
X288316Y295970D01*
X288387Y295947D01*
X288457Y295919D01*
X288526Y295889D01*
X288593Y295854D01*
X288658Y295817D01*
X288721Y295776D01*
X288782Y295733D01*
X288841Y295686D01*
X288898Y295637D01*
X288952Y295584D01*
X289003Y295530D01*
X289052Y295472D01*
X289097Y295413D01*
X289140Y295351D01*
X289179Y295287D01*
X289216Y295221D01*
X289248Y295153D01*
X289278Y295084D01*
X289304Y295014D01*
X289369Y294876D01*
X289431Y294736D01*
X289489Y294594D01*
X289544Y294451D01*
X289595Y294307D01*
X289643Y294162D01*
X289686Y294015D01*
X289726Y293868D01*
X289763Y293719D01*
X289795Y293569D01*
X289824Y293419D01*
X289849Y293268D01*
X289870Y293117D01*
X289887Y292965D01*
X289901Y292812D01*
X289910Y292660D01*
X289916Y292507D01*
X289918Y292354D01*
X285826Y292354D02*
X285828Y292201D01*
X285834Y292048D01*
X285843Y291895D01*
X285857Y291743D01*
X285874Y291591D01*
X285895Y291440D01*
X285920Y291289D01*
X285949Y291138D01*
X285981Y290989D01*
X286018Y290840D01*
X286058Y290693D01*
X286101Y290546D01*
X286149Y290401D01*
X286200Y290256D01*
X286255Y290114D01*
X286313Y289972D01*
X286375Y289832D01*
X286440Y289694D01*
X286466Y289623D01*
X286496Y289554D01*
X286529Y289487D01*
X286565Y289421D01*
X286604Y289357D01*
X286647Y289295D01*
X286693Y289236D01*
X286741Y289178D01*
X286792Y289124D01*
X286846Y289071D01*
X286903Y289022D01*
X286962Y288975D01*
X287023Y288932D01*
X287086Y288891D01*
X287151Y288854D01*
X287218Y288819D01*
X287287Y288789D01*
X287357Y288761D01*
X287428Y288738D01*
X287500Y288717D01*
X287573Y288701D01*
X287647Y288688D01*
X287722Y288678D01*
X287797Y288673D01*
X287872Y288671D01*
X289304Y289694D02*
X289369Y289832D01*
X289431Y289972D01*
X289489Y290114D01*
X289544Y290257D01*
X289595Y290401D01*
X289643Y290546D01*
X289686Y290693D01*
X289726Y290841D01*
X289763Y290989D01*
X289795Y291139D01*
X289824Y291289D01*
X289849Y291440D01*
X289870Y291591D01*
X289887Y291743D01*
X289901Y291896D01*
X289910Y292048D01*
X289916Y292201D01*
X289918Y292354D01*
X289304Y289694D02*
X289278Y289624D01*
X289248Y289554D01*
X289216Y289487D01*
X289179Y289421D01*
X289140Y289357D01*
X289097Y289295D01*
X289051Y289236D01*
X289003Y289178D01*
X288952Y289124D01*
X288898Y289071D01*
X288841Y289022D01*
X288782Y288975D01*
X288721Y288932D01*
X288658Y288891D01*
X288593Y288854D01*
X288526Y288819D01*
X288457Y288789D01*
X288387Y288761D01*
X288316Y288738D01*
X288244Y288717D01*
X288171Y288701D01*
X288097Y288688D01*
X288022Y288678D01*
X287947Y288673D01*
X287872Y288671D01*
X286235Y290308D02*
X289509Y294400D01*
X281827Y263271D02*
X279781Y263271D01*
X281827Y263271D02*
X281916Y263273D01*
X282005Y263279D01*
X282094Y263289D01*
X282182Y263302D01*
X282270Y263319D01*
X282357Y263341D01*
X282442Y263366D01*
X282527Y263394D01*
X282610Y263427D01*
X282692Y263463D01*
X282772Y263502D01*
X282850Y263545D01*
X282926Y263591D01*
X283001Y263641D01*
X283073Y263694D01*
X283142Y263750D01*
X283209Y263809D01*
X283274Y263870D01*
X283335Y263935D01*
X283394Y264002D01*
X283450Y264071D01*
X283503Y264143D01*
X283553Y264218D01*
X283599Y264294D01*
X283642Y264372D01*
X283681Y264452D01*
X283717Y264534D01*
X283750Y264617D01*
X283778Y264702D01*
X283803Y264787D01*
X283825Y264874D01*
X283842Y264962D01*
X283855Y265050D01*
X283865Y265139D01*
X283871Y265228D01*
X283873Y265317D01*
X283871Y265406D01*
X283865Y265495D01*
X283855Y265584D01*
X283842Y265672D01*
X283825Y265760D01*
X283803Y265847D01*
X283778Y265932D01*
X283750Y266017D01*
X283717Y266100D01*
X283681Y266182D01*
X283642Y266262D01*
X283599Y266340D01*
X283553Y266416D01*
X283503Y266491D01*
X283450Y266563D01*
X283394Y266632D01*
X283335Y266699D01*
X283274Y266764D01*
X283209Y266825D01*
X283142Y266884D01*
X283073Y266940D01*
X283001Y266993D01*
X282926Y267043D01*
X282850Y267089D01*
X282772Y267132D01*
X282692Y267171D01*
X282610Y267207D01*
X282527Y267240D01*
X282442Y267268D01*
X282357Y267293D01*
X282270Y267315D01*
X282182Y267332D01*
X282094Y267345D01*
X282005Y267355D01*
X281916Y267361D01*
X281827Y267363D01*
X282236Y270637D02*
X279781Y270637D01*
X282236Y270637D02*
X282315Y270635D01*
X282394Y270629D01*
X282473Y270620D01*
X282551Y270607D01*
X282628Y270589D01*
X282704Y270569D01*
X282779Y270544D01*
X282853Y270516D01*
X282926Y270485D01*
X282997Y270449D01*
X283066Y270411D01*
X283133Y270369D01*
X283198Y270324D01*
X283261Y270276D01*
X283322Y270225D01*
X283379Y270171D01*
X283435Y270115D01*
X283487Y270056D01*
X283537Y269994D01*
X283583Y269930D01*
X283627Y269864D01*
X283667Y269796D01*
X283703Y269726D01*
X283737Y269654D01*
X283767Y269580D01*
X283793Y269506D01*
X283816Y269430D01*
X283834Y269353D01*
X283850Y269276D01*
X283861Y269197D01*
X283869Y269119D01*
X283873Y269040D01*
X283873Y268960D01*
X283869Y268881D01*
X283861Y268803D01*
X283850Y268724D01*
X283834Y268647D01*
X283816Y268570D01*
X283793Y268494D01*
X283767Y268420D01*
X283737Y268346D01*
X283703Y268274D01*
X283667Y268204D01*
X283627Y268136D01*
X283583Y268070D01*
X283537Y268006D01*
X283487Y267944D01*
X283435Y267885D01*
X283379Y267829D01*
X283322Y267775D01*
X283261Y267724D01*
X283198Y267676D01*
X283133Y267631D01*
X283066Y267589D01*
X282997Y267551D01*
X282926Y267515D01*
X282853Y267484D01*
X282779Y267456D01*
X282704Y267431D01*
X282628Y267411D01*
X282551Y267393D01*
X282473Y267380D01*
X282394Y267371D01*
X282315Y267365D01*
X282236Y267363D01*
X280599Y267363D01*
X288733Y266545D02*
X291188Y266545D01*
X288733Y266545D02*
X288655Y266547D01*
X288577Y266552D01*
X288500Y266562D01*
X288423Y266575D01*
X288347Y266591D01*
X288272Y266611D01*
X288198Y266635D01*
X288125Y266662D01*
X288053Y266693D01*
X287983Y266727D01*
X287914Y266764D01*
X287848Y266805D01*
X287783Y266849D01*
X287721Y266895D01*
X287661Y266945D01*
X287603Y266997D01*
X287548Y267052D01*
X287496Y267110D01*
X287446Y267170D01*
X287400Y267232D01*
X287356Y267297D01*
X287315Y267364D01*
X287278Y267432D01*
X287244Y267502D01*
X287213Y267574D01*
X287186Y267647D01*
X287162Y267721D01*
X287142Y267796D01*
X287126Y267872D01*
X287113Y267949D01*
X287103Y268026D01*
X287098Y268104D01*
X287096Y268182D01*
X287096Y268591D01*
X287098Y268680D01*
X287104Y268769D01*
X287114Y268858D01*
X287127Y268946D01*
X287144Y269034D01*
X287166Y269121D01*
X287191Y269206D01*
X287219Y269291D01*
X287252Y269374D01*
X287288Y269456D01*
X287327Y269536D01*
X287370Y269614D01*
X287416Y269690D01*
X287466Y269765D01*
X287519Y269837D01*
X287575Y269906D01*
X287634Y269973D01*
X287695Y270038D01*
X287760Y270099D01*
X287827Y270158D01*
X287896Y270214D01*
X287968Y270267D01*
X288043Y270317D01*
X288119Y270363D01*
X288197Y270406D01*
X288277Y270445D01*
X288359Y270481D01*
X288442Y270514D01*
X288527Y270542D01*
X288612Y270567D01*
X288699Y270589D01*
X288787Y270606D01*
X288875Y270619D01*
X288964Y270629D01*
X289053Y270635D01*
X289142Y270637D01*
X289231Y270635D01*
X289320Y270629D01*
X289409Y270619D01*
X289497Y270606D01*
X289585Y270589D01*
X289672Y270567D01*
X289757Y270542D01*
X289842Y270514D01*
X289925Y270481D01*
X290007Y270445D01*
X290087Y270406D01*
X290165Y270363D01*
X290241Y270317D01*
X290316Y270267D01*
X290388Y270214D01*
X290457Y270158D01*
X290524Y270099D01*
X290589Y270038D01*
X290650Y269973D01*
X290709Y269906D01*
X290765Y269837D01*
X290818Y269765D01*
X290868Y269690D01*
X290914Y269614D01*
X290957Y269536D01*
X290996Y269456D01*
X291032Y269374D01*
X291065Y269291D01*
X291093Y269206D01*
X291118Y269121D01*
X291140Y269034D01*
X291157Y268946D01*
X291170Y268858D01*
X291180Y268769D01*
X291186Y268680D01*
X291188Y268591D01*
X291188Y266545D01*
X291189Y266545D02*
X291187Y266433D01*
X291181Y266322D01*
X291172Y266210D01*
X291159Y266099D01*
X291141Y265989D01*
X291121Y265879D01*
X291096Y265770D01*
X291068Y265662D01*
X291036Y265555D01*
X291000Y265449D01*
X290961Y265344D01*
X290918Y265241D01*
X290872Y265139D01*
X290822Y265039D01*
X290769Y264940D01*
X290712Y264844D01*
X290653Y264749D01*
X290590Y264657D01*
X290524Y264567D01*
X290455Y264479D01*
X290383Y264393D01*
X290308Y264310D01*
X290230Y264230D01*
X290150Y264152D01*
X290067Y264077D01*
X289981Y264005D01*
X289893Y263936D01*
X289803Y263870D01*
X289711Y263807D01*
X289616Y263748D01*
X289520Y263691D01*
X289421Y263638D01*
X289321Y263588D01*
X289219Y263542D01*
X289116Y263499D01*
X289011Y263460D01*
X288905Y263424D01*
X288798Y263392D01*
X288690Y263364D01*
X288581Y263339D01*
X288471Y263319D01*
X288361Y263301D01*
X288250Y263288D01*
X288138Y263279D01*
X288027Y263273D01*
X287915Y263271D01*
X280557Y237871D02*
X278511Y237871D01*
X280557Y237871D02*
X280646Y237873D01*
X280735Y237879D01*
X280824Y237889D01*
X280912Y237902D01*
X281000Y237919D01*
X281087Y237941D01*
X281172Y237966D01*
X281257Y237994D01*
X281340Y238027D01*
X281422Y238063D01*
X281502Y238102D01*
X281580Y238145D01*
X281656Y238191D01*
X281731Y238241D01*
X281803Y238294D01*
X281872Y238350D01*
X281939Y238409D01*
X282004Y238470D01*
X282065Y238535D01*
X282124Y238602D01*
X282180Y238671D01*
X282233Y238743D01*
X282283Y238818D01*
X282329Y238894D01*
X282372Y238972D01*
X282411Y239052D01*
X282447Y239134D01*
X282480Y239217D01*
X282508Y239302D01*
X282533Y239387D01*
X282555Y239474D01*
X282572Y239562D01*
X282585Y239650D01*
X282595Y239739D01*
X282601Y239828D01*
X282603Y239917D01*
X282601Y240006D01*
X282595Y240095D01*
X282585Y240184D01*
X282572Y240272D01*
X282555Y240360D01*
X282533Y240447D01*
X282508Y240532D01*
X282480Y240617D01*
X282447Y240700D01*
X282411Y240782D01*
X282372Y240862D01*
X282329Y240940D01*
X282283Y241016D01*
X282233Y241091D01*
X282180Y241163D01*
X282124Y241232D01*
X282065Y241299D01*
X282004Y241364D01*
X281939Y241425D01*
X281872Y241484D01*
X281803Y241540D01*
X281731Y241593D01*
X281656Y241643D01*
X281580Y241689D01*
X281502Y241732D01*
X281422Y241771D01*
X281340Y241807D01*
X281257Y241840D01*
X281172Y241868D01*
X281087Y241893D01*
X281000Y241915D01*
X280912Y241932D01*
X280824Y241945D01*
X280735Y241955D01*
X280646Y241961D01*
X280557Y241963D01*
X280966Y245237D02*
X278511Y245237D01*
X280966Y245237D02*
X281045Y245235D01*
X281124Y245229D01*
X281203Y245220D01*
X281281Y245207D01*
X281358Y245189D01*
X281434Y245169D01*
X281509Y245144D01*
X281583Y245116D01*
X281656Y245085D01*
X281727Y245049D01*
X281796Y245011D01*
X281863Y244969D01*
X281928Y244924D01*
X281991Y244876D01*
X282052Y244825D01*
X282109Y244771D01*
X282165Y244715D01*
X282217Y244656D01*
X282267Y244594D01*
X282313Y244530D01*
X282357Y244464D01*
X282397Y244396D01*
X282433Y244326D01*
X282467Y244254D01*
X282497Y244180D01*
X282523Y244106D01*
X282546Y244030D01*
X282564Y243953D01*
X282580Y243876D01*
X282591Y243797D01*
X282599Y243719D01*
X282603Y243640D01*
X282603Y243560D01*
X282599Y243481D01*
X282591Y243403D01*
X282580Y243324D01*
X282564Y243247D01*
X282546Y243170D01*
X282523Y243094D01*
X282497Y243020D01*
X282467Y242946D01*
X282433Y242874D01*
X282397Y242804D01*
X282357Y242736D01*
X282313Y242670D01*
X282267Y242606D01*
X282217Y242544D01*
X282165Y242485D01*
X282109Y242429D01*
X282052Y242375D01*
X281991Y242324D01*
X281928Y242276D01*
X281863Y242231D01*
X281796Y242189D01*
X281727Y242151D01*
X281656Y242115D01*
X281583Y242084D01*
X281509Y242056D01*
X281434Y242031D01*
X281358Y242011D01*
X281281Y241993D01*
X281203Y241980D01*
X281124Y241971D01*
X281045Y241965D01*
X280966Y241963D01*
X279329Y241963D01*
X285826Y239917D02*
X285828Y240006D01*
X285834Y240095D01*
X285844Y240184D01*
X285857Y240272D01*
X285874Y240360D01*
X285896Y240447D01*
X285921Y240532D01*
X285949Y240617D01*
X285982Y240700D01*
X286018Y240782D01*
X286057Y240862D01*
X286100Y240940D01*
X286146Y241016D01*
X286196Y241091D01*
X286249Y241163D01*
X286305Y241232D01*
X286364Y241299D01*
X286425Y241364D01*
X286490Y241425D01*
X286557Y241484D01*
X286626Y241540D01*
X286698Y241593D01*
X286773Y241643D01*
X286849Y241689D01*
X286927Y241732D01*
X287007Y241771D01*
X287089Y241807D01*
X287172Y241840D01*
X287257Y241868D01*
X287342Y241893D01*
X287429Y241915D01*
X287517Y241932D01*
X287605Y241945D01*
X287694Y241955D01*
X287783Y241961D01*
X287872Y241963D01*
X287961Y241961D01*
X288050Y241955D01*
X288139Y241945D01*
X288227Y241932D01*
X288315Y241915D01*
X288402Y241893D01*
X288487Y241868D01*
X288572Y241840D01*
X288655Y241807D01*
X288737Y241771D01*
X288817Y241732D01*
X288895Y241689D01*
X288971Y241643D01*
X289046Y241593D01*
X289118Y241540D01*
X289187Y241484D01*
X289254Y241425D01*
X289319Y241364D01*
X289380Y241299D01*
X289439Y241232D01*
X289495Y241163D01*
X289548Y241091D01*
X289598Y241016D01*
X289644Y240940D01*
X289687Y240862D01*
X289726Y240782D01*
X289762Y240700D01*
X289795Y240617D01*
X289823Y240532D01*
X289848Y240447D01*
X289870Y240360D01*
X289887Y240272D01*
X289900Y240184D01*
X289910Y240095D01*
X289916Y240006D01*
X289918Y239917D01*
X289916Y239828D01*
X289910Y239739D01*
X289900Y239650D01*
X289887Y239562D01*
X289870Y239474D01*
X289848Y239387D01*
X289823Y239302D01*
X289795Y239217D01*
X289762Y239134D01*
X289726Y239052D01*
X289687Y238972D01*
X289644Y238894D01*
X289598Y238818D01*
X289548Y238743D01*
X289495Y238671D01*
X289439Y238602D01*
X289380Y238535D01*
X289319Y238470D01*
X289254Y238409D01*
X289187Y238350D01*
X289118Y238294D01*
X289046Y238241D01*
X288971Y238191D01*
X288895Y238145D01*
X288817Y238102D01*
X288737Y238063D01*
X288655Y238027D01*
X288572Y237994D01*
X288487Y237966D01*
X288402Y237941D01*
X288315Y237919D01*
X288227Y237902D01*
X288139Y237889D01*
X288050Y237879D01*
X287961Y237873D01*
X287872Y237871D01*
X287783Y237873D01*
X287694Y237879D01*
X287605Y237889D01*
X287517Y237902D01*
X287429Y237919D01*
X287342Y237941D01*
X287257Y237966D01*
X287172Y237994D01*
X287089Y238027D01*
X287007Y238063D01*
X286927Y238102D01*
X286849Y238145D01*
X286773Y238191D01*
X286698Y238241D01*
X286626Y238294D01*
X286557Y238350D01*
X286490Y238409D01*
X286425Y238470D01*
X286364Y238535D01*
X286305Y238602D01*
X286249Y238671D01*
X286196Y238743D01*
X286146Y238818D01*
X286100Y238894D01*
X286057Y238972D01*
X286018Y239052D01*
X285982Y239134D01*
X285949Y239217D01*
X285921Y239302D01*
X285896Y239387D01*
X285874Y239474D01*
X285857Y239562D01*
X285844Y239650D01*
X285834Y239739D01*
X285828Y239828D01*
X285826Y239917D01*
X286235Y243600D02*
X286237Y243679D01*
X286243Y243758D01*
X286252Y243837D01*
X286265Y243915D01*
X286283Y243992D01*
X286303Y244068D01*
X286328Y244143D01*
X286356Y244217D01*
X286387Y244290D01*
X286423Y244361D01*
X286461Y244430D01*
X286503Y244497D01*
X286548Y244562D01*
X286596Y244625D01*
X286647Y244686D01*
X286701Y244743D01*
X286757Y244799D01*
X286816Y244851D01*
X286878Y244901D01*
X286942Y244947D01*
X287008Y244991D01*
X287076Y245031D01*
X287146Y245067D01*
X287218Y245101D01*
X287292Y245131D01*
X287366Y245157D01*
X287442Y245180D01*
X287519Y245198D01*
X287596Y245214D01*
X287675Y245225D01*
X287753Y245233D01*
X287832Y245237D01*
X287912Y245237D01*
X287991Y245233D01*
X288069Y245225D01*
X288148Y245214D01*
X288225Y245198D01*
X288302Y245180D01*
X288378Y245157D01*
X288452Y245131D01*
X288526Y245101D01*
X288598Y245067D01*
X288668Y245031D01*
X288736Y244991D01*
X288802Y244947D01*
X288866Y244901D01*
X288928Y244851D01*
X288987Y244799D01*
X289043Y244743D01*
X289097Y244686D01*
X289148Y244625D01*
X289196Y244562D01*
X289241Y244497D01*
X289283Y244430D01*
X289321Y244361D01*
X289357Y244290D01*
X289388Y244217D01*
X289416Y244143D01*
X289441Y244068D01*
X289461Y243992D01*
X289479Y243915D01*
X289492Y243837D01*
X289501Y243758D01*
X289507Y243679D01*
X289509Y243600D01*
X289507Y243521D01*
X289501Y243442D01*
X289492Y243363D01*
X289479Y243285D01*
X289461Y243208D01*
X289441Y243132D01*
X289416Y243057D01*
X289388Y242983D01*
X289357Y242910D01*
X289321Y242839D01*
X289283Y242770D01*
X289241Y242703D01*
X289196Y242638D01*
X289148Y242575D01*
X289097Y242514D01*
X289043Y242457D01*
X288987Y242401D01*
X288928Y242349D01*
X288866Y242299D01*
X288802Y242253D01*
X288736Y242209D01*
X288668Y242169D01*
X288598Y242133D01*
X288526Y242099D01*
X288452Y242069D01*
X288378Y242043D01*
X288302Y242020D01*
X288225Y242002D01*
X288148Y241986D01*
X288069Y241975D01*
X287991Y241967D01*
X287912Y241963D01*
X287832Y241963D01*
X287753Y241967D01*
X287675Y241975D01*
X287596Y241986D01*
X287519Y242002D01*
X287442Y242020D01*
X287366Y242043D01*
X287292Y242069D01*
X287218Y242099D01*
X287146Y242133D01*
X287076Y242169D01*
X287008Y242209D01*
X286942Y242253D01*
X286878Y242299D01*
X286816Y242349D01*
X286757Y242401D01*
X286701Y242457D01*
X286647Y242514D01*
X286596Y242575D01*
X286548Y242638D01*
X286503Y242703D01*
X286461Y242770D01*
X286423Y242839D01*
X286387Y242910D01*
X286356Y242983D01*
X286328Y243057D01*
X286303Y243132D01*
X286283Y243208D01*
X286265Y243285D01*
X286252Y243363D01*
X286243Y243442D01*
X286237Y243521D01*
X286235Y243600D01*
X281827Y211201D02*
X279781Y211201D01*
X281827Y211201D02*
X281916Y211203D01*
X282005Y211209D01*
X282094Y211219D01*
X282182Y211232D01*
X282270Y211249D01*
X282357Y211271D01*
X282442Y211296D01*
X282527Y211324D01*
X282610Y211357D01*
X282692Y211393D01*
X282772Y211432D01*
X282850Y211475D01*
X282926Y211521D01*
X283001Y211571D01*
X283073Y211624D01*
X283142Y211680D01*
X283209Y211739D01*
X283274Y211800D01*
X283335Y211865D01*
X283394Y211932D01*
X283450Y212001D01*
X283503Y212073D01*
X283553Y212148D01*
X283599Y212224D01*
X283642Y212302D01*
X283681Y212382D01*
X283717Y212464D01*
X283750Y212547D01*
X283778Y212632D01*
X283803Y212717D01*
X283825Y212804D01*
X283842Y212892D01*
X283855Y212980D01*
X283865Y213069D01*
X283871Y213158D01*
X283873Y213247D01*
X283871Y213336D01*
X283865Y213425D01*
X283855Y213514D01*
X283842Y213602D01*
X283825Y213690D01*
X283803Y213777D01*
X283778Y213862D01*
X283750Y213947D01*
X283717Y214030D01*
X283681Y214112D01*
X283642Y214192D01*
X283599Y214270D01*
X283553Y214346D01*
X283503Y214421D01*
X283450Y214493D01*
X283394Y214562D01*
X283335Y214629D01*
X283274Y214694D01*
X283209Y214755D01*
X283142Y214814D01*
X283073Y214870D01*
X283001Y214923D01*
X282926Y214973D01*
X282850Y215019D01*
X282772Y215062D01*
X282692Y215101D01*
X282610Y215137D01*
X282527Y215170D01*
X282442Y215198D01*
X282357Y215223D01*
X282270Y215245D01*
X282182Y215262D01*
X282094Y215275D01*
X282005Y215285D01*
X281916Y215291D01*
X281827Y215293D01*
X282236Y218567D02*
X279781Y218567D01*
X282236Y218567D02*
X282315Y218565D01*
X282394Y218559D01*
X282473Y218550D01*
X282551Y218537D01*
X282628Y218519D01*
X282704Y218499D01*
X282779Y218474D01*
X282853Y218446D01*
X282926Y218415D01*
X282997Y218379D01*
X283066Y218341D01*
X283133Y218299D01*
X283198Y218254D01*
X283261Y218206D01*
X283322Y218155D01*
X283379Y218101D01*
X283435Y218045D01*
X283487Y217986D01*
X283537Y217924D01*
X283583Y217860D01*
X283627Y217794D01*
X283667Y217726D01*
X283703Y217656D01*
X283737Y217584D01*
X283767Y217510D01*
X283793Y217436D01*
X283816Y217360D01*
X283834Y217283D01*
X283850Y217206D01*
X283861Y217127D01*
X283869Y217049D01*
X283873Y216970D01*
X283873Y216890D01*
X283869Y216811D01*
X283861Y216733D01*
X283850Y216654D01*
X283834Y216577D01*
X283816Y216500D01*
X283793Y216424D01*
X283767Y216350D01*
X283737Y216276D01*
X283703Y216204D01*
X283667Y216134D01*
X283627Y216066D01*
X283583Y216000D01*
X283537Y215936D01*
X283487Y215874D01*
X283435Y215815D01*
X283379Y215759D01*
X283322Y215705D01*
X283261Y215654D01*
X283198Y215606D01*
X283133Y215561D01*
X283066Y215519D01*
X282997Y215481D01*
X282926Y215445D01*
X282853Y215414D01*
X282779Y215386D01*
X282704Y215361D01*
X282628Y215341D01*
X282551Y215323D01*
X282473Y215310D01*
X282394Y215301D01*
X282315Y215295D01*
X282236Y215293D01*
X280599Y215293D01*
X287096Y217749D02*
X287096Y218567D01*
X291188Y218567D01*
X289142Y211201D01*
X279287Y187071D02*
X277241Y187071D01*
X279287Y187071D02*
X279376Y187073D01*
X279465Y187079D01*
X279554Y187089D01*
X279642Y187102D01*
X279730Y187119D01*
X279817Y187141D01*
X279902Y187166D01*
X279987Y187194D01*
X280070Y187227D01*
X280152Y187263D01*
X280232Y187302D01*
X280310Y187345D01*
X280386Y187391D01*
X280461Y187441D01*
X280533Y187494D01*
X280602Y187550D01*
X280669Y187609D01*
X280734Y187670D01*
X280795Y187735D01*
X280854Y187802D01*
X280910Y187871D01*
X280963Y187943D01*
X281013Y188018D01*
X281059Y188094D01*
X281102Y188172D01*
X281141Y188252D01*
X281177Y188334D01*
X281210Y188417D01*
X281238Y188502D01*
X281263Y188587D01*
X281285Y188674D01*
X281302Y188762D01*
X281315Y188850D01*
X281325Y188939D01*
X281331Y189028D01*
X281333Y189117D01*
X281331Y189206D01*
X281325Y189295D01*
X281315Y189384D01*
X281302Y189472D01*
X281285Y189560D01*
X281263Y189647D01*
X281238Y189732D01*
X281210Y189817D01*
X281177Y189900D01*
X281141Y189982D01*
X281102Y190062D01*
X281059Y190140D01*
X281013Y190216D01*
X280963Y190291D01*
X280910Y190363D01*
X280854Y190432D01*
X280795Y190499D01*
X280734Y190564D01*
X280669Y190625D01*
X280602Y190684D01*
X280533Y190740D01*
X280461Y190793D01*
X280386Y190843D01*
X280310Y190889D01*
X280232Y190932D01*
X280152Y190971D01*
X280070Y191007D01*
X279987Y191040D01*
X279902Y191068D01*
X279817Y191093D01*
X279730Y191115D01*
X279642Y191132D01*
X279554Y191145D01*
X279465Y191155D01*
X279376Y191161D01*
X279287Y191163D01*
X279696Y194437D02*
X277241Y194437D01*
X279696Y194437D02*
X279775Y194435D01*
X279854Y194429D01*
X279933Y194420D01*
X280011Y194407D01*
X280088Y194389D01*
X280164Y194369D01*
X280239Y194344D01*
X280313Y194316D01*
X280386Y194285D01*
X280457Y194249D01*
X280526Y194211D01*
X280593Y194169D01*
X280658Y194124D01*
X280721Y194076D01*
X280782Y194025D01*
X280839Y193971D01*
X280895Y193915D01*
X280947Y193856D01*
X280997Y193794D01*
X281043Y193730D01*
X281087Y193664D01*
X281127Y193596D01*
X281163Y193526D01*
X281197Y193454D01*
X281227Y193380D01*
X281253Y193306D01*
X281276Y193230D01*
X281294Y193153D01*
X281310Y193076D01*
X281321Y192997D01*
X281329Y192919D01*
X281333Y192840D01*
X281333Y192760D01*
X281329Y192681D01*
X281321Y192603D01*
X281310Y192524D01*
X281294Y192447D01*
X281276Y192370D01*
X281253Y192294D01*
X281227Y192220D01*
X281197Y192146D01*
X281163Y192074D01*
X281127Y192004D01*
X281087Y191936D01*
X281043Y191870D01*
X280997Y191806D01*
X280947Y191744D01*
X280895Y191685D01*
X280839Y191629D01*
X280782Y191575D01*
X280721Y191524D01*
X280658Y191476D01*
X280593Y191431D01*
X280526Y191389D01*
X280457Y191351D01*
X280386Y191315D01*
X280313Y191284D01*
X280239Y191256D01*
X280164Y191231D01*
X280088Y191211D01*
X280011Y191193D01*
X279933Y191180D01*
X279854Y191171D01*
X279775Y191165D01*
X279696Y191163D01*
X278059Y191163D01*
X284556Y191163D02*
X287012Y191163D01*
X287090Y191161D01*
X287168Y191156D01*
X287245Y191146D01*
X287322Y191133D01*
X287398Y191117D01*
X287473Y191097D01*
X287547Y191073D01*
X287620Y191046D01*
X287692Y191015D01*
X287762Y190981D01*
X287831Y190944D01*
X287897Y190903D01*
X287962Y190859D01*
X288024Y190813D01*
X288084Y190763D01*
X288142Y190711D01*
X288197Y190656D01*
X288249Y190598D01*
X288299Y190538D01*
X288345Y190476D01*
X288389Y190411D01*
X288430Y190345D01*
X288467Y190276D01*
X288501Y190206D01*
X288532Y190134D01*
X288559Y190061D01*
X288583Y189987D01*
X288603Y189912D01*
X288619Y189836D01*
X288632Y189759D01*
X288642Y189682D01*
X288647Y189604D01*
X288649Y189526D01*
X288648Y189526D02*
X288648Y189117D01*
X288646Y189028D01*
X288640Y188939D01*
X288630Y188850D01*
X288617Y188762D01*
X288600Y188674D01*
X288578Y188587D01*
X288553Y188502D01*
X288525Y188417D01*
X288492Y188334D01*
X288456Y188252D01*
X288417Y188172D01*
X288374Y188094D01*
X288328Y188018D01*
X288278Y187943D01*
X288225Y187871D01*
X288169Y187802D01*
X288110Y187735D01*
X288049Y187670D01*
X287984Y187609D01*
X287917Y187550D01*
X287848Y187494D01*
X287776Y187441D01*
X287701Y187391D01*
X287625Y187345D01*
X287547Y187302D01*
X287467Y187263D01*
X287385Y187227D01*
X287302Y187194D01*
X287217Y187166D01*
X287132Y187141D01*
X287045Y187119D01*
X286957Y187102D01*
X286869Y187089D01*
X286780Y187079D01*
X286691Y187073D01*
X286602Y187071D01*
X286513Y187073D01*
X286424Y187079D01*
X286335Y187089D01*
X286247Y187102D01*
X286159Y187119D01*
X286072Y187141D01*
X285987Y187166D01*
X285902Y187194D01*
X285819Y187227D01*
X285737Y187263D01*
X285657Y187302D01*
X285579Y187345D01*
X285503Y187391D01*
X285428Y187441D01*
X285356Y187494D01*
X285287Y187550D01*
X285220Y187609D01*
X285155Y187670D01*
X285094Y187735D01*
X285035Y187802D01*
X284979Y187871D01*
X284926Y187943D01*
X284876Y188018D01*
X284830Y188094D01*
X284787Y188172D01*
X284748Y188252D01*
X284712Y188334D01*
X284679Y188417D01*
X284651Y188502D01*
X284626Y188587D01*
X284604Y188674D01*
X284587Y188762D01*
X284574Y188850D01*
X284564Y188939D01*
X284558Y189028D01*
X284556Y189117D01*
X284556Y191163D01*
X284558Y191277D01*
X284564Y191391D01*
X284574Y191505D01*
X284588Y191619D01*
X284606Y191732D01*
X284628Y191844D01*
X284653Y191955D01*
X284683Y192065D01*
X284716Y192175D01*
X284753Y192283D01*
X284794Y192389D01*
X284839Y192495D01*
X284887Y192598D01*
X284939Y192700D01*
X284995Y192800D01*
X285053Y192898D01*
X285116Y192994D01*
X285181Y193087D01*
X285250Y193179D01*
X285322Y193267D01*
X285397Y193354D01*
X285475Y193437D01*
X285556Y193518D01*
X285639Y193596D01*
X285726Y193671D01*
X285814Y193743D01*
X285906Y193812D01*
X285999Y193877D01*
X286095Y193939D01*
X286193Y193998D01*
X286293Y194054D01*
X286395Y194106D01*
X286498Y194154D01*
X286604Y194199D01*
X286710Y194240D01*
X286818Y194277D01*
X286928Y194310D01*
X287038Y194340D01*
X287149Y194365D01*
X287261Y194387D01*
X287374Y194405D01*
X287488Y194419D01*
X287602Y194429D01*
X287716Y194435D01*
X287830Y194437D01*
X279287Y161671D02*
X277241Y161671D01*
X279287Y161671D02*
X279376Y161673D01*
X279465Y161679D01*
X279554Y161689D01*
X279642Y161702D01*
X279730Y161719D01*
X279817Y161741D01*
X279902Y161766D01*
X279987Y161794D01*
X280070Y161827D01*
X280152Y161863D01*
X280232Y161902D01*
X280310Y161945D01*
X280386Y161991D01*
X280461Y162041D01*
X280533Y162094D01*
X280602Y162150D01*
X280669Y162209D01*
X280734Y162270D01*
X280795Y162335D01*
X280854Y162402D01*
X280910Y162471D01*
X280963Y162543D01*
X281013Y162618D01*
X281059Y162694D01*
X281102Y162772D01*
X281141Y162852D01*
X281177Y162934D01*
X281210Y163017D01*
X281238Y163102D01*
X281263Y163187D01*
X281285Y163274D01*
X281302Y163362D01*
X281315Y163450D01*
X281325Y163539D01*
X281331Y163628D01*
X281333Y163717D01*
X281331Y163806D01*
X281325Y163895D01*
X281315Y163984D01*
X281302Y164072D01*
X281285Y164160D01*
X281263Y164247D01*
X281238Y164332D01*
X281210Y164417D01*
X281177Y164500D01*
X281141Y164582D01*
X281102Y164662D01*
X281059Y164740D01*
X281013Y164816D01*
X280963Y164891D01*
X280910Y164963D01*
X280854Y165032D01*
X280795Y165099D01*
X280734Y165164D01*
X280669Y165225D01*
X280602Y165284D01*
X280533Y165340D01*
X280461Y165393D01*
X280386Y165443D01*
X280310Y165489D01*
X280232Y165532D01*
X280152Y165571D01*
X280070Y165607D01*
X279987Y165640D01*
X279902Y165668D01*
X279817Y165693D01*
X279730Y165715D01*
X279642Y165732D01*
X279554Y165745D01*
X279465Y165755D01*
X279376Y165761D01*
X279287Y165763D01*
X279696Y169037D02*
X277241Y169037D01*
X279696Y169037D02*
X279775Y169035D01*
X279854Y169029D01*
X279933Y169020D01*
X280011Y169007D01*
X280088Y168989D01*
X280164Y168969D01*
X280239Y168944D01*
X280313Y168916D01*
X280386Y168885D01*
X280457Y168849D01*
X280526Y168811D01*
X280593Y168769D01*
X280658Y168724D01*
X280721Y168676D01*
X280782Y168625D01*
X280839Y168571D01*
X280895Y168515D01*
X280947Y168456D01*
X280997Y168394D01*
X281043Y168330D01*
X281087Y168264D01*
X281127Y168196D01*
X281163Y168126D01*
X281197Y168054D01*
X281227Y167980D01*
X281253Y167906D01*
X281276Y167830D01*
X281294Y167753D01*
X281310Y167676D01*
X281321Y167597D01*
X281329Y167519D01*
X281333Y167440D01*
X281333Y167360D01*
X281329Y167281D01*
X281321Y167203D01*
X281310Y167124D01*
X281294Y167047D01*
X281276Y166970D01*
X281253Y166894D01*
X281227Y166820D01*
X281197Y166746D01*
X281163Y166674D01*
X281127Y166604D01*
X281087Y166536D01*
X281043Y166470D01*
X280997Y166406D01*
X280947Y166344D01*
X280895Y166285D01*
X280839Y166229D01*
X280782Y166175D01*
X280721Y166124D01*
X280658Y166076D01*
X280593Y166031D01*
X280526Y165989D01*
X280457Y165951D01*
X280386Y165915D01*
X280313Y165884D01*
X280239Y165856D01*
X280164Y165831D01*
X280088Y165811D01*
X280011Y165793D01*
X279933Y165780D01*
X279854Y165771D01*
X279775Y165765D01*
X279696Y165763D01*
X278059Y165763D01*
X284556Y161671D02*
X287012Y161671D01*
X287090Y161673D01*
X287168Y161678D01*
X287245Y161688D01*
X287322Y161701D01*
X287398Y161717D01*
X287473Y161737D01*
X287547Y161761D01*
X287620Y161788D01*
X287692Y161819D01*
X287762Y161853D01*
X287831Y161890D01*
X287897Y161931D01*
X287962Y161975D01*
X288024Y162021D01*
X288084Y162071D01*
X288142Y162123D01*
X288197Y162178D01*
X288249Y162236D01*
X288299Y162296D01*
X288345Y162358D01*
X288389Y162423D01*
X288430Y162490D01*
X288467Y162558D01*
X288501Y162628D01*
X288532Y162700D01*
X288559Y162773D01*
X288583Y162847D01*
X288603Y162922D01*
X288619Y162998D01*
X288632Y163075D01*
X288642Y163152D01*
X288647Y163230D01*
X288649Y163308D01*
X288648Y163308D02*
X288648Y164126D01*
X288649Y164126D02*
X288647Y164204D01*
X288642Y164282D01*
X288632Y164359D01*
X288619Y164436D01*
X288603Y164512D01*
X288583Y164587D01*
X288559Y164661D01*
X288532Y164734D01*
X288501Y164806D01*
X288467Y164876D01*
X288430Y164945D01*
X288389Y165011D01*
X288345Y165076D01*
X288299Y165138D01*
X288249Y165198D01*
X288197Y165256D01*
X288142Y165311D01*
X288084Y165363D01*
X288024Y165413D01*
X287962Y165459D01*
X287897Y165503D01*
X287831Y165544D01*
X287762Y165581D01*
X287692Y165615D01*
X287620Y165646D01*
X287547Y165673D01*
X287473Y165697D01*
X287398Y165717D01*
X287322Y165733D01*
X287245Y165746D01*
X287168Y165756D01*
X287090Y165761D01*
X287012Y165763D01*
X284556Y165763D01*
X284556Y169037D01*
X288648Y169037D01*
X279125Y142614D02*
X279059Y142475D01*
X278998Y142336D01*
X278939Y142194D01*
X278885Y142051D01*
X278834Y141907D01*
X278786Y141762D01*
X278743Y141615D01*
X278703Y141467D01*
X278666Y141319D01*
X278634Y141169D01*
X278605Y141019D01*
X278580Y140868D01*
X278559Y140717D01*
X278542Y140565D01*
X278528Y140412D01*
X278519Y140260D01*
X278513Y140107D01*
X278511Y139954D01*
X279125Y142614D02*
X279151Y142684D01*
X279181Y142754D01*
X279214Y142821D01*
X279250Y142887D01*
X279289Y142951D01*
X279332Y143013D01*
X279378Y143072D01*
X279426Y143130D01*
X279477Y143184D01*
X279531Y143237D01*
X279588Y143286D01*
X279647Y143333D01*
X279708Y143376D01*
X279771Y143417D01*
X279836Y143454D01*
X279903Y143489D01*
X279972Y143519D01*
X280042Y143547D01*
X280113Y143570D01*
X280185Y143591D01*
X280258Y143607D01*
X280332Y143620D01*
X280407Y143630D01*
X280482Y143635D01*
X280557Y143637D01*
X280632Y143635D01*
X280707Y143630D01*
X280782Y143620D01*
X280856Y143607D01*
X280929Y143591D01*
X281001Y143570D01*
X281072Y143547D01*
X281142Y143519D01*
X281211Y143489D01*
X281278Y143454D01*
X281343Y143417D01*
X281406Y143376D01*
X281467Y143333D01*
X281526Y143286D01*
X281583Y143237D01*
X281637Y143184D01*
X281688Y143130D01*
X281737Y143072D01*
X281782Y143013D01*
X281825Y142951D01*
X281864Y142887D01*
X281901Y142821D01*
X281933Y142753D01*
X281963Y142684D01*
X281989Y142614D01*
X282054Y142476D01*
X282116Y142336D01*
X282174Y142194D01*
X282229Y142051D01*
X282280Y141907D01*
X282328Y141762D01*
X282371Y141615D01*
X282411Y141468D01*
X282448Y141319D01*
X282480Y141169D01*
X282509Y141019D01*
X282534Y140868D01*
X282555Y140717D01*
X282572Y140565D01*
X282586Y140412D01*
X282595Y140260D01*
X282601Y140107D01*
X282603Y139954D01*
X278511Y139954D02*
X278513Y139801D01*
X278519Y139648D01*
X278528Y139495D01*
X278542Y139343D01*
X278559Y139191D01*
X278580Y139040D01*
X278605Y138889D01*
X278634Y138738D01*
X278666Y138589D01*
X278703Y138440D01*
X278743Y138293D01*
X278786Y138146D01*
X278834Y138001D01*
X278885Y137856D01*
X278940Y137714D01*
X278998Y137572D01*
X279060Y137432D01*
X279125Y137294D01*
X279151Y137223D01*
X279181Y137154D01*
X279214Y137087D01*
X279250Y137021D01*
X279289Y136957D01*
X279332Y136895D01*
X279378Y136836D01*
X279426Y136778D01*
X279477Y136724D01*
X279531Y136671D01*
X279588Y136622D01*
X279647Y136575D01*
X279708Y136532D01*
X279771Y136491D01*
X279836Y136454D01*
X279903Y136419D01*
X279972Y136389D01*
X280042Y136361D01*
X280113Y136338D01*
X280185Y136317D01*
X280258Y136301D01*
X280332Y136288D01*
X280407Y136278D01*
X280482Y136273D01*
X280557Y136271D01*
X281989Y137294D02*
X282054Y137432D01*
X282116Y137572D01*
X282174Y137714D01*
X282229Y137857D01*
X282280Y138001D01*
X282328Y138146D01*
X282371Y138293D01*
X282411Y138441D01*
X282448Y138589D01*
X282480Y138739D01*
X282509Y138889D01*
X282534Y139040D01*
X282555Y139191D01*
X282572Y139343D01*
X282586Y139496D01*
X282595Y139648D01*
X282601Y139801D01*
X282603Y139954D01*
X281989Y137294D02*
X281963Y137224D01*
X281933Y137154D01*
X281901Y137087D01*
X281864Y137021D01*
X281825Y136957D01*
X281782Y136895D01*
X281736Y136836D01*
X281688Y136778D01*
X281637Y136724D01*
X281583Y136671D01*
X281526Y136622D01*
X281467Y136575D01*
X281406Y136532D01*
X281343Y136491D01*
X281278Y136454D01*
X281211Y136419D01*
X281142Y136389D01*
X281072Y136361D01*
X281001Y136338D01*
X280929Y136317D01*
X280856Y136301D01*
X280782Y136288D01*
X280707Y136278D01*
X280632Y136273D01*
X280557Y136271D01*
X278920Y137908D02*
X282194Y142000D01*
X280148Y118237D02*
X278511Y112508D01*
X282603Y112508D01*
X281376Y114145D02*
X281376Y110871D01*
X285826Y110871D02*
X288282Y110871D01*
X288360Y110873D01*
X288438Y110878D01*
X288515Y110888D01*
X288592Y110901D01*
X288668Y110917D01*
X288743Y110937D01*
X288817Y110961D01*
X288890Y110988D01*
X288962Y111019D01*
X289032Y111053D01*
X289101Y111090D01*
X289167Y111131D01*
X289232Y111175D01*
X289294Y111221D01*
X289354Y111271D01*
X289412Y111323D01*
X289467Y111378D01*
X289519Y111436D01*
X289569Y111496D01*
X289615Y111558D01*
X289659Y111623D01*
X289700Y111690D01*
X289737Y111758D01*
X289771Y111828D01*
X289802Y111900D01*
X289829Y111973D01*
X289853Y112047D01*
X289873Y112122D01*
X289889Y112198D01*
X289902Y112275D01*
X289912Y112352D01*
X289917Y112430D01*
X289919Y112508D01*
X289918Y112508D02*
X289918Y113326D01*
X289919Y113326D02*
X289917Y113404D01*
X289912Y113482D01*
X289902Y113559D01*
X289889Y113636D01*
X289873Y113712D01*
X289853Y113787D01*
X289829Y113861D01*
X289802Y113934D01*
X289771Y114006D01*
X289737Y114076D01*
X289700Y114145D01*
X289659Y114211D01*
X289615Y114276D01*
X289569Y114338D01*
X289519Y114398D01*
X289467Y114456D01*
X289412Y114511D01*
X289354Y114563D01*
X289294Y114613D01*
X289232Y114659D01*
X289167Y114703D01*
X289101Y114744D01*
X289032Y114781D01*
X288962Y114815D01*
X288890Y114846D01*
X288817Y114873D01*
X288743Y114897D01*
X288668Y114917D01*
X288592Y114933D01*
X288515Y114946D01*
X288438Y114956D01*
X288360Y114961D01*
X288282Y114963D01*
X285826Y114963D01*
X285826Y118237D01*
X289918Y118237D01*
X283097Y58801D02*
X281051Y58801D01*
X283097Y58801D02*
X283186Y58803D01*
X283275Y58809D01*
X283364Y58819D01*
X283452Y58832D01*
X283540Y58849D01*
X283627Y58871D01*
X283712Y58896D01*
X283797Y58924D01*
X283880Y58957D01*
X283962Y58993D01*
X284042Y59032D01*
X284120Y59075D01*
X284196Y59121D01*
X284271Y59171D01*
X284343Y59224D01*
X284412Y59280D01*
X284479Y59339D01*
X284544Y59400D01*
X284605Y59465D01*
X284664Y59532D01*
X284720Y59601D01*
X284773Y59673D01*
X284823Y59748D01*
X284869Y59824D01*
X284912Y59902D01*
X284951Y59982D01*
X284987Y60064D01*
X285020Y60147D01*
X285048Y60232D01*
X285073Y60317D01*
X285095Y60404D01*
X285112Y60492D01*
X285125Y60580D01*
X285135Y60669D01*
X285141Y60758D01*
X285143Y60847D01*
X285141Y60936D01*
X285135Y61025D01*
X285125Y61114D01*
X285112Y61202D01*
X285095Y61290D01*
X285073Y61377D01*
X285048Y61462D01*
X285020Y61547D01*
X284987Y61630D01*
X284951Y61712D01*
X284912Y61792D01*
X284869Y61870D01*
X284823Y61946D01*
X284773Y62021D01*
X284720Y62093D01*
X284664Y62162D01*
X284605Y62229D01*
X284544Y62294D01*
X284479Y62355D01*
X284412Y62414D01*
X284343Y62470D01*
X284271Y62523D01*
X284196Y62573D01*
X284120Y62619D01*
X284042Y62662D01*
X283962Y62701D01*
X283880Y62737D01*
X283797Y62770D01*
X283712Y62798D01*
X283627Y62823D01*
X283540Y62845D01*
X283452Y62862D01*
X283364Y62875D01*
X283275Y62885D01*
X283186Y62891D01*
X283097Y62893D01*
X283506Y66167D02*
X281051Y66167D01*
X283506Y66167D02*
X283585Y66165D01*
X283664Y66159D01*
X283743Y66150D01*
X283821Y66137D01*
X283898Y66119D01*
X283974Y66099D01*
X284049Y66074D01*
X284123Y66046D01*
X284196Y66015D01*
X284267Y65979D01*
X284336Y65941D01*
X284403Y65899D01*
X284468Y65854D01*
X284531Y65806D01*
X284592Y65755D01*
X284649Y65701D01*
X284705Y65645D01*
X284757Y65586D01*
X284807Y65524D01*
X284853Y65460D01*
X284897Y65394D01*
X284937Y65326D01*
X284973Y65256D01*
X285007Y65184D01*
X285037Y65110D01*
X285063Y65036D01*
X285086Y64960D01*
X285104Y64883D01*
X285120Y64806D01*
X285131Y64727D01*
X285139Y64649D01*
X285143Y64570D01*
X285143Y64490D01*
X285139Y64411D01*
X285131Y64333D01*
X285120Y64254D01*
X285104Y64177D01*
X285086Y64100D01*
X285063Y64024D01*
X285037Y63950D01*
X285007Y63876D01*
X284973Y63804D01*
X284937Y63734D01*
X284897Y63666D01*
X284853Y63600D01*
X284807Y63536D01*
X284757Y63474D01*
X284705Y63415D01*
X284649Y63359D01*
X284592Y63305D01*
X284531Y63254D01*
X284468Y63206D01*
X284403Y63161D01*
X284336Y63119D01*
X284267Y63081D01*
X284196Y63045D01*
X284123Y63014D01*
X284049Y62986D01*
X283974Y62961D01*
X283898Y62941D01*
X283821Y62923D01*
X283743Y62910D01*
X283664Y62901D01*
X283585Y62895D01*
X283506Y62893D01*
X281869Y62893D01*
X288366Y58801D02*
X290412Y58801D01*
X290501Y58803D01*
X290590Y58809D01*
X290679Y58819D01*
X290767Y58832D01*
X290855Y58849D01*
X290942Y58871D01*
X291027Y58896D01*
X291112Y58924D01*
X291195Y58957D01*
X291277Y58993D01*
X291357Y59032D01*
X291435Y59075D01*
X291511Y59121D01*
X291586Y59171D01*
X291658Y59224D01*
X291727Y59280D01*
X291794Y59339D01*
X291859Y59400D01*
X291920Y59465D01*
X291979Y59532D01*
X292035Y59601D01*
X292088Y59673D01*
X292138Y59748D01*
X292184Y59824D01*
X292227Y59902D01*
X292266Y59982D01*
X292302Y60064D01*
X292335Y60147D01*
X292363Y60232D01*
X292388Y60317D01*
X292410Y60404D01*
X292427Y60492D01*
X292440Y60580D01*
X292450Y60669D01*
X292456Y60758D01*
X292458Y60847D01*
X292456Y60936D01*
X292450Y61025D01*
X292440Y61114D01*
X292427Y61202D01*
X292410Y61290D01*
X292388Y61377D01*
X292363Y61462D01*
X292335Y61547D01*
X292302Y61630D01*
X292266Y61712D01*
X292227Y61792D01*
X292184Y61870D01*
X292138Y61946D01*
X292088Y62021D01*
X292035Y62093D01*
X291979Y62162D01*
X291920Y62229D01*
X291859Y62294D01*
X291794Y62355D01*
X291727Y62414D01*
X291658Y62470D01*
X291586Y62523D01*
X291511Y62573D01*
X291435Y62619D01*
X291357Y62662D01*
X291277Y62701D01*
X291195Y62737D01*
X291112Y62770D01*
X291027Y62798D01*
X290942Y62823D01*
X290855Y62845D01*
X290767Y62862D01*
X290679Y62875D01*
X290590Y62885D01*
X290501Y62891D01*
X290412Y62893D01*
X290822Y66167D02*
X288366Y66167D01*
X290822Y66167D02*
X290901Y66165D01*
X290980Y66159D01*
X291059Y66150D01*
X291137Y66137D01*
X291214Y66119D01*
X291290Y66099D01*
X291365Y66074D01*
X291439Y66046D01*
X291512Y66015D01*
X291583Y65979D01*
X291652Y65941D01*
X291719Y65899D01*
X291784Y65854D01*
X291847Y65806D01*
X291908Y65755D01*
X291965Y65701D01*
X292021Y65645D01*
X292073Y65586D01*
X292123Y65524D01*
X292169Y65460D01*
X292213Y65394D01*
X292253Y65326D01*
X292289Y65256D01*
X292323Y65184D01*
X292353Y65110D01*
X292379Y65036D01*
X292402Y64960D01*
X292420Y64883D01*
X292436Y64806D01*
X292447Y64727D01*
X292455Y64649D01*
X292459Y64570D01*
X292459Y64490D01*
X292455Y64411D01*
X292447Y64333D01*
X292436Y64254D01*
X292420Y64177D01*
X292402Y64100D01*
X292379Y64024D01*
X292353Y63950D01*
X292323Y63876D01*
X292289Y63804D01*
X292253Y63734D01*
X292213Y63666D01*
X292169Y63600D01*
X292123Y63536D01*
X292073Y63474D01*
X292021Y63415D01*
X291965Y63359D01*
X291908Y63305D01*
X291847Y63254D01*
X291784Y63206D01*
X291719Y63161D01*
X291652Y63119D01*
X291583Y63081D01*
X291512Y63045D01*
X291439Y63014D01*
X291365Y62986D01*
X291290Y62961D01*
X291214Y62941D01*
X291137Y62923D01*
X291059Y62910D01*
X290980Y62901D01*
X290901Y62895D01*
X290822Y62893D01*
X289185Y62893D01*
X283097Y85471D02*
X281051Y85471D01*
X283097Y85471D02*
X283186Y85473D01*
X283275Y85479D01*
X283364Y85489D01*
X283452Y85502D01*
X283540Y85519D01*
X283627Y85541D01*
X283712Y85566D01*
X283797Y85594D01*
X283880Y85627D01*
X283962Y85663D01*
X284042Y85702D01*
X284120Y85745D01*
X284196Y85791D01*
X284271Y85841D01*
X284343Y85894D01*
X284412Y85950D01*
X284479Y86009D01*
X284544Y86070D01*
X284605Y86135D01*
X284664Y86202D01*
X284720Y86271D01*
X284773Y86343D01*
X284823Y86418D01*
X284869Y86494D01*
X284912Y86572D01*
X284951Y86652D01*
X284987Y86734D01*
X285020Y86817D01*
X285048Y86902D01*
X285073Y86987D01*
X285095Y87074D01*
X285112Y87162D01*
X285125Y87250D01*
X285135Y87339D01*
X285141Y87428D01*
X285143Y87517D01*
X285141Y87606D01*
X285135Y87695D01*
X285125Y87784D01*
X285112Y87872D01*
X285095Y87960D01*
X285073Y88047D01*
X285048Y88132D01*
X285020Y88217D01*
X284987Y88300D01*
X284951Y88382D01*
X284912Y88462D01*
X284869Y88540D01*
X284823Y88616D01*
X284773Y88691D01*
X284720Y88763D01*
X284664Y88832D01*
X284605Y88899D01*
X284544Y88964D01*
X284479Y89025D01*
X284412Y89084D01*
X284343Y89140D01*
X284271Y89193D01*
X284196Y89243D01*
X284120Y89289D01*
X284042Y89332D01*
X283962Y89371D01*
X283880Y89407D01*
X283797Y89440D01*
X283712Y89468D01*
X283627Y89493D01*
X283540Y89515D01*
X283452Y89532D01*
X283364Y89545D01*
X283275Y89555D01*
X283186Y89561D01*
X283097Y89563D01*
X283506Y92837D02*
X281051Y92837D01*
X283506Y92837D02*
X283585Y92835D01*
X283664Y92829D01*
X283743Y92820D01*
X283821Y92807D01*
X283898Y92789D01*
X283974Y92769D01*
X284049Y92744D01*
X284123Y92716D01*
X284196Y92685D01*
X284267Y92649D01*
X284336Y92611D01*
X284403Y92569D01*
X284468Y92524D01*
X284531Y92476D01*
X284592Y92425D01*
X284649Y92371D01*
X284705Y92315D01*
X284757Y92256D01*
X284807Y92194D01*
X284853Y92130D01*
X284897Y92064D01*
X284937Y91996D01*
X284973Y91926D01*
X285007Y91854D01*
X285037Y91780D01*
X285063Y91706D01*
X285086Y91630D01*
X285104Y91553D01*
X285120Y91476D01*
X285131Y91397D01*
X285139Y91319D01*
X285143Y91240D01*
X285143Y91160D01*
X285139Y91081D01*
X285131Y91003D01*
X285120Y90924D01*
X285104Y90847D01*
X285086Y90770D01*
X285063Y90694D01*
X285037Y90620D01*
X285007Y90546D01*
X284973Y90474D01*
X284937Y90404D01*
X284897Y90336D01*
X284853Y90270D01*
X284807Y90206D01*
X284757Y90144D01*
X284705Y90085D01*
X284649Y90029D01*
X284592Y89975D01*
X284531Y89924D01*
X284468Y89876D01*
X284403Y89831D01*
X284336Y89789D01*
X284267Y89751D01*
X284196Y89715D01*
X284123Y89684D01*
X284049Y89656D01*
X283974Y89631D01*
X283898Y89611D01*
X283821Y89593D01*
X283743Y89580D01*
X283664Y89571D01*
X283585Y89565D01*
X283506Y89563D01*
X281869Y89563D01*
X288366Y87108D02*
X290003Y92837D01*
X288366Y87108D02*
X292458Y87108D01*
X291231Y88745D02*
X291231Y85471D01*
X74817Y190627D02*
X72771Y188990D01*
X74817Y190627D02*
X74817Y183261D01*
X72771Y183261D02*
X76863Y183261D01*
X80087Y186944D02*
X80089Y187097D01*
X80095Y187250D01*
X80104Y187402D01*
X80118Y187555D01*
X80135Y187707D01*
X80156Y187858D01*
X80181Y188009D01*
X80210Y188159D01*
X80242Y188309D01*
X80279Y188457D01*
X80319Y188605D01*
X80362Y188752D01*
X80410Y188897D01*
X80461Y189041D01*
X80515Y189184D01*
X80574Y189326D01*
X80635Y189465D01*
X80701Y189604D01*
X80700Y189604D02*
X80726Y189674D01*
X80756Y189744D01*
X80789Y189811D01*
X80825Y189877D01*
X80864Y189941D01*
X80907Y190003D01*
X80953Y190062D01*
X81001Y190120D01*
X81052Y190174D01*
X81106Y190227D01*
X81163Y190276D01*
X81222Y190323D01*
X81283Y190366D01*
X81346Y190407D01*
X81411Y190444D01*
X81478Y190479D01*
X81547Y190509D01*
X81617Y190537D01*
X81688Y190560D01*
X81760Y190581D01*
X81833Y190597D01*
X81907Y190610D01*
X81982Y190620D01*
X82057Y190625D01*
X82132Y190627D01*
X82207Y190625D01*
X82282Y190620D01*
X82357Y190610D01*
X82431Y190597D01*
X82504Y190581D01*
X82576Y190560D01*
X82647Y190537D01*
X82717Y190509D01*
X82786Y190479D01*
X82853Y190444D01*
X82918Y190407D01*
X82981Y190366D01*
X83042Y190323D01*
X83101Y190276D01*
X83158Y190227D01*
X83212Y190174D01*
X83263Y190120D01*
X83312Y190062D01*
X83357Y190003D01*
X83400Y189941D01*
X83439Y189877D01*
X83476Y189811D01*
X83508Y189743D01*
X83538Y189674D01*
X83564Y189604D01*
X83629Y189466D01*
X83691Y189326D01*
X83749Y189184D01*
X83804Y189041D01*
X83855Y188897D01*
X83903Y188752D01*
X83946Y188605D01*
X83986Y188458D01*
X84023Y188309D01*
X84055Y188159D01*
X84084Y188009D01*
X84109Y187858D01*
X84130Y187707D01*
X84147Y187555D01*
X84161Y187402D01*
X84170Y187250D01*
X84176Y187097D01*
X84178Y186944D01*
X80086Y186944D02*
X80088Y186791D01*
X80094Y186638D01*
X80103Y186485D01*
X80117Y186333D01*
X80134Y186181D01*
X80155Y186030D01*
X80180Y185879D01*
X80209Y185728D01*
X80241Y185579D01*
X80278Y185430D01*
X80318Y185283D01*
X80361Y185136D01*
X80409Y184991D01*
X80460Y184846D01*
X80515Y184704D01*
X80573Y184562D01*
X80635Y184422D01*
X80700Y184284D01*
X80726Y184213D01*
X80756Y184144D01*
X80789Y184077D01*
X80825Y184011D01*
X80864Y183947D01*
X80907Y183885D01*
X80953Y183826D01*
X81001Y183768D01*
X81052Y183714D01*
X81106Y183661D01*
X81163Y183612D01*
X81222Y183565D01*
X81283Y183522D01*
X81346Y183481D01*
X81411Y183444D01*
X81478Y183409D01*
X81547Y183379D01*
X81617Y183351D01*
X81688Y183328D01*
X81760Y183307D01*
X81833Y183291D01*
X81907Y183278D01*
X81982Y183268D01*
X82057Y183263D01*
X82132Y183261D01*
X83564Y184284D02*
X83629Y184422D01*
X83691Y184562D01*
X83749Y184704D01*
X83804Y184847D01*
X83855Y184991D01*
X83903Y185136D01*
X83946Y185283D01*
X83986Y185431D01*
X84023Y185579D01*
X84055Y185729D01*
X84084Y185879D01*
X84109Y186030D01*
X84130Y186181D01*
X84147Y186333D01*
X84161Y186486D01*
X84170Y186638D01*
X84176Y186791D01*
X84178Y186944D01*
X83564Y184284D02*
X83538Y184214D01*
X83508Y184144D01*
X83476Y184077D01*
X83439Y184011D01*
X83400Y183947D01*
X83357Y183885D01*
X83311Y183826D01*
X83263Y183768D01*
X83212Y183714D01*
X83158Y183661D01*
X83101Y183612D01*
X83042Y183565D01*
X82981Y183522D01*
X82918Y183481D01*
X82853Y183444D01*
X82786Y183409D01*
X82717Y183379D01*
X82647Y183351D01*
X82576Y183328D01*
X82504Y183307D01*
X82431Y183291D01*
X82357Y183278D01*
X82282Y183268D01*
X82207Y183263D01*
X82132Y183261D01*
X80495Y184898D02*
X83769Y188990D01*
X99441Y188990D02*
X101487Y190627D01*
X101487Y183261D01*
X99441Y183261D02*
X103533Y183261D01*
X106756Y188990D02*
X108802Y190627D01*
X108802Y183261D01*
X106756Y183261D02*
X110848Y183261D01*
X122301Y188990D02*
X124347Y190627D01*
X124347Y183261D01*
X122301Y183261D02*
X126393Y183261D01*
X133709Y188786D02*
X133707Y188871D01*
X133701Y188956D01*
X133691Y189040D01*
X133678Y189124D01*
X133660Y189208D01*
X133639Y189290D01*
X133614Y189371D01*
X133585Y189451D01*
X133552Y189530D01*
X133516Y189607D01*
X133476Y189682D01*
X133433Y189756D01*
X133387Y189827D01*
X133337Y189896D01*
X133284Y189963D01*
X133228Y190027D01*
X133169Y190088D01*
X133108Y190147D01*
X133044Y190203D01*
X132977Y190256D01*
X132908Y190306D01*
X132837Y190352D01*
X132763Y190395D01*
X132688Y190435D01*
X132611Y190471D01*
X132532Y190504D01*
X132452Y190533D01*
X132371Y190558D01*
X132289Y190579D01*
X132205Y190597D01*
X132121Y190610D01*
X132037Y190620D01*
X131952Y190626D01*
X131867Y190628D01*
X131867Y190627D02*
X131771Y190625D01*
X131675Y190619D01*
X131580Y190609D01*
X131485Y190596D01*
X131390Y190578D01*
X131297Y190557D01*
X131204Y190532D01*
X131113Y190503D01*
X131022Y190471D01*
X130933Y190435D01*
X130846Y190395D01*
X130760Y190352D01*
X130676Y190306D01*
X130594Y190256D01*
X130514Y190202D01*
X130437Y190146D01*
X130362Y190086D01*
X130289Y190024D01*
X130219Y189958D01*
X130151Y189890D01*
X130086Y189819D01*
X130025Y189746D01*
X129966Y189670D01*
X129910Y189591D01*
X129858Y189511D01*
X129809Y189428D01*
X129763Y189344D01*
X129721Y189258D01*
X129683Y189170D01*
X129648Y189081D01*
X129616Y188990D01*
X133095Y187354D02*
X133155Y187413D01*
X133212Y187475D01*
X133267Y187539D01*
X133318Y187606D01*
X133367Y187675D01*
X133413Y187745D01*
X133456Y187818D01*
X133496Y187892D01*
X133532Y187968D01*
X133565Y188046D01*
X133595Y188125D01*
X133622Y188205D01*
X133645Y188286D01*
X133664Y188368D01*
X133680Y188450D01*
X133693Y188534D01*
X133702Y188618D01*
X133707Y188702D01*
X133709Y188786D01*
X133095Y187353D02*
X129616Y183261D01*
X133708Y183261D01*
X148971Y188990D02*
X151017Y190627D01*
X151017Y183261D01*
X148971Y183261D02*
X153063Y183261D01*
X156286Y183261D02*
X158332Y183261D01*
X158421Y183263D01*
X158510Y183269D01*
X158599Y183279D01*
X158687Y183292D01*
X158775Y183309D01*
X158862Y183331D01*
X158947Y183356D01*
X159032Y183384D01*
X159115Y183417D01*
X159197Y183453D01*
X159277Y183492D01*
X159355Y183535D01*
X159431Y183581D01*
X159506Y183631D01*
X159578Y183684D01*
X159647Y183740D01*
X159714Y183799D01*
X159779Y183860D01*
X159840Y183925D01*
X159899Y183992D01*
X159955Y184061D01*
X160008Y184133D01*
X160058Y184208D01*
X160104Y184284D01*
X160147Y184362D01*
X160186Y184442D01*
X160222Y184524D01*
X160255Y184607D01*
X160283Y184692D01*
X160308Y184777D01*
X160330Y184864D01*
X160347Y184952D01*
X160360Y185040D01*
X160370Y185129D01*
X160376Y185218D01*
X160378Y185307D01*
X160376Y185396D01*
X160370Y185485D01*
X160360Y185574D01*
X160347Y185662D01*
X160330Y185750D01*
X160308Y185837D01*
X160283Y185922D01*
X160255Y186007D01*
X160222Y186090D01*
X160186Y186172D01*
X160147Y186252D01*
X160104Y186330D01*
X160058Y186406D01*
X160008Y186481D01*
X159955Y186553D01*
X159899Y186622D01*
X159840Y186689D01*
X159779Y186754D01*
X159714Y186815D01*
X159647Y186874D01*
X159578Y186930D01*
X159506Y186983D01*
X159431Y187033D01*
X159355Y187079D01*
X159277Y187122D01*
X159197Y187161D01*
X159115Y187197D01*
X159032Y187230D01*
X158947Y187258D01*
X158862Y187283D01*
X158775Y187305D01*
X158687Y187322D01*
X158599Y187335D01*
X158510Y187345D01*
X158421Y187351D01*
X158332Y187353D01*
X158742Y190627D02*
X156286Y190627D01*
X158742Y190627D02*
X158821Y190625D01*
X158900Y190619D01*
X158979Y190610D01*
X159057Y190597D01*
X159134Y190579D01*
X159210Y190559D01*
X159285Y190534D01*
X159359Y190506D01*
X159432Y190475D01*
X159503Y190439D01*
X159572Y190401D01*
X159639Y190359D01*
X159704Y190314D01*
X159767Y190266D01*
X159828Y190215D01*
X159885Y190161D01*
X159941Y190105D01*
X159993Y190046D01*
X160043Y189984D01*
X160089Y189920D01*
X160133Y189854D01*
X160173Y189786D01*
X160209Y189716D01*
X160243Y189644D01*
X160273Y189570D01*
X160299Y189496D01*
X160322Y189420D01*
X160340Y189343D01*
X160356Y189266D01*
X160367Y189187D01*
X160375Y189109D01*
X160379Y189030D01*
X160379Y188950D01*
X160375Y188871D01*
X160367Y188793D01*
X160356Y188714D01*
X160340Y188637D01*
X160322Y188560D01*
X160299Y188484D01*
X160273Y188410D01*
X160243Y188336D01*
X160209Y188264D01*
X160173Y188194D01*
X160133Y188126D01*
X160089Y188060D01*
X160043Y187996D01*
X159993Y187934D01*
X159941Y187875D01*
X159885Y187819D01*
X159828Y187765D01*
X159767Y187714D01*
X159704Y187666D01*
X159639Y187621D01*
X159572Y187579D01*
X159503Y187541D01*
X159432Y187505D01*
X159359Y187474D01*
X159285Y187446D01*
X159210Y187421D01*
X159134Y187401D01*
X159057Y187383D01*
X158979Y187370D01*
X158900Y187361D01*
X158821Y187355D01*
X158742Y187353D01*
X157105Y187353D01*
X174371Y188990D02*
X176417Y190627D01*
X176417Y183261D01*
X174371Y183261D02*
X178463Y183261D01*
X181686Y184898D02*
X183323Y190627D01*
X181686Y184898D02*
X185778Y184898D01*
X184551Y186535D02*
X184551Y183261D01*
X202022Y190628D02*
X202107Y190626D01*
X202192Y190620D01*
X202276Y190610D01*
X202360Y190597D01*
X202444Y190579D01*
X202526Y190558D01*
X202607Y190533D01*
X202687Y190504D01*
X202766Y190471D01*
X202843Y190435D01*
X202918Y190395D01*
X202992Y190352D01*
X203063Y190306D01*
X203132Y190256D01*
X203199Y190203D01*
X203263Y190147D01*
X203324Y190088D01*
X203383Y190027D01*
X203439Y189963D01*
X203492Y189896D01*
X203542Y189827D01*
X203588Y189756D01*
X203631Y189682D01*
X203671Y189607D01*
X203707Y189530D01*
X203740Y189451D01*
X203769Y189371D01*
X203794Y189290D01*
X203815Y189208D01*
X203833Y189124D01*
X203846Y189040D01*
X203856Y188956D01*
X203862Y188871D01*
X203864Y188786D01*
X202022Y190627D02*
X201926Y190625D01*
X201830Y190619D01*
X201735Y190609D01*
X201640Y190596D01*
X201545Y190578D01*
X201452Y190557D01*
X201359Y190532D01*
X201268Y190503D01*
X201177Y190471D01*
X201088Y190435D01*
X201001Y190395D01*
X200915Y190352D01*
X200831Y190306D01*
X200749Y190256D01*
X200669Y190202D01*
X200592Y190146D01*
X200517Y190086D01*
X200444Y190024D01*
X200374Y189958D01*
X200306Y189890D01*
X200241Y189819D01*
X200180Y189746D01*
X200121Y189670D01*
X200065Y189591D01*
X200013Y189511D01*
X199964Y189428D01*
X199918Y189344D01*
X199876Y189258D01*
X199838Y189170D01*
X199803Y189081D01*
X199771Y188990D01*
X203249Y187354D02*
X203309Y187413D01*
X203366Y187475D01*
X203421Y187539D01*
X203472Y187606D01*
X203521Y187675D01*
X203567Y187745D01*
X203610Y187818D01*
X203650Y187892D01*
X203686Y187968D01*
X203719Y188046D01*
X203749Y188125D01*
X203776Y188205D01*
X203799Y188286D01*
X203818Y188368D01*
X203834Y188450D01*
X203847Y188534D01*
X203856Y188618D01*
X203861Y188702D01*
X203863Y188786D01*
X203249Y187353D02*
X199771Y183261D01*
X203863Y183261D01*
X207086Y188990D02*
X209132Y190627D01*
X209132Y183261D01*
X207086Y183261D02*
X211178Y183261D01*
X250571Y183261D02*
X253026Y183261D01*
X253104Y183263D01*
X253182Y183268D01*
X253259Y183278D01*
X253336Y183291D01*
X253412Y183307D01*
X253487Y183327D01*
X253561Y183351D01*
X253634Y183378D01*
X253706Y183409D01*
X253776Y183443D01*
X253845Y183480D01*
X253911Y183521D01*
X253976Y183565D01*
X254038Y183611D01*
X254098Y183661D01*
X254156Y183713D01*
X254211Y183768D01*
X254263Y183826D01*
X254313Y183886D01*
X254359Y183948D01*
X254403Y184013D01*
X254444Y184080D01*
X254481Y184148D01*
X254515Y184218D01*
X254546Y184290D01*
X254573Y184363D01*
X254597Y184437D01*
X254617Y184512D01*
X254633Y184588D01*
X254646Y184665D01*
X254656Y184742D01*
X254661Y184820D01*
X254663Y184898D01*
X254663Y185716D01*
X254661Y185794D01*
X254656Y185872D01*
X254646Y185949D01*
X254633Y186026D01*
X254617Y186102D01*
X254597Y186177D01*
X254573Y186251D01*
X254546Y186324D01*
X254515Y186396D01*
X254481Y186466D01*
X254444Y186535D01*
X254403Y186601D01*
X254359Y186666D01*
X254313Y186728D01*
X254263Y186788D01*
X254211Y186846D01*
X254156Y186901D01*
X254098Y186953D01*
X254038Y187003D01*
X253976Y187049D01*
X253911Y187093D01*
X253845Y187134D01*
X253776Y187171D01*
X253706Y187205D01*
X253634Y187236D01*
X253561Y187263D01*
X253487Y187287D01*
X253412Y187307D01*
X253336Y187323D01*
X253259Y187336D01*
X253182Y187346D01*
X253104Y187351D01*
X253026Y187353D01*
X250571Y187353D01*
X250571Y190627D01*
X254663Y190627D01*
X257477Y190627D02*
X259932Y183261D01*
X262388Y190627D01*
X222913Y230533D02*
X221686Y230533D01*
X222913Y230533D02*
X222913Y226441D01*
X220458Y226441D01*
X220380Y226443D01*
X220302Y226448D01*
X220225Y226458D01*
X220148Y226471D01*
X220072Y226487D01*
X219997Y226507D01*
X219923Y226531D01*
X219850Y226558D01*
X219778Y226589D01*
X219708Y226623D01*
X219640Y226660D01*
X219573Y226701D01*
X219508Y226745D01*
X219446Y226791D01*
X219386Y226841D01*
X219328Y226893D01*
X219273Y226948D01*
X219221Y227006D01*
X219171Y227066D01*
X219125Y227128D01*
X219081Y227193D01*
X219040Y227260D01*
X219003Y227328D01*
X218969Y227398D01*
X218938Y227470D01*
X218911Y227543D01*
X218887Y227617D01*
X218867Y227692D01*
X218851Y227768D01*
X218838Y227845D01*
X218828Y227922D01*
X218823Y228000D01*
X218821Y228078D01*
X218821Y232170D01*
X218823Y232250D01*
X218829Y232330D01*
X218839Y232410D01*
X218852Y232489D01*
X218870Y232568D01*
X218891Y232645D01*
X218917Y232721D01*
X218946Y232796D01*
X218978Y232870D01*
X219014Y232942D01*
X219054Y233012D01*
X219097Y233079D01*
X219143Y233145D01*
X219193Y233208D01*
X219245Y233269D01*
X219300Y233328D01*
X219359Y233383D01*
X219419Y233435D01*
X219483Y233485D01*
X219549Y233531D01*
X219616Y233574D01*
X219686Y233614D01*
X219758Y233650D01*
X219832Y233682D01*
X219906Y233711D01*
X219983Y233737D01*
X220060Y233758D01*
X220139Y233776D01*
X220218Y233789D01*
X220298Y233799D01*
X220378Y233805D01*
X220458Y233807D01*
X222913Y233807D01*
X226624Y233807D02*
X226624Y226441D01*
X230716Y226441D02*
X226624Y233807D01*
X230716Y233807D02*
X230716Y226441D01*
X234427Y226441D02*
X234427Y233807D01*
X236473Y233807D01*
X236562Y233805D01*
X236651Y233799D01*
X236740Y233789D01*
X236828Y233776D01*
X236916Y233759D01*
X237003Y233737D01*
X237088Y233712D01*
X237173Y233684D01*
X237256Y233651D01*
X237338Y233615D01*
X237418Y233576D01*
X237496Y233533D01*
X237572Y233487D01*
X237647Y233437D01*
X237719Y233384D01*
X237788Y233328D01*
X237855Y233269D01*
X237920Y233208D01*
X237981Y233143D01*
X238040Y233076D01*
X238096Y233007D01*
X238149Y232935D01*
X238199Y232860D01*
X238245Y232784D01*
X238288Y232706D01*
X238327Y232626D01*
X238363Y232544D01*
X238396Y232461D01*
X238424Y232376D01*
X238449Y232291D01*
X238471Y232204D01*
X238488Y232116D01*
X238501Y232028D01*
X238511Y231939D01*
X238517Y231850D01*
X238519Y231761D01*
X238519Y228487D01*
X238517Y228398D01*
X238511Y228309D01*
X238501Y228220D01*
X238488Y228132D01*
X238471Y228044D01*
X238449Y227957D01*
X238424Y227872D01*
X238396Y227787D01*
X238363Y227704D01*
X238327Y227622D01*
X238288Y227542D01*
X238245Y227464D01*
X238199Y227388D01*
X238149Y227313D01*
X238096Y227241D01*
X238040Y227172D01*
X237981Y227105D01*
X237920Y227040D01*
X237855Y226979D01*
X237788Y226920D01*
X237719Y226864D01*
X237647Y226811D01*
X237572Y226761D01*
X237496Y226715D01*
X237418Y226672D01*
X237338Y226633D01*
X237256Y226597D01*
X237173Y226564D01*
X237088Y226536D01*
X237003Y226511D01*
X236916Y226489D01*
X236828Y226472D01*
X236740Y226459D01*
X236651Y226449D01*
X236562Y226443D01*
X236473Y226441D01*
X234427Y226441D01*
D11*
X210693Y65320D02*
X210693Y64474D01*
X210691Y64416D01*
X210685Y64359D01*
X210675Y64302D01*
X210662Y64245D01*
X210644Y64190D01*
X210623Y64137D01*
X210598Y64084D01*
X210570Y64034D01*
X210538Y63986D01*
X210503Y63939D01*
X210465Y63896D01*
X210424Y63855D01*
X210381Y63817D01*
X210334Y63782D01*
X210286Y63750D01*
X210236Y63722D01*
X210183Y63697D01*
X210130Y63676D01*
X210075Y63658D01*
X210018Y63645D01*
X209961Y63635D01*
X209904Y63629D01*
X209846Y63627D01*
X207730Y63627D01*
X207672Y63629D01*
X207615Y63635D01*
X207558Y63645D01*
X207501Y63658D01*
X207446Y63676D01*
X207393Y63697D01*
X207340Y63722D01*
X207290Y63750D01*
X207242Y63782D01*
X207195Y63817D01*
X207152Y63855D01*
X207111Y63896D01*
X207073Y63939D01*
X207038Y63986D01*
X207006Y64034D01*
X206978Y64084D01*
X206953Y64137D01*
X206932Y64190D01*
X206914Y64245D01*
X206901Y64302D01*
X206891Y64359D01*
X206885Y64416D01*
X206883Y64474D01*
X206883Y65320D01*
X207730Y66684D02*
X206883Y67743D01*
X210693Y67743D01*
X210693Y68801D02*
X210693Y66684D01*
X248793Y62780D02*
X248793Y61934D01*
X248791Y61876D01*
X248785Y61819D01*
X248775Y61762D01*
X248762Y61705D01*
X248744Y61650D01*
X248723Y61597D01*
X248698Y61544D01*
X248670Y61494D01*
X248638Y61446D01*
X248603Y61399D01*
X248565Y61356D01*
X248524Y61315D01*
X248481Y61277D01*
X248434Y61242D01*
X248386Y61210D01*
X248336Y61182D01*
X248283Y61157D01*
X248230Y61136D01*
X248175Y61118D01*
X248118Y61105D01*
X248061Y61095D01*
X248004Y61089D01*
X247946Y61087D01*
X245830Y61087D01*
X245772Y61089D01*
X245715Y61095D01*
X245658Y61105D01*
X245601Y61118D01*
X245546Y61136D01*
X245493Y61157D01*
X245440Y61182D01*
X245390Y61210D01*
X245342Y61242D01*
X245295Y61277D01*
X245252Y61315D01*
X245211Y61356D01*
X245173Y61399D01*
X245138Y61446D01*
X245106Y61494D01*
X245078Y61544D01*
X245053Y61597D01*
X245032Y61650D01*
X245014Y61705D01*
X245001Y61762D01*
X244991Y61819D01*
X244985Y61876D01*
X244983Y61934D01*
X244983Y62780D01*
X244983Y65309D02*
X244985Y65369D01*
X244991Y65428D01*
X245000Y65488D01*
X245013Y65546D01*
X245030Y65603D01*
X245050Y65660D01*
X245074Y65715D01*
X245101Y65768D01*
X245131Y65820D01*
X245165Y65869D01*
X245202Y65916D01*
X245241Y65961D01*
X245284Y66004D01*
X245329Y66043D01*
X245376Y66080D01*
X245425Y66114D01*
X245477Y66144D01*
X245530Y66171D01*
X245585Y66195D01*
X245642Y66215D01*
X245699Y66232D01*
X245757Y66245D01*
X245817Y66254D01*
X245876Y66260D01*
X245936Y66262D01*
X244983Y65309D02*
X244985Y65242D01*
X244990Y65175D01*
X244999Y65109D01*
X245012Y65043D01*
X245028Y64979D01*
X245048Y64915D01*
X245072Y64852D01*
X245098Y64790D01*
X245128Y64731D01*
X245161Y64673D01*
X245198Y64616D01*
X245237Y64562D01*
X245279Y64510D01*
X245324Y64461D01*
X245372Y64414D01*
X245422Y64370D01*
X245475Y64328D01*
X245530Y64290D01*
X245586Y64254D01*
X245645Y64222D01*
X245705Y64193D01*
X245767Y64167D01*
X245830Y64145D01*
X246677Y65943D02*
X246635Y65985D01*
X246590Y66024D01*
X246544Y66061D01*
X246495Y66095D01*
X246445Y66125D01*
X246393Y66153D01*
X246339Y66178D01*
X246284Y66200D01*
X246228Y66219D01*
X246171Y66234D01*
X246113Y66246D01*
X246054Y66254D01*
X245995Y66259D01*
X245936Y66261D01*
X246676Y65944D02*
X248793Y64144D01*
X248793Y66261D01*
X50673Y134324D02*
X50673Y135170D01*
X50673Y134324D02*
X50671Y134266D01*
X50665Y134209D01*
X50655Y134152D01*
X50642Y134095D01*
X50624Y134040D01*
X50603Y133987D01*
X50578Y133934D01*
X50550Y133884D01*
X50518Y133836D01*
X50483Y133789D01*
X50445Y133746D01*
X50404Y133705D01*
X50361Y133667D01*
X50314Y133632D01*
X50266Y133600D01*
X50216Y133572D01*
X50163Y133547D01*
X50110Y133526D01*
X50055Y133508D01*
X49998Y133495D01*
X49941Y133485D01*
X49884Y133479D01*
X49826Y133477D01*
X47710Y133477D01*
X47652Y133479D01*
X47595Y133485D01*
X47538Y133495D01*
X47481Y133508D01*
X47426Y133526D01*
X47373Y133547D01*
X47320Y133572D01*
X47270Y133600D01*
X47222Y133632D01*
X47175Y133667D01*
X47132Y133705D01*
X47091Y133746D01*
X47053Y133789D01*
X47018Y133836D01*
X46986Y133884D01*
X46958Y133934D01*
X46933Y133987D01*
X46912Y134040D01*
X46894Y134095D01*
X46881Y134152D01*
X46871Y134209D01*
X46865Y134266D01*
X46863Y134324D01*
X46863Y135170D01*
X50673Y136534D02*
X50673Y137593D01*
X50671Y137657D01*
X50665Y137721D01*
X50656Y137784D01*
X50642Y137846D01*
X50625Y137908D01*
X50604Y137968D01*
X50580Y138027D01*
X50552Y138085D01*
X50520Y138140D01*
X50486Y138194D01*
X50448Y138245D01*
X50407Y138295D01*
X50363Y138341D01*
X50317Y138385D01*
X50267Y138426D01*
X50216Y138464D01*
X50162Y138498D01*
X50107Y138530D01*
X50049Y138558D01*
X49990Y138582D01*
X49930Y138603D01*
X49868Y138620D01*
X49806Y138634D01*
X49743Y138643D01*
X49679Y138649D01*
X49615Y138651D01*
X49551Y138649D01*
X49487Y138643D01*
X49424Y138634D01*
X49362Y138620D01*
X49300Y138603D01*
X49240Y138582D01*
X49181Y138558D01*
X49123Y138530D01*
X49068Y138498D01*
X49014Y138464D01*
X48963Y138426D01*
X48913Y138385D01*
X48867Y138341D01*
X48823Y138295D01*
X48782Y138245D01*
X48744Y138194D01*
X48710Y138140D01*
X48678Y138085D01*
X48650Y138027D01*
X48626Y137968D01*
X48605Y137908D01*
X48588Y137846D01*
X48574Y137784D01*
X48565Y137721D01*
X48559Y137657D01*
X48557Y137593D01*
X46863Y137804D02*
X46863Y136534D01*
X46863Y137804D02*
X46865Y137861D01*
X46871Y137917D01*
X46880Y137973D01*
X46893Y138028D01*
X46910Y138082D01*
X46930Y138135D01*
X46954Y138186D01*
X46981Y138236D01*
X47012Y138283D01*
X47045Y138329D01*
X47082Y138372D01*
X47121Y138413D01*
X47163Y138451D01*
X47208Y138486D01*
X47254Y138518D01*
X47303Y138547D01*
X47353Y138572D01*
X47406Y138594D01*
X47459Y138613D01*
X47514Y138628D01*
X47569Y138639D01*
X47625Y138647D01*
X47682Y138651D01*
X47738Y138651D01*
X47795Y138647D01*
X47851Y138639D01*
X47906Y138628D01*
X47961Y138613D01*
X48014Y138594D01*
X48067Y138572D01*
X48117Y138547D01*
X48166Y138518D01*
X48212Y138486D01*
X48257Y138451D01*
X48299Y138413D01*
X48338Y138372D01*
X48375Y138329D01*
X48408Y138283D01*
X48439Y138236D01*
X48466Y138186D01*
X48490Y138135D01*
X48510Y138082D01*
X48527Y138028D01*
X48540Y137973D01*
X48549Y137917D01*
X48555Y137861D01*
X48557Y137804D01*
X48556Y137804D02*
X48556Y136958D01*
X172593Y65320D02*
X172593Y64474D01*
X172591Y64416D01*
X172585Y64359D01*
X172575Y64302D01*
X172562Y64245D01*
X172544Y64190D01*
X172523Y64137D01*
X172498Y64084D01*
X172470Y64034D01*
X172438Y63986D01*
X172403Y63939D01*
X172365Y63896D01*
X172324Y63855D01*
X172281Y63817D01*
X172234Y63782D01*
X172186Y63750D01*
X172136Y63722D01*
X172083Y63697D01*
X172030Y63676D01*
X171975Y63658D01*
X171918Y63645D01*
X171861Y63635D01*
X171804Y63629D01*
X171746Y63627D01*
X169630Y63627D01*
X169572Y63629D01*
X169515Y63635D01*
X169458Y63645D01*
X169401Y63658D01*
X169346Y63676D01*
X169293Y63697D01*
X169240Y63722D01*
X169190Y63750D01*
X169142Y63782D01*
X169095Y63817D01*
X169052Y63855D01*
X169011Y63896D01*
X168973Y63939D01*
X168938Y63986D01*
X168906Y64034D01*
X168878Y64084D01*
X168853Y64137D01*
X168832Y64190D01*
X168814Y64245D01*
X168801Y64302D01*
X168791Y64359D01*
X168785Y64416D01*
X168783Y64474D01*
X168783Y65320D01*
X168783Y67531D02*
X171746Y66684D01*
X171746Y68801D01*
X170900Y68166D02*
X172593Y68166D01*
X128820Y127127D02*
X127974Y127127D01*
X127919Y127129D01*
X127863Y127134D01*
X127809Y127143D01*
X127755Y127156D01*
X127702Y127172D01*
X127650Y127191D01*
X127599Y127214D01*
X127551Y127240D01*
X127503Y127270D01*
X127458Y127302D01*
X127416Y127337D01*
X127375Y127375D01*
X127337Y127416D01*
X127302Y127458D01*
X127270Y127503D01*
X127240Y127551D01*
X127214Y127599D01*
X127191Y127650D01*
X127172Y127702D01*
X127156Y127755D01*
X127143Y127809D01*
X127134Y127863D01*
X127129Y127919D01*
X127127Y127974D01*
X127127Y130090D01*
X127129Y130148D01*
X127135Y130205D01*
X127145Y130262D01*
X127158Y130319D01*
X127176Y130374D01*
X127197Y130427D01*
X127222Y130480D01*
X127250Y130530D01*
X127282Y130578D01*
X127317Y130625D01*
X127355Y130668D01*
X127396Y130709D01*
X127439Y130747D01*
X127486Y130782D01*
X127534Y130814D01*
X127584Y130842D01*
X127637Y130867D01*
X127690Y130888D01*
X127745Y130906D01*
X127802Y130919D01*
X127859Y130929D01*
X127916Y130935D01*
X127974Y130937D01*
X128820Y130937D01*
X130184Y127127D02*
X131454Y127127D01*
X131509Y127129D01*
X131565Y127134D01*
X131619Y127143D01*
X131673Y127156D01*
X131726Y127172D01*
X131778Y127191D01*
X131829Y127214D01*
X131878Y127240D01*
X131925Y127270D01*
X131970Y127302D01*
X132012Y127337D01*
X132053Y127375D01*
X132091Y127416D01*
X132126Y127458D01*
X132158Y127503D01*
X132188Y127551D01*
X132214Y127599D01*
X132237Y127650D01*
X132256Y127702D01*
X132272Y127755D01*
X132285Y127809D01*
X132294Y127863D01*
X132299Y127919D01*
X132301Y127974D01*
X132301Y128397D01*
X132299Y128452D01*
X132294Y128508D01*
X132285Y128562D01*
X132272Y128616D01*
X132256Y128669D01*
X132237Y128721D01*
X132214Y128772D01*
X132188Y128821D01*
X132158Y128868D01*
X132126Y128913D01*
X132091Y128955D01*
X132053Y128996D01*
X132012Y129034D01*
X131970Y129069D01*
X131925Y129101D01*
X131878Y129131D01*
X131829Y129157D01*
X131778Y129180D01*
X131726Y129199D01*
X131673Y129215D01*
X131619Y129228D01*
X131565Y129237D01*
X131509Y129242D01*
X131454Y129244D01*
X130184Y129244D01*
X130184Y130937D01*
X132301Y130937D01*
X114173Y140674D02*
X114173Y141520D01*
X114173Y140674D02*
X114171Y140616D01*
X114165Y140559D01*
X114155Y140502D01*
X114142Y140445D01*
X114124Y140390D01*
X114103Y140337D01*
X114078Y140284D01*
X114050Y140234D01*
X114018Y140186D01*
X113983Y140139D01*
X113945Y140096D01*
X113904Y140055D01*
X113861Y140017D01*
X113814Y139982D01*
X113766Y139950D01*
X113716Y139922D01*
X113663Y139897D01*
X113610Y139876D01*
X113555Y139858D01*
X113498Y139845D01*
X113441Y139835D01*
X113384Y139829D01*
X113326Y139827D01*
X111210Y139827D01*
X111152Y139829D01*
X111095Y139835D01*
X111038Y139845D01*
X110981Y139858D01*
X110926Y139876D01*
X110873Y139897D01*
X110820Y139922D01*
X110770Y139950D01*
X110722Y139982D01*
X110675Y140017D01*
X110632Y140055D01*
X110591Y140096D01*
X110553Y140139D01*
X110518Y140186D01*
X110486Y140234D01*
X110458Y140284D01*
X110433Y140337D01*
X110412Y140390D01*
X110394Y140445D01*
X110381Y140502D01*
X110371Y140559D01*
X110365Y140616D01*
X110363Y140674D01*
X110363Y141520D01*
X112056Y142884D02*
X112056Y144154D01*
X112058Y144209D01*
X112063Y144265D01*
X112072Y144319D01*
X112085Y144373D01*
X112101Y144426D01*
X112120Y144478D01*
X112143Y144529D01*
X112169Y144578D01*
X112199Y144625D01*
X112231Y144670D01*
X112266Y144712D01*
X112304Y144753D01*
X112345Y144791D01*
X112387Y144826D01*
X112432Y144858D01*
X112480Y144888D01*
X112528Y144914D01*
X112579Y144937D01*
X112631Y144956D01*
X112684Y144972D01*
X112738Y144985D01*
X112792Y144994D01*
X112848Y144999D01*
X112903Y145001D01*
X113115Y145001D01*
X113179Y144999D01*
X113243Y144993D01*
X113306Y144984D01*
X113368Y144970D01*
X113430Y144953D01*
X113490Y144932D01*
X113549Y144908D01*
X113607Y144880D01*
X113662Y144848D01*
X113716Y144814D01*
X113767Y144776D01*
X113817Y144735D01*
X113863Y144691D01*
X113907Y144645D01*
X113948Y144595D01*
X113986Y144544D01*
X114020Y144490D01*
X114052Y144435D01*
X114080Y144377D01*
X114104Y144318D01*
X114125Y144258D01*
X114142Y144196D01*
X114156Y144134D01*
X114165Y144071D01*
X114171Y144007D01*
X114173Y143943D01*
X114171Y143879D01*
X114165Y143815D01*
X114156Y143752D01*
X114142Y143690D01*
X114125Y143628D01*
X114104Y143568D01*
X114080Y143509D01*
X114052Y143451D01*
X114020Y143396D01*
X113986Y143342D01*
X113948Y143291D01*
X113907Y143241D01*
X113863Y143195D01*
X113817Y143151D01*
X113767Y143110D01*
X113716Y143072D01*
X113662Y143038D01*
X113607Y143006D01*
X113549Y142978D01*
X113490Y142954D01*
X113430Y142933D01*
X113368Y142916D01*
X113306Y142902D01*
X113243Y142893D01*
X113179Y142887D01*
X113115Y142885D01*
X113115Y142884D02*
X112056Y142884D01*
X112056Y142885D02*
X111975Y142887D01*
X111895Y142893D01*
X111815Y142902D01*
X111736Y142916D01*
X111657Y142933D01*
X111579Y142954D01*
X111502Y142978D01*
X111427Y143006D01*
X111353Y143038D01*
X111280Y143073D01*
X111210Y143112D01*
X111141Y143154D01*
X111074Y143199D01*
X111009Y143247D01*
X110947Y143298D01*
X110888Y143353D01*
X110831Y143410D01*
X110777Y143469D01*
X110725Y143531D01*
X110677Y143596D01*
X110632Y143663D01*
X110590Y143731D01*
X110551Y143802D01*
X110516Y143875D01*
X110484Y143949D01*
X110456Y144024D01*
X110432Y144101D01*
X110411Y144179D01*
X110394Y144258D01*
X110380Y144337D01*
X110371Y144417D01*
X110365Y144497D01*
X110363Y144578D01*
X152273Y167344D02*
X152273Y168190D01*
X152273Y167344D02*
X152271Y167286D01*
X152265Y167229D01*
X152255Y167172D01*
X152242Y167115D01*
X152224Y167060D01*
X152203Y167007D01*
X152178Y166954D01*
X152150Y166904D01*
X152118Y166856D01*
X152083Y166809D01*
X152045Y166766D01*
X152004Y166725D01*
X151961Y166687D01*
X151914Y166652D01*
X151866Y166620D01*
X151816Y166592D01*
X151763Y166567D01*
X151710Y166546D01*
X151655Y166528D01*
X151598Y166515D01*
X151541Y166505D01*
X151484Y166499D01*
X151426Y166497D01*
X149310Y166497D01*
X149252Y166499D01*
X149195Y166505D01*
X149138Y166515D01*
X149081Y166528D01*
X149026Y166546D01*
X148973Y166567D01*
X148920Y166592D01*
X148870Y166620D01*
X148822Y166652D01*
X148775Y166687D01*
X148732Y166725D01*
X148691Y166766D01*
X148653Y166809D01*
X148618Y166856D01*
X148586Y166904D01*
X148558Y166954D01*
X148533Y167007D01*
X148512Y167060D01*
X148494Y167115D01*
X148481Y167172D01*
X148471Y167229D01*
X148465Y167286D01*
X148463Y167344D01*
X148463Y168190D01*
X148463Y169554D02*
X148886Y169554D01*
X148463Y169554D02*
X148463Y171671D01*
X152273Y170613D01*
D12*
X255100Y447600D02*
X255100Y451600D01*
X75100Y451600D01*
X75100Y447600D01*
X75100Y267600D02*
X75100Y259600D01*
X87100Y259600D01*
X255100Y259600D02*
X255100Y267600D01*
X255100Y259600D02*
X243100Y259600D01*
D13*
X65100Y439700D03*
D14*
X65098Y439744D01*
X65092Y439787D01*
X65083Y439829D01*
X65070Y439871D01*
X65053Y439911D01*
X65033Y439950D01*
X65010Y439987D01*
X64983Y440021D01*
X64954Y440054D01*
X64921Y440083D01*
X64887Y440110D01*
X64850Y440133D01*
X64811Y440153D01*
X64771Y440170D01*
X64729Y440183D01*
X64687Y440192D01*
X64644Y440198D01*
X64600Y440200D01*
X64556Y440198D01*
X64513Y440192D01*
X64471Y440183D01*
X64429Y440170D01*
X64389Y440153D01*
X64350Y440133D01*
X64313Y440110D01*
X64279Y440083D01*
X64246Y440054D01*
X64217Y440021D01*
X64190Y439987D01*
X64167Y439950D01*
X64147Y439911D01*
X64130Y439871D01*
X64117Y439829D01*
X64108Y439787D01*
X64102Y439744D01*
X64100Y439700D01*
D13*
X64100Y439700D03*
D14*
X64102Y439656D01*
X64108Y439613D01*
X64117Y439571D01*
X64130Y439529D01*
X64147Y439489D01*
X64167Y439450D01*
X64190Y439413D01*
X64217Y439379D01*
X64246Y439346D01*
X64279Y439317D01*
X64313Y439290D01*
X64350Y439267D01*
X64389Y439247D01*
X64429Y439230D01*
X64471Y439217D01*
X64513Y439208D01*
X64556Y439202D01*
X64600Y439200D01*
X64644Y439202D01*
X64687Y439208D01*
X64729Y439217D01*
X64771Y439230D01*
X64811Y439247D01*
X64850Y439267D01*
X64887Y439290D01*
X64921Y439317D01*
X64954Y439346D01*
X64983Y439379D01*
X65010Y439413D01*
X65033Y439450D01*
X65053Y439489D01*
X65070Y439529D01*
X65083Y439571D01*
X65092Y439613D01*
X65098Y439656D01*
X65100Y439700D01*
D15*
X186385Y337606D02*
X186385Y333034D01*
X185877Y333034D02*
X186893Y333034D01*
X186893Y337606D02*
X185877Y337606D01*
X189774Y333034D02*
X190790Y333034D01*
X189774Y333034D02*
X189713Y333036D01*
X189652Y333041D01*
X189591Y333051D01*
X189531Y333064D01*
X189472Y333080D01*
X189414Y333100D01*
X189357Y333124D01*
X189302Y333150D01*
X189248Y333181D01*
X189197Y333214D01*
X189147Y333250D01*
X189100Y333290D01*
X189056Y333332D01*
X189014Y333376D01*
X188974Y333423D01*
X188938Y333473D01*
X188905Y333524D01*
X188874Y333578D01*
X188848Y333633D01*
X188824Y333690D01*
X188804Y333748D01*
X188788Y333807D01*
X188775Y333867D01*
X188765Y333928D01*
X188760Y333989D01*
X188758Y334050D01*
X188758Y336590D01*
X188760Y336651D01*
X188765Y336712D01*
X188775Y336773D01*
X188788Y336833D01*
X188804Y336892D01*
X188824Y336950D01*
X188848Y337007D01*
X188874Y337062D01*
X188905Y337116D01*
X188938Y337167D01*
X188974Y337217D01*
X189014Y337264D01*
X189056Y337308D01*
X189100Y337350D01*
X189147Y337390D01*
X189197Y337426D01*
X189248Y337459D01*
X189302Y337490D01*
X189357Y337516D01*
X189414Y337540D01*
X189472Y337560D01*
X189531Y337576D01*
X189591Y337589D01*
X189652Y337599D01*
X189713Y337604D01*
X189774Y337606D01*
X190790Y337606D01*
X192583Y336590D02*
X193853Y337606D01*
X193853Y333034D01*
X192583Y333034D02*
X195123Y333034D01*
D12*
X211100Y107200D02*
X246100Y107200D01*
X211100Y107200D02*
X211100Y172200D01*
X246100Y172200D01*
X246100Y107200D01*
X251350Y108450D02*
X268850Y108450D01*
D11*
X193545Y109855D02*
X193545Y113665D01*
X193122Y109855D02*
X193969Y109855D01*
X193969Y113665D02*
X193122Y113665D01*
X196250Y109855D02*
X197097Y109855D01*
X196250Y109855D02*
X196195Y109857D01*
X196139Y109862D01*
X196085Y109871D01*
X196031Y109884D01*
X195978Y109900D01*
X195926Y109919D01*
X195875Y109942D01*
X195827Y109968D01*
X195779Y109998D01*
X195734Y110030D01*
X195692Y110065D01*
X195651Y110103D01*
X195613Y110144D01*
X195578Y110186D01*
X195546Y110231D01*
X195516Y110279D01*
X195490Y110327D01*
X195467Y110378D01*
X195448Y110430D01*
X195432Y110483D01*
X195419Y110537D01*
X195410Y110591D01*
X195405Y110647D01*
X195403Y110702D01*
X195404Y110702D02*
X195404Y112818D01*
X195403Y112818D02*
X195405Y112876D01*
X195411Y112933D01*
X195421Y112990D01*
X195434Y113047D01*
X195452Y113102D01*
X195473Y113155D01*
X195498Y113208D01*
X195526Y113258D01*
X195558Y113306D01*
X195593Y113353D01*
X195631Y113396D01*
X195672Y113437D01*
X195715Y113475D01*
X195762Y113510D01*
X195810Y113542D01*
X195860Y113570D01*
X195913Y113595D01*
X195966Y113616D01*
X196021Y113634D01*
X196078Y113647D01*
X196135Y113657D01*
X196192Y113663D01*
X196250Y113665D01*
X197097Y113665D01*
X199625Y113666D02*
X199685Y113664D01*
X199744Y113658D01*
X199804Y113649D01*
X199862Y113636D01*
X199919Y113619D01*
X199976Y113599D01*
X200031Y113575D01*
X200084Y113548D01*
X200136Y113518D01*
X200185Y113484D01*
X200232Y113447D01*
X200277Y113408D01*
X200320Y113365D01*
X200359Y113320D01*
X200396Y113273D01*
X200430Y113224D01*
X200460Y113172D01*
X200487Y113119D01*
X200511Y113064D01*
X200531Y113007D01*
X200548Y112950D01*
X200561Y112892D01*
X200570Y112832D01*
X200576Y112773D01*
X200578Y112713D01*
X199625Y113665D02*
X199558Y113663D01*
X199491Y113658D01*
X199425Y113649D01*
X199359Y113636D01*
X199295Y113620D01*
X199231Y113600D01*
X199168Y113576D01*
X199106Y113550D01*
X199047Y113520D01*
X198989Y113487D01*
X198932Y113450D01*
X198878Y113411D01*
X198826Y113369D01*
X198777Y113324D01*
X198730Y113276D01*
X198686Y113226D01*
X198644Y113173D01*
X198606Y113118D01*
X198570Y113062D01*
X198538Y113003D01*
X198509Y112943D01*
X198483Y112881D01*
X198461Y112818D01*
X200261Y111972D02*
X200302Y112014D01*
X200341Y112059D01*
X200378Y112105D01*
X200412Y112154D01*
X200443Y112204D01*
X200470Y112256D01*
X200495Y112310D01*
X200517Y112365D01*
X200536Y112421D01*
X200551Y112478D01*
X200563Y112536D01*
X200571Y112595D01*
X200576Y112654D01*
X200578Y112713D01*
X200260Y111972D02*
X198461Y109855D01*
X200578Y109855D01*
D16*
X38100Y107950D02*
X31750Y114300D01*
X38100Y107950D02*
X38100Y95250D01*
X31750Y88900D01*
X19050Y88900D01*
X12700Y95250D01*
X12700Y107950D01*
X19050Y114300D01*
X38100Y146050D02*
X38100Y158750D01*
X38100Y146050D02*
X31750Y139700D01*
X19050Y139700D01*
X12700Y146050D01*
X31750Y139700D02*
X38100Y133350D01*
X38100Y120650D01*
X31750Y114300D01*
X19050Y114300D01*
X12700Y120650D01*
X12700Y133350D01*
X19050Y139700D01*
X38100Y184150D02*
X31750Y190500D01*
X38100Y184150D02*
X38100Y171450D01*
X31750Y165100D01*
X19050Y165100D01*
X12700Y171450D01*
X12700Y184150D01*
X19050Y190500D01*
X31750Y165100D02*
X38100Y158750D01*
X19050Y165100D02*
X12700Y158750D01*
X12700Y146050D01*
X38100Y222250D02*
X38100Y234950D01*
X38100Y222250D02*
X31750Y215900D01*
X19050Y215900D01*
X12700Y222250D01*
X31750Y215900D02*
X38100Y209550D01*
X38100Y196850D01*
X31750Y190500D01*
X19050Y190500D01*
X12700Y196850D01*
X12700Y209550D01*
X19050Y215900D01*
X38100Y260350D02*
X31750Y266700D01*
X38100Y260350D02*
X38100Y247650D01*
X31750Y241300D01*
X19050Y241300D01*
X12700Y247650D01*
X12700Y260350D01*
X19050Y266700D01*
X31750Y241300D02*
X38100Y234950D01*
X19050Y241300D02*
X12700Y234950D01*
X12700Y222250D01*
X38100Y298450D02*
X38100Y311150D01*
X38100Y298450D02*
X31750Y292100D01*
X19050Y292100D01*
X12700Y298450D01*
X31750Y292100D02*
X38100Y285750D01*
X38100Y273050D01*
X31750Y266700D01*
X19050Y266700D01*
X12700Y273050D01*
X12700Y285750D01*
X19050Y292100D01*
X38100Y336550D02*
X31750Y342900D01*
X38100Y336550D02*
X38100Y323850D01*
X31750Y317500D01*
X19050Y317500D01*
X12700Y323850D01*
X12700Y336550D01*
X19050Y342900D01*
X31750Y317500D02*
X38100Y311150D01*
X19050Y317500D02*
X12700Y311150D01*
X12700Y298450D01*
X38100Y374650D02*
X38100Y387350D01*
X38100Y374650D02*
X31750Y368300D01*
X19050Y368300D01*
X12700Y374650D01*
X31750Y368300D02*
X38100Y361950D01*
X38100Y349250D01*
X31750Y342900D01*
X19050Y342900D01*
X12700Y349250D01*
X12700Y361950D01*
X19050Y368300D01*
X38100Y412750D02*
X31750Y419100D01*
X38100Y412750D02*
X38100Y400050D01*
X31750Y393700D01*
X19050Y393700D01*
X12700Y400050D01*
X12700Y412750D01*
X19050Y419100D01*
X31750Y393700D02*
X38100Y387350D01*
X19050Y393700D02*
X12700Y387350D01*
X12700Y374650D01*
X38100Y450850D02*
X38100Y463550D01*
X38100Y450850D02*
X31750Y444500D01*
X19050Y444500D01*
X12700Y450850D01*
X31750Y444500D02*
X38100Y438150D01*
X38100Y425450D01*
X31750Y419100D01*
X19050Y419100D01*
X12700Y425450D01*
X12700Y438150D01*
X19050Y444500D01*
X19050Y469900D02*
X31750Y469900D01*
X38100Y463550D01*
X19050Y469900D02*
X12700Y463550D01*
X12700Y450850D01*
X31750Y88900D02*
X38100Y82550D01*
X38100Y69850D01*
X31750Y63500D01*
X19050Y63500D01*
X12700Y69850D01*
X12700Y82550D01*
X19050Y88900D01*
D11*
X23156Y60579D02*
X23156Y58406D01*
X23154Y58357D01*
X23148Y58309D01*
X23139Y58261D01*
X23126Y58214D01*
X23109Y58168D01*
X23088Y58124D01*
X23064Y58082D01*
X23037Y58041D01*
X23007Y58003D01*
X22974Y57967D01*
X22938Y57934D01*
X22900Y57904D01*
X22859Y57877D01*
X22817Y57853D01*
X22773Y57832D01*
X22727Y57815D01*
X22680Y57802D01*
X22632Y57793D01*
X22584Y57787D01*
X22535Y57785D01*
X22225Y57785D01*
X24560Y57785D02*
X24560Y60579D01*
X25336Y60579D01*
X25391Y60577D01*
X25446Y60571D01*
X25501Y60561D01*
X25555Y60548D01*
X25607Y60530D01*
X25658Y60509D01*
X25708Y60484D01*
X25756Y60456D01*
X25801Y60424D01*
X25844Y60389D01*
X25885Y60352D01*
X25922Y60311D01*
X25957Y60268D01*
X25989Y60223D01*
X26017Y60175D01*
X26042Y60125D01*
X26063Y60074D01*
X26081Y60022D01*
X26094Y59968D01*
X26104Y59913D01*
X26110Y59858D01*
X26112Y59803D01*
X26110Y59748D01*
X26104Y59693D01*
X26094Y59638D01*
X26081Y59584D01*
X26063Y59532D01*
X26042Y59481D01*
X26017Y59431D01*
X25989Y59383D01*
X25957Y59338D01*
X25922Y59295D01*
X25885Y59254D01*
X25844Y59217D01*
X25801Y59182D01*
X25756Y59150D01*
X25708Y59122D01*
X25658Y59097D01*
X25607Y59076D01*
X25555Y59058D01*
X25501Y59045D01*
X25446Y59035D01*
X25391Y59029D01*
X25336Y59027D01*
X24560Y59027D01*
X27171Y59958D02*
X27947Y60579D01*
X27947Y57785D01*
X27171Y57785D02*
X28723Y57785D01*
D16*
X224790Y220980D02*
X237490Y220980D01*
X243840Y214630D01*
X243840Y201930D01*
X237490Y195580D01*
X199390Y220980D02*
X193040Y214630D01*
X199390Y220980D02*
X212090Y220980D01*
X218440Y214630D01*
X218440Y201930D01*
X212090Y195580D01*
X199390Y195580D01*
X193040Y201930D01*
X218440Y214630D02*
X224790Y220980D01*
X218440Y201930D02*
X224790Y195580D01*
X237490Y195580D01*
X161290Y220980D02*
X148590Y220980D01*
X161290Y220980D02*
X167640Y214630D01*
X167640Y201930D01*
X161290Y195580D01*
X167640Y214630D02*
X173990Y220980D01*
X186690Y220980D01*
X193040Y214630D01*
X193040Y201930D01*
X186690Y195580D01*
X173990Y195580D01*
X167640Y201930D01*
X123190Y220980D02*
X116840Y214630D01*
X123190Y220980D02*
X135890Y220980D01*
X142240Y214630D01*
X142240Y201930D01*
X135890Y195580D01*
X123190Y195580D01*
X116840Y201930D01*
X142240Y214630D02*
X148590Y220980D01*
X142240Y201930D02*
X148590Y195580D01*
X161290Y195580D01*
X85090Y220980D02*
X72390Y220980D01*
X85090Y220980D02*
X91440Y214630D01*
X91440Y201930D01*
X85090Y195580D01*
X91440Y214630D02*
X97790Y220980D01*
X110490Y220980D01*
X116840Y214630D01*
X116840Y201930D01*
X110490Y195580D01*
X97790Y195580D01*
X91440Y201930D01*
X66040Y201930D02*
X66040Y214630D01*
X72390Y220980D01*
X66040Y201930D02*
X72390Y195580D01*
X85090Y195580D01*
X250190Y220980D02*
X262890Y220980D01*
X269240Y214630D01*
X269240Y201930D01*
X262890Y195580D01*
X243840Y214630D02*
X250190Y220980D01*
X243840Y201930D02*
X250190Y195580D01*
X262890Y195580D01*
D11*
X86656Y174879D02*
X86656Y172706D01*
X86654Y172657D01*
X86648Y172609D01*
X86639Y172561D01*
X86626Y172514D01*
X86609Y172468D01*
X86588Y172424D01*
X86564Y172382D01*
X86537Y172341D01*
X86507Y172303D01*
X86474Y172267D01*
X86438Y172234D01*
X86400Y172204D01*
X86359Y172177D01*
X86317Y172153D01*
X86273Y172132D01*
X86227Y172115D01*
X86180Y172102D01*
X86132Y172093D01*
X86084Y172087D01*
X86035Y172085D01*
X85725Y172085D01*
X88060Y172085D02*
X88060Y174879D01*
X88836Y174879D01*
X88891Y174877D01*
X88946Y174871D01*
X89001Y174861D01*
X89055Y174848D01*
X89107Y174830D01*
X89158Y174809D01*
X89208Y174784D01*
X89256Y174756D01*
X89301Y174724D01*
X89344Y174689D01*
X89385Y174652D01*
X89422Y174611D01*
X89457Y174568D01*
X89489Y174523D01*
X89517Y174475D01*
X89542Y174425D01*
X89563Y174374D01*
X89581Y174322D01*
X89594Y174268D01*
X89604Y174213D01*
X89610Y174158D01*
X89612Y174103D01*
X89610Y174048D01*
X89604Y173993D01*
X89594Y173938D01*
X89581Y173884D01*
X89563Y173832D01*
X89542Y173781D01*
X89517Y173731D01*
X89489Y173683D01*
X89457Y173638D01*
X89422Y173595D01*
X89385Y173554D01*
X89344Y173517D01*
X89301Y173482D01*
X89256Y173450D01*
X89208Y173422D01*
X89158Y173397D01*
X89107Y173376D01*
X89055Y173358D01*
X89001Y173345D01*
X88946Y173335D01*
X88891Y173329D01*
X88836Y173327D01*
X88060Y173327D01*
X91524Y174880D02*
X91574Y174878D01*
X91623Y174873D01*
X91673Y174864D01*
X91721Y174852D01*
X91768Y174836D01*
X91814Y174817D01*
X91859Y174794D01*
X91902Y174769D01*
X91943Y174741D01*
X91982Y174709D01*
X92018Y174675D01*
X92052Y174639D01*
X92084Y174600D01*
X92112Y174559D01*
X92137Y174516D01*
X92160Y174471D01*
X92179Y174425D01*
X92195Y174378D01*
X92207Y174330D01*
X92216Y174280D01*
X92221Y174231D01*
X92223Y174181D01*
X91524Y174879D02*
X91468Y174877D01*
X91411Y174872D01*
X91356Y174863D01*
X91301Y174851D01*
X91247Y174835D01*
X91194Y174816D01*
X91142Y174794D01*
X91092Y174768D01*
X91043Y174739D01*
X90996Y174707D01*
X90952Y174673D01*
X90910Y174636D01*
X90870Y174596D01*
X90832Y174553D01*
X90798Y174509D01*
X90766Y174462D01*
X90738Y174414D01*
X90712Y174363D01*
X90690Y174311D01*
X90671Y174258D01*
X91989Y173638D02*
X92025Y173674D01*
X92058Y173712D01*
X92088Y173753D01*
X92115Y173796D01*
X92140Y173840D01*
X92161Y173886D01*
X92180Y173933D01*
X92195Y173981D01*
X92207Y174030D01*
X92215Y174080D01*
X92220Y174130D01*
X92222Y174181D01*
X91990Y173637D02*
X90671Y172085D01*
X92223Y172085D01*
D16*
X298450Y419100D02*
X292100Y425450D01*
X292100Y438150D01*
X298450Y444500D01*
X311150Y444500D01*
X317500Y438150D01*
X317500Y425450D01*
X311150Y419100D01*
X292100Y387350D02*
X292100Y374650D01*
X292100Y387350D02*
X298450Y393700D01*
X311150Y393700D01*
X317500Y387350D01*
X298450Y393700D02*
X292100Y400050D01*
X292100Y412750D01*
X298450Y419100D01*
X311150Y419100D01*
X317500Y412750D01*
X317500Y400050D01*
X311150Y393700D01*
X292100Y349250D02*
X298450Y342900D01*
X292100Y349250D02*
X292100Y361950D01*
X298450Y368300D01*
X311150Y368300D01*
X317500Y361950D01*
X317500Y349250D01*
X311150Y342900D01*
X298450Y368300D02*
X292100Y374650D01*
X311150Y368300D02*
X317500Y374650D01*
X317500Y387350D01*
X292100Y311150D02*
X292100Y298450D01*
X292100Y311150D02*
X298450Y317500D01*
X311150Y317500D01*
X317500Y311150D01*
X298450Y317500D02*
X292100Y323850D01*
X292100Y336550D01*
X298450Y342900D01*
X311150Y342900D01*
X317500Y336550D01*
X317500Y323850D01*
X311150Y317500D01*
X292100Y273050D02*
X298450Y266700D01*
X292100Y273050D02*
X292100Y285750D01*
X298450Y292100D01*
X311150Y292100D01*
X317500Y285750D01*
X317500Y273050D01*
X311150Y266700D01*
X298450Y292100D02*
X292100Y298450D01*
X311150Y292100D02*
X317500Y298450D01*
X317500Y311150D01*
X292100Y234950D02*
X292100Y222250D01*
X292100Y234950D02*
X298450Y241300D01*
X311150Y241300D01*
X317500Y234950D01*
X298450Y241300D02*
X292100Y247650D01*
X292100Y260350D01*
X298450Y266700D01*
X311150Y266700D01*
X317500Y260350D01*
X317500Y247650D01*
X311150Y241300D01*
X292100Y196850D02*
X298450Y190500D01*
X292100Y196850D02*
X292100Y209550D01*
X298450Y215900D01*
X311150Y215900D01*
X317500Y209550D01*
X317500Y196850D01*
X311150Y190500D01*
X298450Y215900D02*
X292100Y222250D01*
X311150Y215900D02*
X317500Y222250D01*
X317500Y234950D01*
X292100Y158750D02*
X292100Y146050D01*
X292100Y158750D02*
X298450Y165100D01*
X311150Y165100D01*
X317500Y158750D01*
X298450Y165100D02*
X292100Y171450D01*
X292100Y184150D01*
X298450Y190500D01*
X311150Y190500D01*
X317500Y184150D01*
X317500Y171450D01*
X311150Y165100D01*
X292100Y120650D02*
X298450Y114300D01*
X292100Y120650D02*
X292100Y133350D01*
X298450Y139700D01*
X311150Y139700D01*
X317500Y133350D01*
X317500Y120650D01*
X311150Y114300D01*
X298450Y139700D02*
X292100Y146050D01*
X311150Y139700D02*
X317500Y146050D01*
X317500Y158750D01*
X292100Y82550D02*
X292100Y69850D01*
X292100Y82550D02*
X298450Y88900D01*
X311150Y88900D01*
X317500Y82550D01*
X298450Y88900D02*
X292100Y95250D01*
X292100Y107950D01*
X298450Y114300D01*
X311150Y114300D01*
X317500Y107950D01*
X317500Y95250D01*
X311150Y88900D01*
X311150Y63500D02*
X298450Y63500D01*
X292100Y69850D01*
X311150Y63500D02*
X317500Y69850D01*
X317500Y82550D01*
X298450Y444500D02*
X292100Y450850D01*
X292100Y463550D01*
X298450Y469900D01*
X311150Y469900D01*
X317500Y463550D01*
X317500Y450850D01*
X311150Y444500D01*
D11*
X302409Y60325D02*
X302409Y58152D01*
X302407Y58103D01*
X302401Y58055D01*
X302392Y58007D01*
X302379Y57960D01*
X302362Y57914D01*
X302341Y57870D01*
X302317Y57828D01*
X302290Y57787D01*
X302260Y57749D01*
X302227Y57713D01*
X302191Y57680D01*
X302153Y57650D01*
X302112Y57623D01*
X302070Y57599D01*
X302026Y57578D01*
X301980Y57561D01*
X301933Y57548D01*
X301885Y57539D01*
X301837Y57533D01*
X301788Y57531D01*
X301477Y57531D01*
X303813Y57531D02*
X303813Y60325D01*
X304589Y60325D01*
X304644Y60323D01*
X304699Y60317D01*
X304754Y60307D01*
X304808Y60294D01*
X304860Y60276D01*
X304911Y60255D01*
X304961Y60230D01*
X305009Y60202D01*
X305054Y60170D01*
X305097Y60135D01*
X305138Y60098D01*
X305175Y60057D01*
X305210Y60014D01*
X305242Y59969D01*
X305270Y59921D01*
X305295Y59871D01*
X305316Y59820D01*
X305334Y59768D01*
X305347Y59714D01*
X305357Y59659D01*
X305363Y59604D01*
X305365Y59549D01*
X305363Y59494D01*
X305357Y59439D01*
X305347Y59384D01*
X305334Y59330D01*
X305316Y59278D01*
X305295Y59227D01*
X305270Y59177D01*
X305242Y59129D01*
X305210Y59084D01*
X305175Y59041D01*
X305138Y59000D01*
X305097Y58963D01*
X305054Y58928D01*
X305009Y58896D01*
X304961Y58868D01*
X304911Y58843D01*
X304860Y58822D01*
X304808Y58804D01*
X304754Y58791D01*
X304699Y58781D01*
X304644Y58775D01*
X304589Y58773D01*
X303813Y58773D01*
X306423Y57531D02*
X307199Y57531D01*
X307254Y57533D01*
X307309Y57539D01*
X307364Y57549D01*
X307418Y57562D01*
X307470Y57580D01*
X307521Y57601D01*
X307571Y57626D01*
X307619Y57654D01*
X307664Y57686D01*
X307707Y57721D01*
X307748Y57758D01*
X307785Y57799D01*
X307820Y57842D01*
X307852Y57887D01*
X307880Y57935D01*
X307905Y57985D01*
X307926Y58036D01*
X307944Y58088D01*
X307957Y58142D01*
X307967Y58197D01*
X307973Y58252D01*
X307975Y58307D01*
X307973Y58362D01*
X307967Y58417D01*
X307957Y58472D01*
X307944Y58526D01*
X307926Y58578D01*
X307905Y58629D01*
X307880Y58679D01*
X307852Y58727D01*
X307820Y58772D01*
X307785Y58815D01*
X307748Y58856D01*
X307707Y58893D01*
X307664Y58928D01*
X307619Y58960D01*
X307571Y58988D01*
X307521Y59013D01*
X307470Y59034D01*
X307418Y59052D01*
X307364Y59065D01*
X307309Y59075D01*
X307254Y59081D01*
X307199Y59083D01*
X307354Y60325D02*
X306423Y60325D01*
X307354Y60325D02*
X307403Y60323D01*
X307451Y60317D01*
X307499Y60308D01*
X307546Y60295D01*
X307592Y60278D01*
X307636Y60257D01*
X307678Y60233D01*
X307719Y60206D01*
X307757Y60176D01*
X307793Y60143D01*
X307826Y60107D01*
X307856Y60069D01*
X307883Y60028D01*
X307907Y59986D01*
X307928Y59942D01*
X307945Y59896D01*
X307958Y59849D01*
X307967Y59801D01*
X307973Y59753D01*
X307975Y59704D01*
X307973Y59655D01*
X307967Y59607D01*
X307958Y59559D01*
X307945Y59512D01*
X307928Y59466D01*
X307907Y59422D01*
X307883Y59380D01*
X307856Y59339D01*
X307826Y59301D01*
X307793Y59265D01*
X307757Y59232D01*
X307719Y59202D01*
X307678Y59175D01*
X307636Y59151D01*
X307592Y59130D01*
X307546Y59113D01*
X307499Y59100D01*
X307451Y59091D01*
X307403Y59085D01*
X307354Y59083D01*
X306733Y59083D01*
X75057Y113157D02*
X75057Y116967D01*
X76115Y116967D01*
X76179Y116965D01*
X76243Y116959D01*
X76306Y116950D01*
X76368Y116936D01*
X76430Y116919D01*
X76490Y116898D01*
X76549Y116874D01*
X76607Y116846D01*
X76662Y116814D01*
X76716Y116780D01*
X76767Y116742D01*
X76817Y116701D01*
X76863Y116657D01*
X76907Y116611D01*
X76948Y116561D01*
X76986Y116510D01*
X77020Y116456D01*
X77052Y116401D01*
X77080Y116343D01*
X77104Y116284D01*
X77125Y116224D01*
X77142Y116162D01*
X77156Y116100D01*
X77165Y116037D01*
X77171Y115973D01*
X77173Y115909D01*
X77171Y115845D01*
X77165Y115781D01*
X77156Y115718D01*
X77142Y115656D01*
X77125Y115594D01*
X77104Y115534D01*
X77080Y115475D01*
X77052Y115417D01*
X77020Y115362D01*
X76986Y115308D01*
X76948Y115257D01*
X76907Y115207D01*
X76863Y115161D01*
X76817Y115117D01*
X76767Y115076D01*
X76716Y115038D01*
X76662Y115004D01*
X76607Y114972D01*
X76549Y114944D01*
X76490Y114920D01*
X76430Y114899D01*
X76368Y114882D01*
X76306Y114868D01*
X76243Y114859D01*
X76179Y114853D01*
X76115Y114851D01*
X76115Y114850D02*
X75057Y114850D01*
X76327Y114850D02*
X77174Y113157D01*
X80811Y116015D02*
X80809Y116075D01*
X80803Y116134D01*
X80794Y116194D01*
X80781Y116252D01*
X80764Y116309D01*
X80744Y116366D01*
X80720Y116421D01*
X80693Y116474D01*
X80663Y116526D01*
X80629Y116575D01*
X80592Y116622D01*
X80553Y116667D01*
X80510Y116710D01*
X80465Y116749D01*
X80418Y116786D01*
X80369Y116820D01*
X80317Y116850D01*
X80264Y116877D01*
X80209Y116901D01*
X80152Y116921D01*
X80095Y116938D01*
X80037Y116951D01*
X79977Y116960D01*
X79918Y116966D01*
X79858Y116968D01*
X79858Y116967D02*
X79791Y116965D01*
X79724Y116960D01*
X79658Y116951D01*
X79592Y116938D01*
X79528Y116922D01*
X79464Y116902D01*
X79401Y116878D01*
X79339Y116852D01*
X79280Y116822D01*
X79222Y116789D01*
X79165Y116752D01*
X79111Y116713D01*
X79059Y116671D01*
X79010Y116626D01*
X78963Y116578D01*
X78919Y116528D01*
X78877Y116475D01*
X78839Y116420D01*
X78803Y116364D01*
X78771Y116305D01*
X78742Y116245D01*
X78716Y116183D01*
X78694Y116120D01*
X80493Y115274D02*
X80534Y115316D01*
X80573Y115361D01*
X80610Y115407D01*
X80644Y115456D01*
X80675Y115506D01*
X80702Y115558D01*
X80727Y115612D01*
X80749Y115667D01*
X80768Y115723D01*
X80783Y115780D01*
X80795Y115838D01*
X80803Y115897D01*
X80808Y115956D01*
X80810Y116015D01*
X80493Y115274D02*
X78694Y113157D01*
X80810Y113157D01*
M02*
